%TF.GenerationSoftware,KiCad,Pcbnew,7.0.11+1*%
%TF.CreationDate,2024-06-05T10:26:47+01:00*%
%TF.ProjectId,nanoshield,6e616e6f-7368-4696-956c-642e6b696361,rev?*%
%TF.SameCoordinates,Original*%
%TF.FileFunction,Legend,Top*%
%TF.FilePolarity,Positive*%
%FSLAX46Y46*%
G04 Gerber Fmt 4.6, Leading zero omitted, Abs format (unit mm)*
G04 Created by KiCad (PCBNEW 7.0.11+1) date 2024-06-05 10:26:47*
%MOMM*%
%LPD*%
G01*
G04 APERTURE LIST*
%ADD10C,0.100000*%
%ADD11C,0.150000*%
%ADD12C,0.304800*%
%ADD13C,0.120000*%
%ADD14C,2.499360*%
G04 APERTURE END LIST*
D10*
X151603884Y-55512419D02*
X151603884Y-54512419D01*
X151603884Y-54512419D02*
X151937217Y-55226704D01*
X151937217Y-55226704D02*
X152270550Y-54512419D01*
X152270550Y-54512419D02*
X152270550Y-55512419D01*
X152937217Y-54512419D02*
X153032455Y-54512419D01*
X153032455Y-54512419D02*
X153127693Y-54560038D01*
X153127693Y-54560038D02*
X153175312Y-54607657D01*
X153175312Y-54607657D02*
X153222931Y-54702895D01*
X153222931Y-54702895D02*
X153270550Y-54893371D01*
X153270550Y-54893371D02*
X153270550Y-55131466D01*
X153270550Y-55131466D02*
X153222931Y-55321942D01*
X153222931Y-55321942D02*
X153175312Y-55417180D01*
X153175312Y-55417180D02*
X153127693Y-55464800D01*
X153127693Y-55464800D02*
X153032455Y-55512419D01*
X153032455Y-55512419D02*
X152937217Y-55512419D01*
X152937217Y-55512419D02*
X152841979Y-55464800D01*
X152841979Y-55464800D02*
X152794360Y-55417180D01*
X152794360Y-55417180D02*
X152746741Y-55321942D01*
X152746741Y-55321942D02*
X152699122Y-55131466D01*
X152699122Y-55131466D02*
X152699122Y-54893371D01*
X152699122Y-54893371D02*
X152746741Y-54702895D01*
X152746741Y-54702895D02*
X152794360Y-54607657D01*
X152794360Y-54607657D02*
X152841979Y-54560038D01*
X152841979Y-54560038D02*
X152937217Y-54512419D01*
X153651503Y-55464800D02*
X153794360Y-55512419D01*
X153794360Y-55512419D02*
X154032455Y-55512419D01*
X154032455Y-55512419D02*
X154127693Y-55464800D01*
X154127693Y-55464800D02*
X154175312Y-55417180D01*
X154175312Y-55417180D02*
X154222931Y-55321942D01*
X154222931Y-55321942D02*
X154222931Y-55226704D01*
X154222931Y-55226704D02*
X154175312Y-55131466D01*
X154175312Y-55131466D02*
X154127693Y-55083847D01*
X154127693Y-55083847D02*
X154032455Y-55036228D01*
X154032455Y-55036228D02*
X153841979Y-54988609D01*
X153841979Y-54988609D02*
X153746741Y-54940990D01*
X153746741Y-54940990D02*
X153699122Y-54893371D01*
X153699122Y-54893371D02*
X153651503Y-54798133D01*
X153651503Y-54798133D02*
X153651503Y-54702895D01*
X153651503Y-54702895D02*
X153699122Y-54607657D01*
X153699122Y-54607657D02*
X153746741Y-54560038D01*
X153746741Y-54560038D02*
X153841979Y-54512419D01*
X153841979Y-54512419D02*
X154080074Y-54512419D01*
X154080074Y-54512419D02*
X154222931Y-54560038D01*
X155413408Y-55512419D02*
X155413408Y-54512419D01*
X155413408Y-54512419D02*
X155651503Y-54512419D01*
X155651503Y-54512419D02*
X155794360Y-54560038D01*
X155794360Y-54560038D02*
X155889598Y-54655276D01*
X155889598Y-54655276D02*
X155937217Y-54750514D01*
X155937217Y-54750514D02*
X155984836Y-54940990D01*
X155984836Y-54940990D02*
X155984836Y-55083847D01*
X155984836Y-55083847D02*
X155937217Y-55274323D01*
X155937217Y-55274323D02*
X155889598Y-55369561D01*
X155889598Y-55369561D02*
X155794360Y-55464800D01*
X155794360Y-55464800D02*
X155651503Y-55512419D01*
X155651503Y-55512419D02*
X155413408Y-55512419D01*
X156603884Y-54512419D02*
X156794360Y-54512419D01*
X156794360Y-54512419D02*
X156889598Y-54560038D01*
X156889598Y-54560038D02*
X156984836Y-54655276D01*
X156984836Y-54655276D02*
X157032455Y-54845752D01*
X157032455Y-54845752D02*
X157032455Y-55179085D01*
X157032455Y-55179085D02*
X156984836Y-55369561D01*
X156984836Y-55369561D02*
X156889598Y-55464800D01*
X156889598Y-55464800D02*
X156794360Y-55512419D01*
X156794360Y-55512419D02*
X156603884Y-55512419D01*
X156603884Y-55512419D02*
X156508646Y-55464800D01*
X156508646Y-55464800D02*
X156413408Y-55369561D01*
X156413408Y-55369561D02*
X156365789Y-55179085D01*
X156365789Y-55179085D02*
X156365789Y-54845752D01*
X156365789Y-54845752D02*
X156413408Y-54655276D01*
X156413408Y-54655276D02*
X156508646Y-54560038D01*
X156508646Y-54560038D02*
X156603884Y-54512419D01*
X158032455Y-55417180D02*
X157984836Y-55464800D01*
X157984836Y-55464800D02*
X157841979Y-55512419D01*
X157841979Y-55512419D02*
X157746741Y-55512419D01*
X157746741Y-55512419D02*
X157603884Y-55464800D01*
X157603884Y-55464800D02*
X157508646Y-55369561D01*
X157508646Y-55369561D02*
X157461027Y-55274323D01*
X157461027Y-55274323D02*
X157413408Y-55083847D01*
X157413408Y-55083847D02*
X157413408Y-54940990D01*
X157413408Y-54940990D02*
X157461027Y-54750514D01*
X157461027Y-54750514D02*
X157508646Y-54655276D01*
X157508646Y-54655276D02*
X157603884Y-54560038D01*
X157603884Y-54560038D02*
X157746741Y-54512419D01*
X157746741Y-54512419D02*
X157841979Y-54512419D01*
X157841979Y-54512419D02*
X157984836Y-54560038D01*
X157984836Y-54560038D02*
X158032455Y-54607657D01*
X158461027Y-55512419D02*
X158461027Y-54512419D01*
X159032455Y-55512419D02*
X158603884Y-54940990D01*
X159032455Y-54512419D02*
X158461027Y-55083847D01*
X151461027Y-56455752D02*
X151841979Y-56455752D01*
X151603884Y-56122419D02*
X151603884Y-56979561D01*
X151603884Y-56979561D02*
X151651503Y-57074800D01*
X151651503Y-57074800D02*
X151746741Y-57122419D01*
X151746741Y-57122419D02*
X151841979Y-57122419D01*
X152175313Y-57122419D02*
X152175313Y-56122419D01*
X152603884Y-57122419D02*
X152603884Y-56598609D01*
X152603884Y-56598609D02*
X152556265Y-56503371D01*
X152556265Y-56503371D02*
X152461027Y-56455752D01*
X152461027Y-56455752D02*
X152318170Y-56455752D01*
X152318170Y-56455752D02*
X152222932Y-56503371D01*
X152222932Y-56503371D02*
X152175313Y-56550990D01*
X153080075Y-57122419D02*
X153080075Y-56455752D01*
X153080075Y-56122419D02*
X153032456Y-56170038D01*
X153032456Y-56170038D02*
X153080075Y-56217657D01*
X153080075Y-56217657D02*
X153127694Y-56170038D01*
X153127694Y-56170038D02*
X153080075Y-56122419D01*
X153080075Y-56122419D02*
X153080075Y-56217657D01*
X153508646Y-57074800D02*
X153603884Y-57122419D01*
X153603884Y-57122419D02*
X153794360Y-57122419D01*
X153794360Y-57122419D02*
X153889598Y-57074800D01*
X153889598Y-57074800D02*
X153937217Y-56979561D01*
X153937217Y-56979561D02*
X153937217Y-56931942D01*
X153937217Y-56931942D02*
X153889598Y-56836704D01*
X153889598Y-56836704D02*
X153794360Y-56789085D01*
X153794360Y-56789085D02*
X153651503Y-56789085D01*
X153651503Y-56789085D02*
X153556265Y-56741466D01*
X153556265Y-56741466D02*
X153508646Y-56646228D01*
X153508646Y-56646228D02*
X153508646Y-56598609D01*
X153508646Y-56598609D02*
X153556265Y-56503371D01*
X153556265Y-56503371D02*
X153651503Y-56455752D01*
X153651503Y-56455752D02*
X153794360Y-56455752D01*
X153794360Y-56455752D02*
X153889598Y-56503371D01*
X155032456Y-56455752D02*
X155222932Y-57122419D01*
X155222932Y-57122419D02*
X155413408Y-56646228D01*
X155413408Y-56646228D02*
X155603884Y-57122419D01*
X155603884Y-57122419D02*
X155794360Y-56455752D01*
X156603884Y-57122419D02*
X156603884Y-56598609D01*
X156603884Y-56598609D02*
X156556265Y-56503371D01*
X156556265Y-56503371D02*
X156461027Y-56455752D01*
X156461027Y-56455752D02*
X156270551Y-56455752D01*
X156270551Y-56455752D02*
X156175313Y-56503371D01*
X156603884Y-57074800D02*
X156508646Y-57122419D01*
X156508646Y-57122419D02*
X156270551Y-57122419D01*
X156270551Y-57122419D02*
X156175313Y-57074800D01*
X156175313Y-57074800D02*
X156127694Y-56979561D01*
X156127694Y-56979561D02*
X156127694Y-56884323D01*
X156127694Y-56884323D02*
X156175313Y-56789085D01*
X156175313Y-56789085D02*
X156270551Y-56741466D01*
X156270551Y-56741466D02*
X156508646Y-56741466D01*
X156508646Y-56741466D02*
X156603884Y-56693847D01*
X156984837Y-56455752D02*
X157222932Y-57122419D01*
X157461027Y-56455752D02*
X157222932Y-57122419D01*
X157222932Y-57122419D02*
X157127694Y-57360514D01*
X157127694Y-57360514D02*
X157080075Y-57408133D01*
X157080075Y-57408133D02*
X156984837Y-57455752D01*
X158603885Y-56122419D02*
X158603885Y-56931942D01*
X158603885Y-56931942D02*
X158651504Y-57027180D01*
X158651504Y-57027180D02*
X158699123Y-57074800D01*
X158699123Y-57074800D02*
X158794361Y-57122419D01*
X158794361Y-57122419D02*
X158984837Y-57122419D01*
X158984837Y-57122419D02*
X159080075Y-57074800D01*
X159080075Y-57074800D02*
X159127694Y-57027180D01*
X159127694Y-57027180D02*
X159175313Y-56931942D01*
X159175313Y-56931942D02*
X159175313Y-56122419D01*
X159651504Y-57122419D02*
X159651504Y-56122419D01*
X159651504Y-56122419D02*
X160032456Y-56122419D01*
X160032456Y-56122419D02*
X160127694Y-56170038D01*
X160127694Y-56170038D02*
X160175313Y-56217657D01*
X160175313Y-56217657D02*
X160222932Y-56312895D01*
X160222932Y-56312895D02*
X160222932Y-56455752D01*
X160222932Y-56455752D02*
X160175313Y-56550990D01*
X160175313Y-56550990D02*
X160127694Y-56598609D01*
X160127694Y-56598609D02*
X160032456Y-56646228D01*
X160032456Y-56646228D02*
X159651504Y-56646228D01*
D11*
X128986779Y-33369819D02*
X128986779Y-32369819D01*
X128986779Y-32846009D02*
X129558207Y-32846009D01*
X129558207Y-33369819D02*
X129558207Y-32369819D01*
X130034398Y-33369819D02*
X130034398Y-32369819D01*
X130034398Y-32369819D02*
X130272493Y-32369819D01*
X130272493Y-32369819D02*
X130415350Y-32417438D01*
X130415350Y-32417438D02*
X130510588Y-32512676D01*
X130510588Y-32512676D02*
X130558207Y-32607914D01*
X130558207Y-32607914D02*
X130605826Y-32798390D01*
X130605826Y-32798390D02*
X130605826Y-32941247D01*
X130605826Y-32941247D02*
X130558207Y-33131723D01*
X130558207Y-33131723D02*
X130510588Y-33226961D01*
X130510588Y-33226961D02*
X130415350Y-33322200D01*
X130415350Y-33322200D02*
X130272493Y-33369819D01*
X130272493Y-33369819D02*
X130034398Y-33369819D01*
X131034398Y-33369819D02*
X131034398Y-32369819D01*
X131034398Y-32369819D02*
X131367731Y-33084104D01*
X131367731Y-33084104D02*
X131701064Y-32369819D01*
X131701064Y-32369819D02*
X131701064Y-33369819D01*
X132177255Y-33369819D02*
X132177255Y-32369819D01*
X133272493Y-32703152D02*
X133653445Y-32703152D01*
X133415350Y-32369819D02*
X133415350Y-33226961D01*
X133415350Y-33226961D02*
X133462969Y-33322200D01*
X133462969Y-33322200D02*
X133558207Y-33369819D01*
X133558207Y-33369819D02*
X133653445Y-33369819D01*
X133986779Y-33369819D02*
X133986779Y-32369819D01*
X134415350Y-33369819D02*
X134415350Y-32846009D01*
X134415350Y-32846009D02*
X134367731Y-32750771D01*
X134367731Y-32750771D02*
X134272493Y-32703152D01*
X134272493Y-32703152D02*
X134129636Y-32703152D01*
X134129636Y-32703152D02*
X134034398Y-32750771D01*
X134034398Y-32750771D02*
X133986779Y-32798390D01*
X134891541Y-33369819D02*
X134891541Y-32703152D01*
X134891541Y-32369819D02*
X134843922Y-32417438D01*
X134843922Y-32417438D02*
X134891541Y-32465057D01*
X134891541Y-32465057D02*
X134939160Y-32417438D01*
X134939160Y-32417438D02*
X134891541Y-32369819D01*
X134891541Y-32369819D02*
X134891541Y-32465057D01*
X135320112Y-33322200D02*
X135415350Y-33369819D01*
X135415350Y-33369819D02*
X135605826Y-33369819D01*
X135605826Y-33369819D02*
X135701064Y-33322200D01*
X135701064Y-33322200D02*
X135748683Y-33226961D01*
X135748683Y-33226961D02*
X135748683Y-33179342D01*
X135748683Y-33179342D02*
X135701064Y-33084104D01*
X135701064Y-33084104D02*
X135605826Y-33036485D01*
X135605826Y-33036485D02*
X135462969Y-33036485D01*
X135462969Y-33036485D02*
X135367731Y-32988866D01*
X135367731Y-32988866D02*
X135320112Y-32893628D01*
X135320112Y-32893628D02*
X135320112Y-32846009D01*
X135320112Y-32846009D02*
X135367731Y-32750771D01*
X135367731Y-32750771D02*
X135462969Y-32703152D01*
X135462969Y-32703152D02*
X135605826Y-32703152D01*
X135605826Y-32703152D02*
X135701064Y-32750771D01*
X136843922Y-32703152D02*
X137034398Y-33369819D01*
X137034398Y-33369819D02*
X137224874Y-32893628D01*
X137224874Y-32893628D02*
X137415350Y-33369819D01*
X137415350Y-33369819D02*
X137605826Y-32703152D01*
X138415350Y-33369819D02*
X138415350Y-32846009D01*
X138415350Y-32846009D02*
X138367731Y-32750771D01*
X138367731Y-32750771D02*
X138272493Y-32703152D01*
X138272493Y-32703152D02*
X138082017Y-32703152D01*
X138082017Y-32703152D02*
X137986779Y-32750771D01*
X138415350Y-33322200D02*
X138320112Y-33369819D01*
X138320112Y-33369819D02*
X138082017Y-33369819D01*
X138082017Y-33369819D02*
X137986779Y-33322200D01*
X137986779Y-33322200D02*
X137939160Y-33226961D01*
X137939160Y-33226961D02*
X137939160Y-33131723D01*
X137939160Y-33131723D02*
X137986779Y-33036485D01*
X137986779Y-33036485D02*
X138082017Y-32988866D01*
X138082017Y-32988866D02*
X138320112Y-32988866D01*
X138320112Y-32988866D02*
X138415350Y-32941247D01*
X138796303Y-32703152D02*
X139034398Y-33369819D01*
X139272493Y-32703152D02*
X139034398Y-33369819D01*
X139034398Y-33369819D02*
X138939160Y-33607914D01*
X138939160Y-33607914D02*
X138891541Y-33655533D01*
X138891541Y-33655533D02*
X138796303Y-33703152D01*
X105574819Y-47583333D02*
X106289104Y-47583333D01*
X106289104Y-47583333D02*
X106431961Y-47630952D01*
X106431961Y-47630952D02*
X106527200Y-47726190D01*
X106527200Y-47726190D02*
X106574819Y-47869047D01*
X106574819Y-47869047D02*
X106574819Y-47964285D01*
X105670057Y-47154761D02*
X105622438Y-47107142D01*
X105622438Y-47107142D02*
X105574819Y-47011904D01*
X105574819Y-47011904D02*
X105574819Y-46773809D01*
X105574819Y-46773809D02*
X105622438Y-46678571D01*
X105622438Y-46678571D02*
X105670057Y-46630952D01*
X105670057Y-46630952D02*
X105765295Y-46583333D01*
X105765295Y-46583333D02*
X105860533Y-46583333D01*
X105860533Y-46583333D02*
X106003390Y-46630952D01*
X106003390Y-46630952D02*
X106574819Y-47202380D01*
X106574819Y-47202380D02*
X106574819Y-46583333D01*
X120083333Y-85209580D02*
X120035714Y-85257200D01*
X120035714Y-85257200D02*
X119892857Y-85304819D01*
X119892857Y-85304819D02*
X119797619Y-85304819D01*
X119797619Y-85304819D02*
X119654762Y-85257200D01*
X119654762Y-85257200D02*
X119559524Y-85161961D01*
X119559524Y-85161961D02*
X119511905Y-85066723D01*
X119511905Y-85066723D02*
X119464286Y-84876247D01*
X119464286Y-84876247D02*
X119464286Y-84733390D01*
X119464286Y-84733390D02*
X119511905Y-84542914D01*
X119511905Y-84542914D02*
X119559524Y-84447676D01*
X119559524Y-84447676D02*
X119654762Y-84352438D01*
X119654762Y-84352438D02*
X119797619Y-84304819D01*
X119797619Y-84304819D02*
X119892857Y-84304819D01*
X119892857Y-84304819D02*
X120035714Y-84352438D01*
X120035714Y-84352438D02*
X120083333Y-84400057D01*
X121035714Y-85304819D02*
X120464286Y-85304819D01*
X120750000Y-85304819D02*
X120750000Y-84304819D01*
X120750000Y-84304819D02*
X120654762Y-84447676D01*
X120654762Y-84447676D02*
X120559524Y-84542914D01*
X120559524Y-84542914D02*
X120464286Y-84590533D01*
X120174819Y-71716666D02*
X119698628Y-72049999D01*
X120174819Y-72288094D02*
X119174819Y-72288094D01*
X119174819Y-72288094D02*
X119174819Y-71907142D01*
X119174819Y-71907142D02*
X119222438Y-71811904D01*
X119222438Y-71811904D02*
X119270057Y-71764285D01*
X119270057Y-71764285D02*
X119365295Y-71716666D01*
X119365295Y-71716666D02*
X119508152Y-71716666D01*
X119508152Y-71716666D02*
X119603390Y-71764285D01*
X119603390Y-71764285D02*
X119651009Y-71811904D01*
X119651009Y-71811904D02*
X119698628Y-71907142D01*
X119698628Y-71907142D02*
X119698628Y-72288094D01*
X120174819Y-70764285D02*
X120174819Y-71335713D01*
X120174819Y-71049999D02*
X119174819Y-71049999D01*
X119174819Y-71049999D02*
X119317676Y-71145237D01*
X119317676Y-71145237D02*
X119412914Y-71240475D01*
X119412914Y-71240475D02*
X119460533Y-71335713D01*
D12*
X88364741Y-76308000D02*
X89453312Y-76308000D01*
X89453312Y-76308000D02*
X89671027Y-76380571D01*
X89671027Y-76380571D02*
X89816170Y-76525714D01*
X89816170Y-76525714D02*
X89888741Y-76743428D01*
X89888741Y-76743428D02*
X89888741Y-76888571D01*
X88364741Y-74856571D02*
X88364741Y-75582285D01*
X88364741Y-75582285D02*
X89090455Y-75654857D01*
X89090455Y-75654857D02*
X89017884Y-75582285D01*
X89017884Y-75582285D02*
X88945312Y-75437143D01*
X88945312Y-75437143D02*
X88945312Y-75074285D01*
X88945312Y-75074285D02*
X89017884Y-74929143D01*
X89017884Y-74929143D02*
X89090455Y-74856571D01*
X89090455Y-74856571D02*
X89235598Y-74784000D01*
X89235598Y-74784000D02*
X89598455Y-74784000D01*
X89598455Y-74784000D02*
X89743598Y-74856571D01*
X89743598Y-74856571D02*
X89816170Y-74929143D01*
X89816170Y-74929143D02*
X89888741Y-75074285D01*
X89888741Y-75074285D02*
X89888741Y-75437143D01*
X89888741Y-75437143D02*
X89816170Y-75582285D01*
X89816170Y-75582285D02*
X89743598Y-75654857D01*
X111890221Y-85597143D02*
X110366221Y-85597143D01*
X110366221Y-85597143D02*
X110366221Y-85234286D01*
X110366221Y-85234286D02*
X110438792Y-85016572D01*
X110438792Y-85016572D02*
X110583935Y-84871429D01*
X110583935Y-84871429D02*
X110729078Y-84798858D01*
X110729078Y-84798858D02*
X111019364Y-84726286D01*
X111019364Y-84726286D02*
X111237078Y-84726286D01*
X111237078Y-84726286D02*
X111527364Y-84798858D01*
X111527364Y-84798858D02*
X111672507Y-84871429D01*
X111672507Y-84871429D02*
X111817650Y-85016572D01*
X111817650Y-85016572D02*
X111890221Y-85234286D01*
X111890221Y-85234286D02*
X111890221Y-85597143D01*
X111890221Y-84073143D02*
X110366221Y-84073143D01*
X111890221Y-83347429D02*
X110366221Y-83347429D01*
X110366221Y-83347429D02*
X111890221Y-82476572D01*
X111890221Y-82476572D02*
X110366221Y-82476572D01*
X111309650Y-81750858D02*
X111309650Y-80589716D01*
X110366221Y-79138287D02*
X110366221Y-79864001D01*
X110366221Y-79864001D02*
X111091935Y-79936573D01*
X111091935Y-79936573D02*
X111019364Y-79864001D01*
X111019364Y-79864001D02*
X110946792Y-79718859D01*
X110946792Y-79718859D02*
X110946792Y-79356001D01*
X110946792Y-79356001D02*
X111019364Y-79210859D01*
X111019364Y-79210859D02*
X111091935Y-79138287D01*
X111091935Y-79138287D02*
X111237078Y-79065716D01*
X111237078Y-79065716D02*
X111599935Y-79065716D01*
X111599935Y-79065716D02*
X111745078Y-79138287D01*
X111745078Y-79138287D02*
X111817650Y-79210859D01*
X111817650Y-79210859D02*
X111890221Y-79356001D01*
X111890221Y-79356001D02*
X111890221Y-79718859D01*
X111890221Y-79718859D02*
X111817650Y-79864001D01*
X111817650Y-79864001D02*
X111745078Y-79936573D01*
X112035364Y-78775430D02*
X112035364Y-77614287D01*
X111890221Y-76453144D02*
X111890221Y-77324001D01*
X111890221Y-76888572D02*
X110366221Y-76888572D01*
X110366221Y-76888572D02*
X110583935Y-77033715D01*
X110583935Y-77033715D02*
X110729078Y-77178858D01*
X110729078Y-77178858D02*
X110801650Y-77324001D01*
X111019364Y-75582286D02*
X110946792Y-75727429D01*
X110946792Y-75727429D02*
X110874221Y-75800000D01*
X110874221Y-75800000D02*
X110729078Y-75872572D01*
X110729078Y-75872572D02*
X110656507Y-75872572D01*
X110656507Y-75872572D02*
X110511364Y-75800000D01*
X110511364Y-75800000D02*
X110438792Y-75727429D01*
X110438792Y-75727429D02*
X110366221Y-75582286D01*
X110366221Y-75582286D02*
X110366221Y-75292000D01*
X110366221Y-75292000D02*
X110438792Y-75146858D01*
X110438792Y-75146858D02*
X110511364Y-75074286D01*
X110511364Y-75074286D02*
X110656507Y-75001715D01*
X110656507Y-75001715D02*
X110729078Y-75001715D01*
X110729078Y-75001715D02*
X110874221Y-75074286D01*
X110874221Y-75074286D02*
X110946792Y-75146858D01*
X110946792Y-75146858D02*
X111019364Y-75292000D01*
X111019364Y-75292000D02*
X111019364Y-75582286D01*
X111019364Y-75582286D02*
X111091935Y-75727429D01*
X111091935Y-75727429D02*
X111164507Y-75800000D01*
X111164507Y-75800000D02*
X111309650Y-75872572D01*
X111309650Y-75872572D02*
X111599935Y-75872572D01*
X111599935Y-75872572D02*
X111745078Y-75800000D01*
X111745078Y-75800000D02*
X111817650Y-75727429D01*
X111817650Y-75727429D02*
X111890221Y-75582286D01*
X111890221Y-75582286D02*
X111890221Y-75292000D01*
X111890221Y-75292000D02*
X111817650Y-75146858D01*
X111817650Y-75146858D02*
X111745078Y-75074286D01*
X111745078Y-75074286D02*
X111599935Y-75001715D01*
X111599935Y-75001715D02*
X111309650Y-75001715D01*
X111309650Y-75001715D02*
X111164507Y-75074286D01*
X111164507Y-75074286D02*
X111091935Y-75146858D01*
X111091935Y-75146858D02*
X111019364Y-75292000D01*
X110366221Y-74058286D02*
X110366221Y-73913143D01*
X110366221Y-73913143D02*
X110438792Y-73768000D01*
X110438792Y-73768000D02*
X110511364Y-73695429D01*
X110511364Y-73695429D02*
X110656507Y-73622857D01*
X110656507Y-73622857D02*
X110946792Y-73550286D01*
X110946792Y-73550286D02*
X111309650Y-73550286D01*
X111309650Y-73550286D02*
X111599935Y-73622857D01*
X111599935Y-73622857D02*
X111745078Y-73695429D01*
X111745078Y-73695429D02*
X111817650Y-73768000D01*
X111817650Y-73768000D02*
X111890221Y-73913143D01*
X111890221Y-73913143D02*
X111890221Y-74058286D01*
X111890221Y-74058286D02*
X111817650Y-74203429D01*
X111817650Y-74203429D02*
X111745078Y-74276000D01*
X111745078Y-74276000D02*
X111599935Y-74348571D01*
X111599935Y-74348571D02*
X111309650Y-74421143D01*
X111309650Y-74421143D02*
X110946792Y-74421143D01*
X110946792Y-74421143D02*
X110656507Y-74348571D01*
X110656507Y-74348571D02*
X110511364Y-74276000D01*
X110511364Y-74276000D02*
X110438792Y-74203429D01*
X110438792Y-74203429D02*
X110366221Y-74058286D01*
X111890221Y-72244000D02*
X110366221Y-72244000D01*
X111817650Y-72244000D02*
X111890221Y-72389142D01*
X111890221Y-72389142D02*
X111890221Y-72679428D01*
X111890221Y-72679428D02*
X111817650Y-72824571D01*
X111817650Y-72824571D02*
X111745078Y-72897142D01*
X111745078Y-72897142D02*
X111599935Y-72969714D01*
X111599935Y-72969714D02*
X111164507Y-72969714D01*
X111164507Y-72969714D02*
X111019364Y-72897142D01*
X111019364Y-72897142D02*
X110946792Y-72824571D01*
X110946792Y-72824571D02*
X110874221Y-72679428D01*
X110874221Y-72679428D02*
X110874221Y-72389142D01*
X110874221Y-72389142D02*
X110946792Y-72244000D01*
X111817650Y-70937714D02*
X111890221Y-71082857D01*
X111890221Y-71082857D02*
X111890221Y-71373143D01*
X111890221Y-71373143D02*
X111817650Y-71518285D01*
X111817650Y-71518285D02*
X111672507Y-71590857D01*
X111672507Y-71590857D02*
X111091935Y-71590857D01*
X111091935Y-71590857D02*
X110946792Y-71518285D01*
X110946792Y-71518285D02*
X110874221Y-71373143D01*
X110874221Y-71373143D02*
X110874221Y-71082857D01*
X110874221Y-71082857D02*
X110946792Y-70937714D01*
X110946792Y-70937714D02*
X111091935Y-70865143D01*
X111091935Y-70865143D02*
X111237078Y-70865143D01*
X111237078Y-70865143D02*
X111382221Y-71590857D01*
X110874221Y-69558857D02*
X112107935Y-69558857D01*
X112107935Y-69558857D02*
X112253078Y-69631428D01*
X112253078Y-69631428D02*
X112325650Y-69703999D01*
X112325650Y-69703999D02*
X112398221Y-69849142D01*
X112398221Y-69849142D02*
X112398221Y-70066857D01*
X112398221Y-70066857D02*
X112325650Y-70211999D01*
X111817650Y-69558857D02*
X111890221Y-69703999D01*
X111890221Y-69703999D02*
X111890221Y-69994285D01*
X111890221Y-69994285D02*
X111817650Y-70139428D01*
X111817650Y-70139428D02*
X111745078Y-70211999D01*
X111745078Y-70211999D02*
X111599935Y-70284571D01*
X111599935Y-70284571D02*
X111164507Y-70284571D01*
X111164507Y-70284571D02*
X111019364Y-70211999D01*
X111019364Y-70211999D02*
X110946792Y-70139428D01*
X110946792Y-70139428D02*
X110874221Y-69994285D01*
X110874221Y-69994285D02*
X110874221Y-69703999D01*
X110874221Y-69703999D02*
X110946792Y-69558857D01*
X111890221Y-68833142D02*
X110874221Y-68833142D01*
X111164507Y-68833142D02*
X111019364Y-68760571D01*
X111019364Y-68760571D02*
X110946792Y-68688000D01*
X110946792Y-68688000D02*
X110874221Y-68542857D01*
X110874221Y-68542857D02*
X110874221Y-68397714D01*
X111817650Y-67309142D02*
X111890221Y-67454285D01*
X111890221Y-67454285D02*
X111890221Y-67744571D01*
X111890221Y-67744571D02*
X111817650Y-67889713D01*
X111817650Y-67889713D02*
X111672507Y-67962285D01*
X111672507Y-67962285D02*
X111091935Y-67962285D01*
X111091935Y-67962285D02*
X110946792Y-67889713D01*
X110946792Y-67889713D02*
X110874221Y-67744571D01*
X110874221Y-67744571D02*
X110874221Y-67454285D01*
X110874221Y-67454285D02*
X110946792Y-67309142D01*
X110946792Y-67309142D02*
X111091935Y-67236571D01*
X111091935Y-67236571D02*
X111237078Y-67236571D01*
X111237078Y-67236571D02*
X111382221Y-67962285D01*
X111817650Y-66002856D02*
X111890221Y-66147999D01*
X111890221Y-66147999D02*
X111890221Y-66438285D01*
X111890221Y-66438285D02*
X111817650Y-66583427D01*
X111817650Y-66583427D02*
X111672507Y-66655999D01*
X111672507Y-66655999D02*
X111091935Y-66655999D01*
X111091935Y-66655999D02*
X110946792Y-66583427D01*
X110946792Y-66583427D02*
X110874221Y-66438285D01*
X110874221Y-66438285D02*
X110874221Y-66147999D01*
X110874221Y-66147999D02*
X110946792Y-66002856D01*
X110946792Y-66002856D02*
X111091935Y-65930285D01*
X111091935Y-65930285D02*
X111237078Y-65930285D01*
X111237078Y-65930285D02*
X111382221Y-66655999D01*
D11*
X115733333Y-62554819D02*
X115400000Y-62078628D01*
X115161905Y-62554819D02*
X115161905Y-61554819D01*
X115161905Y-61554819D02*
X115542857Y-61554819D01*
X115542857Y-61554819D02*
X115638095Y-61602438D01*
X115638095Y-61602438D02*
X115685714Y-61650057D01*
X115685714Y-61650057D02*
X115733333Y-61745295D01*
X115733333Y-61745295D02*
X115733333Y-61888152D01*
X115733333Y-61888152D02*
X115685714Y-61983390D01*
X115685714Y-61983390D02*
X115638095Y-62031009D01*
X115638095Y-62031009D02*
X115542857Y-62078628D01*
X115542857Y-62078628D02*
X115161905Y-62078628D01*
X116114286Y-61650057D02*
X116161905Y-61602438D01*
X116161905Y-61602438D02*
X116257143Y-61554819D01*
X116257143Y-61554819D02*
X116495238Y-61554819D01*
X116495238Y-61554819D02*
X116590476Y-61602438D01*
X116590476Y-61602438D02*
X116638095Y-61650057D01*
X116638095Y-61650057D02*
X116685714Y-61745295D01*
X116685714Y-61745295D02*
X116685714Y-61840533D01*
X116685714Y-61840533D02*
X116638095Y-61983390D01*
X116638095Y-61983390D02*
X116066667Y-62554819D01*
X116066667Y-62554819D02*
X116685714Y-62554819D01*
X142304819Y-44983333D02*
X143019104Y-44983333D01*
X143019104Y-44983333D02*
X143161961Y-45030952D01*
X143161961Y-45030952D02*
X143257200Y-45126190D01*
X143257200Y-45126190D02*
X143304819Y-45269047D01*
X143304819Y-45269047D02*
X143304819Y-45364285D01*
X142638152Y-44078571D02*
X143304819Y-44078571D01*
X142257200Y-44316666D02*
X142971485Y-44554761D01*
X142971485Y-44554761D02*
X142971485Y-43935714D01*
D13*
%TO.C,J3*%
X123880000Y-79970000D02*
X123880000Y-31650000D01*
X123880000Y-79970000D02*
X121220000Y-79970000D01*
X123880000Y-31650000D02*
X121220000Y-31650000D01*
X122550000Y-82570000D02*
X121220000Y-82570000D01*
X121220000Y-82570000D02*
X121220000Y-81240000D01*
X121220000Y-79970000D02*
X121220000Y-31650000D01*
%TO.C,J1*%
X146740000Y-79970000D02*
X146740000Y-31650000D01*
X146740000Y-79970000D02*
X144080000Y-79970000D01*
X146740000Y-31650000D02*
X144080000Y-31650000D01*
X145410000Y-82570000D02*
X144080000Y-82570000D01*
X144080000Y-82570000D02*
X144080000Y-81240000D01*
X144080000Y-79970000D02*
X144080000Y-31650000D01*
%TO.C,J2*%
X105180000Y-31765000D02*
X105180000Y-62735000D01*
X92840000Y-31765000D02*
X105180000Y-31765000D01*
X106074338Y-41460000D02*
X106074338Y-41960000D01*
X105641325Y-41710000D02*
X106074338Y-41460000D01*
X106074338Y-41960000D02*
X105641325Y-41710000D01*
X105180000Y-62735000D02*
X92840000Y-62735000D01*
%TO.C,C1*%
X118520000Y-84320000D02*
X118520000Y-84005000D01*
X118520000Y-84320000D02*
X113280000Y-84320000D01*
X118520000Y-81895000D02*
X118520000Y-81580000D01*
X118520000Y-81580000D02*
X113280000Y-81580000D01*
X113280000Y-84320000D02*
X113280000Y-84005000D01*
X113280000Y-81895000D02*
X113280000Y-81580000D01*
%TO.C,R1*%
X117350000Y-67510000D02*
X117350000Y-68280000D01*
X118720000Y-68280000D02*
X115980000Y-68280000D01*
X115980000Y-68280000D02*
X115980000Y-74820000D01*
X118720000Y-74820000D02*
X118720000Y-68280000D01*
X115980000Y-74820000D02*
X118720000Y-74820000D01*
X117350000Y-75590000D02*
X117350000Y-74820000D01*
D12*
%TO.C,J5*%
X91201080Y-65299640D02*
X91201080Y-66800780D01*
X90949620Y-65299640D02*
X90949620Y-84799220D01*
X90700700Y-65299640D02*
X91201080Y-65299640D01*
X109199520Y-66800780D02*
X92199300Y-66800780D01*
X109199520Y-66800780D02*
X109699900Y-67301160D01*
X92199300Y-66800780D02*
X92199300Y-67301160D01*
X91701460Y-66800780D02*
X91701460Y-86300360D01*
X91450000Y-66800780D02*
X91450000Y-86300360D01*
X91201080Y-66800780D02*
X91701460Y-66800780D01*
X109699900Y-67301160D02*
X109699900Y-69800520D01*
X92199300Y-67301160D02*
X91701460Y-67301160D01*
X109699900Y-69800520D02*
X109199520Y-70300900D01*
X109199520Y-70300900D02*
X107200540Y-70300900D01*
X107200540Y-70300900D02*
X107200540Y-73801020D01*
X109199520Y-73801020D02*
X107200540Y-73801020D01*
X109699900Y-74298860D02*
X109199520Y-73801020D01*
X109699900Y-74298860D02*
X109699900Y-77301140D01*
X109699900Y-77301140D02*
X109199520Y-77798980D01*
X109199520Y-77798980D02*
X107200540Y-77798980D01*
X109199520Y-81299100D02*
X107200540Y-81299100D01*
X107200540Y-81299100D02*
X107200540Y-77798980D01*
X109699900Y-81799480D02*
X109199520Y-81299100D01*
X109699900Y-82299860D02*
X109699900Y-81799480D01*
X109699900Y-84298840D02*
X109699900Y-82299860D01*
X91701460Y-84298840D02*
X92199300Y-84298840D01*
X109199520Y-84799220D02*
X109699900Y-84298840D01*
X109199520Y-84799220D02*
X92199300Y-84799220D01*
X92199300Y-84799220D02*
X92199300Y-84298840D01*
X91201080Y-84799220D02*
X91201080Y-66800780D01*
X91201080Y-84799220D02*
X90700700Y-84799220D01*
X90700700Y-84799220D02*
X90700700Y-65299640D01*
X91701460Y-86300360D02*
X91201080Y-86300360D01*
X91201080Y-86300360D02*
X91201080Y-84799220D01*
D13*
%TO.C,R2*%
X115700000Y-58840000D02*
X115700000Y-58070000D01*
X114330000Y-58070000D02*
X117070000Y-58070000D01*
X117070000Y-58070000D02*
X117070000Y-51530000D01*
X114330000Y-51530000D02*
X114330000Y-58070000D01*
X117070000Y-51530000D02*
X114330000Y-51530000D01*
X115700000Y-50760000D02*
X115700000Y-51530000D01*
%TO.C,J4*%
X148470000Y-51790000D02*
X163830000Y-51790000D01*
X148470000Y-51790000D02*
X148470000Y-43160000D01*
X148590000Y-51790000D02*
X148590000Y-43160000D01*
X148708095Y-51790000D02*
X148708095Y-43160000D01*
X148826190Y-51790000D02*
X148826190Y-43160000D01*
X148944285Y-51790000D02*
X148944285Y-43160000D01*
X149062380Y-51790000D02*
X149062380Y-43160000D01*
X149180475Y-51790000D02*
X149180475Y-43160000D01*
X149298570Y-51790000D02*
X149298570Y-43160000D01*
X149416665Y-51790000D02*
X149416665Y-43160000D01*
X149534760Y-51790000D02*
X149534760Y-43160000D01*
X149652855Y-51790000D02*
X149652855Y-43160000D01*
X149770950Y-51790000D02*
X149770950Y-43160000D01*
X149889045Y-51790000D02*
X149889045Y-43160000D01*
X150007140Y-51790000D02*
X150007140Y-43160000D01*
X150125235Y-51790000D02*
X150125235Y-43160000D01*
X150243330Y-51790000D02*
X150243330Y-43160000D01*
X150361425Y-51790000D02*
X150361425Y-43160000D01*
X150479520Y-51790000D02*
X150479520Y-43160000D01*
X150597615Y-51790000D02*
X150597615Y-43160000D01*
X150715710Y-51790000D02*
X150715710Y-43160000D01*
X150833805Y-51790000D02*
X150833805Y-43160000D01*
X150951900Y-51790000D02*
X150951900Y-43160000D01*
X151070000Y-51790000D02*
X151070000Y-43160000D01*
X153610000Y-51790000D02*
X153610000Y-43160000D01*
X156150000Y-51790000D02*
X156150000Y-43160000D01*
X158690000Y-51790000D02*
X158690000Y-43160000D01*
X161230000Y-51790000D02*
X161230000Y-43160000D01*
X163830000Y-51790000D02*
X163830000Y-43160000D01*
X148470000Y-43160000D02*
X163830000Y-43160000D01*
X149440000Y-43160000D02*
X149440000Y-42750000D01*
X150160000Y-43160000D02*
X150160000Y-42750000D01*
X151980000Y-43160000D02*
X151980000Y-42750000D01*
X152700000Y-43160000D02*
X152700000Y-42750000D01*
X154520000Y-43160000D02*
X154520000Y-42750000D01*
X155240000Y-43160000D02*
X155240000Y-42750000D01*
X157060000Y-43160000D02*
X157060000Y-42750000D01*
X157780000Y-43160000D02*
X157780000Y-42750000D01*
X159600000Y-43160000D02*
X159600000Y-42750000D01*
X160320000Y-43160000D02*
X160320000Y-42750000D01*
X162140000Y-43160000D02*
X162140000Y-42750000D01*
X162860000Y-43160000D02*
X162860000Y-42750000D01*
X149440000Y-40650000D02*
X149440000Y-40270000D01*
X150160000Y-40650000D02*
X150160000Y-40270000D01*
X151980000Y-40650000D02*
X151980000Y-40210000D01*
X152700000Y-40650000D02*
X152700000Y-40210000D01*
X154520000Y-40650000D02*
X154520000Y-40210000D01*
X155240000Y-40650000D02*
X155240000Y-40210000D01*
X157060000Y-40650000D02*
X157060000Y-40210000D01*
X157780000Y-40650000D02*
X157780000Y-40210000D01*
X159600000Y-40650000D02*
X159600000Y-40210000D01*
X160320000Y-40650000D02*
X160320000Y-40210000D01*
X162140000Y-40650000D02*
X162140000Y-40210000D01*
X162860000Y-40650000D02*
X162860000Y-40210000D01*
X148470000Y-39160000D02*
X148470000Y-38050000D01*
X148470000Y-38050000D02*
X149800000Y-38050000D01*
%TD*%
D14*
%TO.C,J5*%
X93202600Y-70798740D03*
X93202600Y-80801260D03*
X103197500Y-83298080D03*
X103200040Y-75800000D03*
X103197500Y-68301920D03*
X105699400Y-80796180D03*
X105699400Y-70803820D03*
%TD*%
M02*
