%TF.GenerationSoftware,KiCad,Pcbnew,7.0.11+1*%
%TF.CreationDate,2024-06-05T10:26:47+01:00*%
%TF.ProjectId,nanoshield,6e616e6f-7368-4696-956c-642e6b696361,rev?*%
%TF.SameCoordinates,Original*%
%TF.FileFunction,Soldermask,Bot*%
%TF.FilePolarity,Negative*%
%FSLAX46Y46*%
G04 Gerber Fmt 4.6, Leading zero omitted, Abs format (unit mm)*
G04 Created by KiCad (PCBNEW 7.0.11+1) date 2024-06-05 10:26:47*
%MOMM*%
%LPD*%
G01*
G04 APERTURE LIST*
%ADD10R,1.700000X1.700000*%
%ADD11O,1.700000X1.700000*%
%ADD12C,4.000000*%
%ADD13R,1.600000X1.600000*%
%ADD14C,1.600000*%
%ADD15O,1.600000X1.600000*%
%ADD16C,2.499360*%
G04 APERTURE END LIST*
D10*
%TO.C,J3*%
X122550000Y-81240000D03*
D11*
X122550000Y-78700000D03*
X122550000Y-76160000D03*
X122550000Y-73620000D03*
X122550000Y-71080000D03*
X122550000Y-68540000D03*
X122550000Y-66000000D03*
X122550000Y-63460000D03*
X122550000Y-60920000D03*
X122550000Y-58380000D03*
X122550000Y-55840000D03*
X122550000Y-53300000D03*
X122550000Y-50760000D03*
X122550000Y-48220000D03*
X122550000Y-45680000D03*
X122550000Y-43140000D03*
X122550000Y-40600000D03*
X122550000Y-38060000D03*
X122550000Y-35520000D03*
X122550000Y-32980000D03*
%TD*%
D10*
%TO.C,J1*%
X145410000Y-81240000D03*
D11*
X145410000Y-78700000D03*
X145410000Y-76160000D03*
X145410000Y-73620000D03*
X145410000Y-71080000D03*
X145410000Y-68540000D03*
X145410000Y-66000000D03*
X145410000Y-63460000D03*
X145410000Y-60920000D03*
X145410000Y-58380000D03*
X145410000Y-55840000D03*
X145410000Y-53300000D03*
X145410000Y-50760000D03*
X145410000Y-48220000D03*
X145410000Y-45680000D03*
X145410000Y-43140000D03*
X145410000Y-40600000D03*
X145410000Y-38060000D03*
X145410000Y-35520000D03*
X145410000Y-32980000D03*
%TD*%
D12*
%TO.C,J2*%
X101900000Y-34750000D03*
X101900000Y-59750000D03*
D13*
X103320000Y-41710000D03*
D14*
X103320000Y-44480000D03*
X103320000Y-47250000D03*
X103320000Y-50020000D03*
X103320000Y-52790000D03*
X100480000Y-43095000D03*
X100480000Y-45865000D03*
X100480000Y-48635000D03*
X100480000Y-51405000D03*
%TD*%
%TO.C,C1*%
X118400000Y-82950000D03*
X113400000Y-82950000D03*
%TD*%
%TO.C,R1*%
X117350000Y-66470000D03*
D15*
X117350000Y-76630000D03*
%TD*%
D16*
%TO.C,J5*%
X93202600Y-70798740D03*
X93202600Y-80801260D03*
X103197500Y-83298080D03*
X103200040Y-75800000D03*
X103197500Y-68301920D03*
X105699400Y-80796180D03*
X105699400Y-70803820D03*
%TD*%
D14*
%TO.C,R2*%
X115700000Y-59880000D03*
D15*
X115700000Y-49720000D03*
%TD*%
D10*
%TO.C,J4*%
X149800000Y-39160000D03*
D11*
X149800000Y-41700000D03*
X152340000Y-39160000D03*
X152340000Y-41700000D03*
X154880000Y-39160000D03*
X154880000Y-41700000D03*
X157420000Y-39160000D03*
X157420000Y-41700000D03*
X159960000Y-39160000D03*
X159960000Y-41700000D03*
X162500000Y-39160000D03*
X162500000Y-41700000D03*
%TD*%
M02*
