%TF.GenerationSoftware,KiCad,Pcbnew,7.0.11+1*%
%TF.CreationDate,2024-06-05T13:44:37+01:00*%
%TF.ProjectId,nanoshield,6e616e6f-7368-4696-956c-642e6b696361,rev?*%
%TF.SameCoordinates,Original*%
%TF.FileFunction,Copper,L2,Bot*%
%TF.FilePolarity,Positive*%
%FSLAX46Y46*%
G04 Gerber Fmt 4.6, Leading zero omitted, Abs format (unit mm)*
G04 Created by KiCad (PCBNEW 7.0.11+1) date 2024-06-05 13:44:37*
%MOMM*%
%LPD*%
G01*
G04 APERTURE LIST*
%TA.AperFunction,ComponentPad*%
%ADD10R,1.700000X1.700000*%
%TD*%
%TA.AperFunction,ComponentPad*%
%ADD11O,1.700000X1.700000*%
%TD*%
%TA.AperFunction,ComponentPad*%
%ADD12C,4.000000*%
%TD*%
%TA.AperFunction,ComponentPad*%
%ADD13R,1.600000X1.600000*%
%TD*%
%TA.AperFunction,ComponentPad*%
%ADD14C,1.600000*%
%TD*%
%TA.AperFunction,ComponentPad*%
%ADD15O,1.600000X1.600000*%
%TD*%
%TA.AperFunction,WasherPad*%
%ADD16C,2.499360*%
%TD*%
%TA.AperFunction,ComponentPad*%
%ADD17C,2.499360*%
%TD*%
%TA.AperFunction,ViaPad*%
%ADD18C,0.600000*%
%TD*%
%TA.AperFunction,Conductor*%
%ADD19C,0.200000*%
%TD*%
G04 APERTURE END LIST*
D10*
%TO.P,J3,1,Pin_1*%
%TO.N,+5V*%
X122550000Y-81240000D03*
D11*
%TO.P,J3,2,Pin_2*%
%TO.N,GND*%
X122550000Y-78700000D03*
%TO.P,J3,3,Pin_3*%
%TO.N,unconnected-(J3-Pin_3-Pad3)*%
X122550000Y-76160000D03*
%TO.P,J3,4,Pin_4*%
%TO.N,unconnected-(J3-Pin_4-Pad4)*%
X122550000Y-73620000D03*
%TO.P,J3,5,Pin_5*%
%TO.N,miso*%
X122550000Y-71080000D03*
%TO.P,J3,6,Pin_6*%
%TO.N,mosi*%
X122550000Y-68540000D03*
%TO.P,J3,7,Pin_7*%
%TO.N,csn*%
X122550000Y-66000000D03*
%TO.P,J3,8,Pin_8*%
%TO.N,sck*%
X122550000Y-63460000D03*
%TO.P,J3,9,Pin_9*%
%TO.N,irq*%
X122550000Y-60920000D03*
%TO.P,J3,10,Pin_10*%
%TO.N,unconnected-(J3-Pin_10-Pad10)*%
X122550000Y-58380000D03*
%TO.P,J3,11,Pin_11*%
%TO.N,unconnected-(J3-Pin_11-Pad11)*%
X122550000Y-55840000D03*
%TO.P,J3,12,Pin_12*%
%TO.N,unconnected-(J3-Pin_12-Pad12)*%
X122550000Y-53300000D03*
%TO.P,J3,13,Pin_13*%
%TO.N,unconnected-(J3-Pin_13-Pad13)*%
X122550000Y-50760000D03*
%TO.P,J3,14,Pin_14*%
%TO.N,unconnected-(J3-Pin_14-Pad14)*%
X122550000Y-48220000D03*
%TO.P,J3,15,Pin_15*%
%TO.N,unconnected-(J3-Pin_15-Pad15)*%
X122550000Y-45680000D03*
%TO.P,J3,16,Pin_16*%
%TO.N,unconnected-(J3-Pin_16-Pad16)*%
X122550000Y-43140000D03*
%TO.P,J3,17,Pin_17*%
%TO.N,unconnected-(J3-Pin_17-Pad17)*%
X122550000Y-40600000D03*
%TO.P,J3,18,Pin_18*%
%TO.N,midi-out*%
X122550000Y-38060000D03*
%TO.P,J3,19,Pin_19*%
%TO.N,unconnected-(J3-Pin_19-Pad19)*%
X122550000Y-35520000D03*
%TO.P,J3,20,Pin_20*%
%TO.N,unconnected-(J3-Pin_20-Pad20)*%
X122550000Y-32980000D03*
%TD*%
D10*
%TO.P,J1,1,Pin_1*%
%TO.N,unconnected-(J1-Pin_1-Pad1)*%
X145050000Y-81160000D03*
D11*
%TO.P,J1,2,Pin_2*%
%TO.N,unconnected-(J1-Pin_2-Pad2)*%
X145050000Y-78620000D03*
%TO.P,J1,3,Pin_3*%
%TO.N,unconnected-(J1-Pin_3-Pad3)*%
X145050000Y-76080000D03*
%TO.P,J1,4,Pin_4*%
%TO.N,unconnected-(J1-Pin_4-Pad4)*%
X145050000Y-73540000D03*
%TO.P,J1,5,Pin_5*%
%TO.N,unconnected-(J1-Pin_5-Pad5)*%
X145050000Y-71000000D03*
%TO.P,J1,6,Pin_6*%
%TO.N,unconnected-(J1-Pin_6-Pad6)*%
X145050000Y-68460000D03*
%TO.P,J1,7,Pin_7*%
%TO.N,unconnected-(J1-Pin_7-Pad7)*%
X145050000Y-65920000D03*
%TO.P,J1,8,Pin_8*%
%TO.N,btn0*%
X145050000Y-63380000D03*
%TO.P,J1,9,Pin_9*%
%TO.N,down*%
X145050000Y-60840000D03*
%TO.P,J1,10,Pin_10*%
%TO.N,up*%
X145050000Y-58300000D03*
%TO.P,J1,11,Pin_11*%
%TO.N,right*%
X145050000Y-55760000D03*
%TO.P,J1,12,Pin_12*%
%TO.N,left*%
X145050000Y-53220000D03*
%TO.P,J1,13,Pin_13*%
%TO.N,btn1*%
X145050000Y-50680000D03*
%TO.P,J1,14,Pin_14*%
%TO.N,unconnected-(J1-Pin_14-Pad14)*%
X145050000Y-48140000D03*
%TO.P,J1,15,Pin_15*%
%TO.N,unconnected-(J1-Pin_15-Pad15)*%
X145050000Y-45600000D03*
%TO.P,J1,16,Pin_16*%
%TO.N,unconnected-(J1-Pin_16-Pad16)*%
X145050000Y-43060000D03*
%TO.P,J1,17,Pin_17*%
%TO.N,unconnected-(J1-Pin_17-Pad17)*%
X145050000Y-40520000D03*
%TO.P,J1,18,Pin_18*%
%TO.N,unconnected-(J1-Pin_18-Pad18)*%
X145050000Y-37980000D03*
%TO.P,J1,19,Pin_19*%
%TO.N,+3V3*%
X145050000Y-35440000D03*
%TO.P,J1,20,Pin_20*%
%TO.N,GND*%
X145050000Y-32900000D03*
%TD*%
D12*
%TO.P,J2,0,PAD*%
%TO.N,GND*%
X101900000Y-34750000D03*
X101900000Y-59750000D03*
D13*
%TO.P,J2,1,1*%
%TO.N,up*%
X103320000Y-41710000D03*
D14*
%TO.P,J2,2,2*%
%TO.N,down*%
X103320000Y-44480000D03*
%TO.P,J2,3,3*%
%TO.N,left*%
X103320000Y-47250000D03*
%TO.P,J2,4,4*%
%TO.N,right*%
X103320000Y-50020000D03*
%TO.P,J2,5,5*%
%TO.N,unconnected-(J2-Pad5)*%
X103320000Y-52790000D03*
%TO.P,J2,6,6*%
%TO.N,btn0*%
X100480000Y-43095000D03*
%TO.P,J2,7,7*%
%TO.N,+5V*%
X100480000Y-45865000D03*
%TO.P,J2,8,8*%
%TO.N,GND*%
X100480000Y-48635000D03*
%TO.P,J2,9,9*%
%TO.N,btn1*%
X100480000Y-51405000D03*
%TD*%
%TO.P,C1,1*%
%TO.N,+5V*%
X118400000Y-82950000D03*
%TO.P,C1,2*%
%TO.N,GND*%
X113400000Y-82950000D03*
%TD*%
%TO.P,R1,1*%
%TO.N,+3V3*%
X117350000Y-66470000D03*
D15*
%TO.P,R1,2*%
%TO.N,Net-(J5-Pad4)*%
X117350000Y-76630000D03*
%TD*%
D16*
%TO.P,J5,*%
%TO.N,*%
X93250000Y-69447440D03*
X93250000Y-79449960D03*
D17*
%TO.P,J5,1*%
%TO.N,unconnected-(J5-Pad1)*%
X103244900Y-81946780D03*
%TO.P,J5,2*%
%TO.N,GND*%
X103247440Y-74448700D03*
%TO.P,J5,3*%
%TO.N,unconnected-(J5-Pad3)*%
X103244900Y-66950620D03*
%TO.P,J5,4*%
%TO.N,Net-(J5-Pad4)*%
X105746800Y-79444880D03*
%TO.P,J5,5*%
%TO.N,Net-(J5-Pad5)*%
X105746800Y-69452520D03*
%TD*%
D14*
%TO.P,R2,1*%
%TO.N,Net-(J5-Pad5)*%
X115700000Y-59880000D03*
D15*
%TO.P,R2,2*%
%TO.N,midi-out*%
X115700000Y-49720000D03*
%TD*%
D10*
%TO.P,J4,1,Pin_1*%
%TO.N,unconnected-(J4-Pin_1-Pad1)*%
X149580000Y-46110000D03*
D11*
%TO.P,J4,2,Pin_2*%
%TO.N,unconnected-(J4-Pin_2-Pad2)*%
X149580000Y-48650000D03*
%TO.P,J4,3,Pin_3*%
%TO.N,irq*%
X152120000Y-46110000D03*
%TO.P,J4,4,Pin_4*%
%TO.N,unconnected-(J4-Pin_4-Pad4)*%
X152120000Y-48650000D03*
%TO.P,J4,5,Pin_5*%
%TO.N,csn*%
X154660000Y-46110000D03*
%TO.P,J4,6,Pin_6*%
%TO.N,sck*%
X154660000Y-48650000D03*
%TO.P,J4,7,Pin_7*%
%TO.N,miso*%
X157200000Y-46110000D03*
%TO.P,J4,8,Pin_8*%
%TO.N,mosi*%
X157200000Y-48650000D03*
%TO.P,J4,9,Pin_9*%
%TO.N,+5V*%
X159740000Y-46110000D03*
%TO.P,J4,10,Pin_10*%
%TO.N,unconnected-(J4-Pin_10-Pad10)*%
X159740000Y-48650000D03*
%TO.P,J4,11,Pin_11*%
%TO.N,GND*%
X162280000Y-46110000D03*
%TO.P,J4,12,Pin_12*%
X162280000Y-48650000D03*
%TD*%
D18*
%TO.N,down*%
X139600000Y-59750000D03*
X104186000Y-45535700D03*
%TO.N,right*%
X108595000Y-45713300D03*
%TO.N,left*%
X106808000Y-44122300D03*
%TO.N,mosi*%
X125319000Y-64326000D03*
%TO.N,sck*%
X137946000Y-48271500D03*
%TO.N,+5V*%
X148400000Y-35900000D03*
X115100000Y-42050000D03*
X120302000Y-79976800D03*
%TO.N,Net-(J5-Pad5)*%
X114141000Y-58492100D03*
%TD*%
D19*
%TO.N,+3V3*%
X123253000Y-59648500D02*
X122169000Y-59648500D01*
X146593000Y-37567200D02*
X146593000Y-38540800D01*
X143572000Y-39330000D02*
X123253000Y-59648500D01*
X145050000Y-35735900D02*
X145410000Y-36095900D01*
X117350000Y-64467400D02*
X117350000Y-66470000D01*
X145410000Y-36095900D02*
X145410000Y-36671900D01*
X145804000Y-39330000D02*
X143572000Y-39330000D01*
X145410000Y-36671900D02*
X145698000Y-36671900D01*
X122169000Y-59648500D02*
X117350000Y-64467400D01*
X145698000Y-36671900D02*
X146593000Y-37567200D01*
X146593000Y-38540800D02*
X145804000Y-39330000D01*
%TO.N,down*%
X139600000Y-59750000D02*
X140770000Y-60920000D01*
X103320000Y-44670000D02*
X104186000Y-45535700D01*
X140770000Y-60920000D02*
X144970000Y-60920000D01*
%TO.N,right*%
X108089000Y-45207100D02*
X108595000Y-45713300D01*
X103320000Y-50020000D02*
X105664000Y-47676300D01*
X106439000Y-45207100D02*
X108089000Y-45207100D01*
X105664000Y-47676300D02*
X105664000Y-45982300D01*
X105664000Y-45982300D02*
X106439000Y-45207100D01*
%TO.N,left*%
X106448000Y-44122300D02*
X106808000Y-44122300D01*
X103320000Y-47250000D02*
X106448000Y-44122300D01*
%TO.N,miso*%
X123701900Y-71080000D02*
X132671900Y-62110000D01*
X122550000Y-71080000D02*
X123701900Y-71080000D01*
X158390600Y-49191200D02*
X158390600Y-48184000D01*
X145471800Y-62110000D02*
X158390600Y-49191200D01*
X158390600Y-48184000D02*
X157468500Y-47261900D01*
X157468500Y-47261900D02*
X157200000Y-47261900D01*
X157200000Y-46110000D02*
X157200000Y-47261900D01*
X132671900Y-62110000D02*
X145471800Y-62110000D01*
%TO.N,mosi*%
X140155000Y-49490000D02*
X125319000Y-64326000D01*
X156048000Y-48918500D02*
X155165000Y-49801900D01*
X156048000Y-48650000D02*
X156048000Y-48918500D01*
X149103000Y-49801900D02*
X147539000Y-48237900D01*
X147539000Y-47784100D02*
X145833000Y-49490000D01*
X145833000Y-49490000D02*
X140155000Y-49490000D01*
X147539000Y-48237900D02*
X147539000Y-47784100D01*
X155165000Y-49801900D02*
X149103000Y-49801900D01*
X157200000Y-48650000D02*
X156048000Y-48650000D01*
%TO.N,csn*%
X151070000Y-41281600D02*
X152040000Y-40311900D01*
X141769000Y-46950000D02*
X146194000Y-46950000D01*
X123702000Y-65016700D02*
X141769000Y-46950000D01*
X146194000Y-46950000D02*
X151070000Y-42074300D01*
X123702000Y-66000000D02*
X123702000Y-65016700D01*
X152040000Y-40311900D02*
X152864000Y-40311900D01*
X151070000Y-42074300D02*
X151070000Y-41281600D01*
X157824000Y-41913000D02*
X154779000Y-44958100D01*
X154779000Y-44958100D02*
X154660000Y-44958100D01*
X122550000Y-66000000D02*
X123702000Y-66000000D01*
X153728000Y-39448100D02*
X153728000Y-39160000D01*
X154660000Y-44958100D02*
X154660000Y-46110000D01*
X155493000Y-39160000D02*
X157824000Y-41491000D01*
X153728000Y-39160000D02*
X155493000Y-39160000D01*
X152864000Y-40311900D02*
X153728000Y-39448100D01*
X157824000Y-41491000D02*
X157824000Y-41913000D01*
%TO.N,sck*%
X122550000Y-63460000D02*
X123702000Y-63460000D01*
X123702000Y-63460000D02*
X123702000Y-62515900D01*
X123702000Y-62515900D02*
X137946000Y-48271500D01*
%TO.N,irq*%
X158238000Y-42709900D02*
X158238000Y-41259100D01*
X155704000Y-38724900D02*
X152775000Y-38724900D01*
X152340000Y-39160000D02*
X151188000Y-39160000D01*
X151188000Y-39160000D02*
X151188000Y-39952000D01*
X148765000Y-40311900D02*
X147241000Y-41836000D01*
X155138000Y-47320200D02*
X155930000Y-46528400D01*
X147241000Y-41836000D02*
X142786000Y-41836000D01*
X153272000Y-46398000D02*
X154194000Y-47320200D01*
X142786000Y-41836000D02*
X123702000Y-60920000D01*
X154194000Y-47320200D02*
X155138000Y-47320200D01*
X123702000Y-60920000D02*
X122550000Y-60920000D01*
X155930000Y-46528400D02*
X155930000Y-45018000D01*
X152120000Y-46110000D02*
X153272000Y-46110000D01*
X151188000Y-39952000D02*
X150828000Y-40311900D01*
X153272000Y-46110000D02*
X153272000Y-46398000D01*
X155930000Y-45018000D02*
X158238000Y-42709900D01*
X152775000Y-38724900D02*
X152340000Y-39160000D01*
X150828000Y-40311900D02*
X148765000Y-40311900D01*
X158238000Y-41259100D02*
X155704000Y-38724900D01*
%TO.N,midi-out*%
X119575000Y-39251900D02*
X119863000Y-39251900D01*
X119863000Y-39251900D02*
X119863000Y-38675900D01*
X119863000Y-38675900D02*
X120782000Y-38675900D01*
X115700000Y-49720000D02*
X115700000Y-48618100D01*
X115700000Y-48618100D02*
X116358000Y-48618100D01*
X120782000Y-38675900D02*
X121398000Y-38060000D01*
X118711000Y-40115700D02*
X119575000Y-39251900D01*
X118711000Y-46265400D02*
X118711000Y-40115700D01*
X116358000Y-48618100D02*
X118711000Y-46265400D01*
X121398000Y-38060000D02*
X122550000Y-38060000D01*
%TO.N,+5V*%
X112411000Y-44738900D02*
X113185000Y-45512700D01*
X101636000Y-44708700D02*
X101636000Y-40012300D01*
X119032000Y-69850000D02*
X120271000Y-69850000D01*
X113185000Y-64002500D02*
X119032000Y-69850000D01*
X120271000Y-69850000D02*
X121015000Y-70594300D01*
X121015000Y-70594300D02*
X121015000Y-79264300D01*
X113185000Y-45512700D02*
X113185000Y-64002500D01*
X102734000Y-38915000D02*
X104955000Y-38915000D01*
X148950000Y-35350000D02*
X148400000Y-35900000D01*
X107426000Y-40521900D02*
X108194000Y-40521900D01*
X112411000Y-44738800D02*
X112411000Y-44738900D01*
X115100000Y-42050000D02*
X112411000Y-44738800D01*
X106562000Y-39370000D02*
X106562000Y-39658100D01*
X100480000Y-45865000D02*
X101636000Y-44708700D01*
X105410000Y-39370000D02*
X106562000Y-39370000D01*
X104955000Y-38915000D02*
X105410000Y-39370000D01*
X108194000Y-40521900D02*
X112411000Y-44738900D01*
X106562000Y-39658100D02*
X107426000Y-40521900D01*
X159740000Y-38940000D02*
X156150000Y-35350000D01*
X101636000Y-40012300D02*
X102734000Y-38915000D01*
X121015000Y-79264300D02*
X120302000Y-79976800D01*
X156150000Y-35350000D02*
X148950000Y-35350000D01*
X159740000Y-46110000D02*
X159740000Y-38940000D01*
%TO.N,Net-(J5-Pad5)*%
X114141000Y-58492100D02*
X114312000Y-58492100D01*
X114312000Y-58492100D02*
X115700000Y-59880000D01*
%TD*%
%TA.AperFunction,Conductor*%
%TO.N,GND*%
G36*
X162530000Y-48214498D02*
G01*
X162422315Y-48165320D01*
X162315763Y-48150000D01*
X162244237Y-48150000D01*
X162137685Y-48165320D01*
X162030000Y-48214498D01*
X162030000Y-46545501D01*
X162137685Y-46594680D01*
X162244237Y-46610000D01*
X162315763Y-46610000D01*
X162422315Y-46594680D01*
X162530000Y-46545501D01*
X162530000Y-48214498D01*
G37*
%TD.AperFunction*%
%TA.AperFunction,Conductor*%
G36*
X164542539Y-31000185D02*
G01*
X164588294Y-31052989D01*
X164599500Y-31104500D01*
X164599500Y-84375500D01*
X164579815Y-84442539D01*
X164527011Y-84488294D01*
X164475500Y-84499500D01*
X118450768Y-84499500D01*
X118398332Y-84484102D01*
X118373664Y-84497069D01*
X118349232Y-84499500D01*
X113445031Y-84499500D01*
X113399956Y-84486264D01*
X113379401Y-84497069D01*
X113354969Y-84499500D01*
X92064500Y-84499500D01*
X91997461Y-84479815D01*
X91951706Y-84427011D01*
X91940500Y-84375500D01*
X91940500Y-81946784D01*
X101489812Y-81946784D01*
X101509413Y-82208352D01*
X101509414Y-82208357D01*
X101567785Y-82464103D01*
X101663620Y-82708284D01*
X101663619Y-82708284D01*
X101746770Y-82852304D01*
X101794778Y-82935456D01*
X101958329Y-83140543D01*
X102150621Y-83318963D01*
X102367356Y-83466731D01*
X102367361Y-83466733D01*
X102367362Y-83466734D01*
X102367363Y-83466735D01*
X102492881Y-83527180D01*
X102603690Y-83580543D01*
X102603691Y-83580543D01*
X102603694Y-83580545D01*
X102854356Y-83657864D01*
X102854357Y-83657864D01*
X102854360Y-83657865D01*
X103113734Y-83696959D01*
X103113739Y-83696959D01*
X103113742Y-83696960D01*
X103113743Y-83696960D01*
X103376057Y-83696960D01*
X103376058Y-83696960D01*
X103376065Y-83696959D01*
X103635439Y-83657865D01*
X103635440Y-83657864D01*
X103635444Y-83657864D01*
X103886106Y-83580545D01*
X104122444Y-83466731D01*
X104339179Y-83318963D01*
X104531471Y-83140543D01*
X104683422Y-82950002D01*
X112095034Y-82950002D01*
X112114858Y-83176599D01*
X112114860Y-83176610D01*
X112173730Y-83396317D01*
X112173735Y-83396331D01*
X112269863Y-83602478D01*
X112320974Y-83675472D01*
X113002046Y-82994400D01*
X113014835Y-83075148D01*
X113072359Y-83188045D01*
X113161955Y-83277641D01*
X113274852Y-83335165D01*
X113355599Y-83347953D01*
X112674526Y-84029025D01*
X112747513Y-84080132D01*
X112747521Y-84080136D01*
X112953668Y-84176264D01*
X112953682Y-84176269D01*
X113173389Y-84235139D01*
X113173400Y-84235141D01*
X113365776Y-84251972D01*
X113397729Y-84264470D01*
X113410096Y-84256523D01*
X113434224Y-84251972D01*
X113626599Y-84235141D01*
X113626610Y-84235139D01*
X113846317Y-84176269D01*
X113846331Y-84176264D01*
X114052478Y-84080136D01*
X114125471Y-84029024D01*
X113444400Y-83347953D01*
X113525148Y-83335165D01*
X113638045Y-83277641D01*
X113727641Y-83188045D01*
X113785165Y-83075148D01*
X113797953Y-82994400D01*
X114479024Y-83675471D01*
X114530136Y-83602478D01*
X114626264Y-83396331D01*
X114626269Y-83396317D01*
X114685139Y-83176610D01*
X114685141Y-83176599D01*
X114704966Y-82950002D01*
X114704966Y-82950001D01*
X117094532Y-82950001D01*
X117114364Y-83176686D01*
X117114366Y-83176697D01*
X117173258Y-83396488D01*
X117173261Y-83396497D01*
X117269431Y-83602732D01*
X117269432Y-83602734D01*
X117399954Y-83789141D01*
X117560858Y-83950045D01*
X117560861Y-83950047D01*
X117747266Y-84080568D01*
X117953504Y-84176739D01*
X118173308Y-84235635D01*
X118315262Y-84248054D01*
X118360039Y-84251972D01*
X118399124Y-84267260D01*
X118415833Y-84256523D01*
X118439961Y-84251972D01*
X118478828Y-84248571D01*
X118626692Y-84235635D01*
X118846496Y-84176739D01*
X119052734Y-84080568D01*
X119239139Y-83950047D01*
X119400047Y-83789139D01*
X119530568Y-83602734D01*
X119626739Y-83396496D01*
X119685635Y-83176692D01*
X119705468Y-82950000D01*
X119704195Y-82935455D01*
X119685635Y-82723313D01*
X119685635Y-82723308D01*
X119626739Y-82503504D01*
X119530568Y-82297266D01*
X119400047Y-82110861D01*
X119400045Y-82110858D01*
X119239141Y-81949954D01*
X119052734Y-81819432D01*
X119052732Y-81819431D01*
X118846497Y-81723261D01*
X118846488Y-81723258D01*
X118626697Y-81664366D01*
X118626693Y-81664365D01*
X118626692Y-81664365D01*
X118626691Y-81664364D01*
X118626686Y-81664364D01*
X118400002Y-81644532D01*
X118399998Y-81644532D01*
X118173313Y-81664364D01*
X118173302Y-81664366D01*
X117953511Y-81723258D01*
X117953502Y-81723261D01*
X117747267Y-81819431D01*
X117747265Y-81819432D01*
X117560858Y-81949954D01*
X117399954Y-82110858D01*
X117269432Y-82297265D01*
X117269431Y-82297267D01*
X117173261Y-82503502D01*
X117173258Y-82503511D01*
X117114366Y-82723302D01*
X117114364Y-82723313D01*
X117094532Y-82949998D01*
X117094532Y-82950001D01*
X114704966Y-82950001D01*
X114704966Y-82949997D01*
X114685141Y-82723400D01*
X114685139Y-82723389D01*
X114626269Y-82503682D01*
X114626264Y-82503668D01*
X114530136Y-82297521D01*
X114530132Y-82297513D01*
X114479025Y-82224526D01*
X113797953Y-82905598D01*
X113785165Y-82824852D01*
X113727641Y-82711955D01*
X113638045Y-82622359D01*
X113525148Y-82564835D01*
X113444401Y-82552046D01*
X114125472Y-81870974D01*
X114052478Y-81819863D01*
X113846331Y-81723735D01*
X113846317Y-81723730D01*
X113626610Y-81664860D01*
X113626599Y-81664858D01*
X113400002Y-81645034D01*
X113399998Y-81645034D01*
X113173400Y-81664858D01*
X113173389Y-81664860D01*
X112953682Y-81723730D01*
X112953673Y-81723734D01*
X112747516Y-81819866D01*
X112747512Y-81819868D01*
X112674526Y-81870973D01*
X112674526Y-81870974D01*
X113355599Y-82552046D01*
X113274852Y-82564835D01*
X113161955Y-82622359D01*
X113072359Y-82711955D01*
X113014835Y-82824852D01*
X113002046Y-82905598D01*
X112320974Y-82224526D01*
X112320973Y-82224526D01*
X112269868Y-82297512D01*
X112269866Y-82297516D01*
X112173734Y-82503673D01*
X112173730Y-82503682D01*
X112114860Y-82723389D01*
X112114858Y-82723400D01*
X112095034Y-82949997D01*
X112095034Y-82950002D01*
X104683422Y-82950002D01*
X104695022Y-82935456D01*
X104826180Y-82708284D01*
X104882479Y-82564835D01*
X104922014Y-82464103D01*
X104944052Y-82367546D01*
X104980385Y-82208362D01*
X104980386Y-82208352D01*
X104999988Y-81946784D01*
X104999988Y-81946775D01*
X104980386Y-81685207D01*
X104980385Y-81685202D01*
X104980385Y-81685198D01*
X104947030Y-81539061D01*
X104922014Y-81429456D01*
X104830020Y-81195060D01*
X104826180Y-81185276D01*
X104826179Y-81185274D01*
X104824887Y-81181982D01*
X104818718Y-81112386D01*
X104851156Y-81050502D01*
X104911901Y-81015979D01*
X104981667Y-81019778D01*
X104994106Y-81024955D01*
X105105594Y-81078645D01*
X105356256Y-81155964D01*
X105356257Y-81155964D01*
X105356260Y-81155965D01*
X105615634Y-81195059D01*
X105615639Y-81195059D01*
X105615642Y-81195060D01*
X105615643Y-81195060D01*
X105877957Y-81195060D01*
X105877958Y-81195060D01*
X105877965Y-81195059D01*
X106137339Y-81155965D01*
X106137340Y-81155964D01*
X106137344Y-81155964D01*
X106388006Y-81078645D01*
X106624344Y-80964831D01*
X106841079Y-80817063D01*
X107033371Y-80638643D01*
X107196922Y-80433556D01*
X107328080Y-80206384D01*
X107398753Y-80026311D01*
X107423914Y-79962203D01*
X107457304Y-79815909D01*
X107482285Y-79706462D01*
X107485880Y-79658495D01*
X107501888Y-79444884D01*
X107501888Y-79444875D01*
X107482286Y-79183307D01*
X107482285Y-79183302D01*
X107482285Y-79183298D01*
X107432244Y-78964053D01*
X107423914Y-78927556D01*
X107360698Y-78766485D01*
X107328080Y-78683376D01*
X107328079Y-78683375D01*
X107328080Y-78683375D01*
X107280072Y-78600224D01*
X107196922Y-78456204D01*
X107033371Y-78251117D01*
X106841079Y-78072697D01*
X106624344Y-77924929D01*
X106624340Y-77924927D01*
X106624337Y-77924925D01*
X106624336Y-77924924D01*
X106388008Y-77811116D01*
X106388010Y-77811116D01*
X106137345Y-77733796D01*
X106137339Y-77733794D01*
X105877965Y-77694700D01*
X105877958Y-77694700D01*
X105615642Y-77694700D01*
X105615634Y-77694700D01*
X105356260Y-77733794D01*
X105356254Y-77733796D01*
X105105590Y-77811116D01*
X104869263Y-77924924D01*
X104869262Y-77924925D01*
X104652520Y-78072697D01*
X104460231Y-78251115D01*
X104460229Y-78251117D01*
X104296678Y-78456204D01*
X104165520Y-78683375D01*
X104069685Y-78927556D01*
X104011314Y-79183302D01*
X104011313Y-79183307D01*
X103991712Y-79444875D01*
X103991712Y-79444884D01*
X104011313Y-79706452D01*
X104011314Y-79706457D01*
X104011314Y-79706461D01*
X104011315Y-79706462D01*
X104013678Y-79716814D01*
X104069685Y-79962203D01*
X104166812Y-80209677D01*
X104172981Y-80279274D01*
X104140543Y-80341157D01*
X104079798Y-80375680D01*
X104010032Y-80371881D01*
X103997583Y-80366699D01*
X103886108Y-80313016D01*
X103886110Y-80313016D01*
X103635445Y-80235696D01*
X103635439Y-80235694D01*
X103376065Y-80196600D01*
X103376058Y-80196600D01*
X103113742Y-80196600D01*
X103113734Y-80196600D01*
X102854360Y-80235694D01*
X102854354Y-80235696D01*
X102603690Y-80313016D01*
X102367363Y-80426824D01*
X102367362Y-80426825D01*
X102150620Y-80574597D01*
X101958331Y-80753015D01*
X101958329Y-80753017D01*
X101794778Y-80958104D01*
X101663620Y-81185275D01*
X101567785Y-81429456D01*
X101509414Y-81685202D01*
X101509413Y-81685207D01*
X101489812Y-81946775D01*
X101489812Y-81946784D01*
X91940500Y-81946784D01*
X91940500Y-80906657D01*
X91960185Y-80839618D01*
X92012989Y-80793863D01*
X92082147Y-80783919D01*
X92145703Y-80812944D01*
X92148808Y-80815728D01*
X92155721Y-80822143D01*
X92372456Y-80969911D01*
X92372461Y-80969913D01*
X92372462Y-80969914D01*
X92372463Y-80969915D01*
X92476006Y-81019778D01*
X92608790Y-81083723D01*
X92608791Y-81083723D01*
X92608794Y-81083725D01*
X92859456Y-81161044D01*
X92859457Y-81161044D01*
X92859460Y-81161045D01*
X93118834Y-81200139D01*
X93118839Y-81200139D01*
X93118842Y-81200140D01*
X93118843Y-81200140D01*
X93381157Y-81200140D01*
X93381158Y-81200140D01*
X93414862Y-81195060D01*
X93640539Y-81161045D01*
X93640540Y-81161044D01*
X93640544Y-81161044D01*
X93891206Y-81083725D01*
X94127544Y-80969911D01*
X94344279Y-80822143D01*
X94536571Y-80643723D01*
X94700122Y-80438636D01*
X94831280Y-80211464D01*
X94887717Y-80067664D01*
X94927114Y-79967283D01*
X94952713Y-79855126D01*
X94985485Y-79711542D01*
X94985866Y-79706457D01*
X95005088Y-79449964D01*
X95005088Y-79449955D01*
X94985486Y-79188387D01*
X94985485Y-79188382D01*
X94985485Y-79188378D01*
X94946013Y-79015441D01*
X94927114Y-78932636D01*
X94863898Y-78771565D01*
X94831280Y-78688456D01*
X94831279Y-78688455D01*
X94831280Y-78688455D01*
X94783272Y-78605304D01*
X94700122Y-78461284D01*
X94536571Y-78256197D01*
X94344279Y-78077777D01*
X94127544Y-77930009D01*
X94127540Y-77930007D01*
X94127537Y-77930005D01*
X94127536Y-77930004D01*
X93891208Y-77816196D01*
X93891210Y-77816196D01*
X93640545Y-77738876D01*
X93640539Y-77738874D01*
X93381165Y-77699780D01*
X93381158Y-77699780D01*
X93118842Y-77699780D01*
X93118834Y-77699780D01*
X92859460Y-77738874D01*
X92859454Y-77738876D01*
X92608790Y-77816196D01*
X92372463Y-77930004D01*
X92372462Y-77930005D01*
X92155720Y-78077777D01*
X92148840Y-78084162D01*
X92086307Y-78115329D01*
X92016850Y-78107741D01*
X91962522Y-78063807D01*
X91940572Y-77997475D01*
X91940500Y-77993262D01*
X91940500Y-76630001D01*
X116044532Y-76630001D01*
X116064364Y-76856686D01*
X116064366Y-76856697D01*
X116123258Y-77076488D01*
X116123261Y-77076497D01*
X116219431Y-77282732D01*
X116219432Y-77282734D01*
X116349954Y-77469141D01*
X116510858Y-77630045D01*
X116510861Y-77630047D01*
X116697266Y-77760568D01*
X116903504Y-77856739D01*
X117123308Y-77915635D01*
X117285230Y-77929801D01*
X117349998Y-77935468D01*
X117350000Y-77935468D01*
X117350002Y-77935468D01*
X117406673Y-77930509D01*
X117576692Y-77915635D01*
X117796496Y-77856739D01*
X118002734Y-77760568D01*
X118189139Y-77630047D01*
X118350047Y-77469139D01*
X118480568Y-77282734D01*
X118576739Y-77076496D01*
X118635635Y-76856692D01*
X118655468Y-76630000D01*
X118635635Y-76403308D01*
X118576739Y-76183504D01*
X118480568Y-75977266D01*
X118350047Y-75790861D01*
X118350045Y-75790858D01*
X118189141Y-75629954D01*
X118002734Y-75499432D01*
X118002732Y-75499431D01*
X117796497Y-75403261D01*
X117796488Y-75403258D01*
X117576697Y-75344366D01*
X117576693Y-75344365D01*
X117576692Y-75344365D01*
X117576691Y-75344364D01*
X117576686Y-75344364D01*
X117350002Y-75324532D01*
X117349998Y-75324532D01*
X117123313Y-75344364D01*
X117123302Y-75344366D01*
X116903511Y-75403258D01*
X116903502Y-75403261D01*
X116697267Y-75499431D01*
X116697265Y-75499432D01*
X116510858Y-75629954D01*
X116349954Y-75790858D01*
X116219432Y-75977265D01*
X116219431Y-75977267D01*
X116123261Y-76183502D01*
X116123258Y-76183511D01*
X116064366Y-76403302D01*
X116064364Y-76403313D01*
X116044532Y-76629998D01*
X116044532Y-76630001D01*
X91940500Y-76630001D01*
X91940500Y-74448704D01*
X101492854Y-74448704D01*
X101512450Y-74710204D01*
X101570802Y-74965861D01*
X101570805Y-74965873D01*
X101666614Y-75209988D01*
X101797735Y-75437096D01*
X101845541Y-75497044D01*
X102608410Y-74734175D01*
X102668364Y-74848407D01*
X102780847Y-74975375D01*
X102920447Y-75071733D01*
X102962145Y-75087547D01*
X102198501Y-75851190D01*
X102370146Y-75968215D01*
X102370154Y-75968220D01*
X102606415Y-76081996D01*
X102606413Y-76081996D01*
X102856999Y-76159292D01*
X102857005Y-76159293D01*
X103116314Y-76198379D01*
X103116321Y-76198380D01*
X103378559Y-76198380D01*
X103378565Y-76198379D01*
X103637874Y-76159293D01*
X103637880Y-76159292D01*
X103888465Y-76081996D01*
X104124725Y-75968220D01*
X104124726Y-75968219D01*
X104296377Y-75851190D01*
X103532734Y-75087547D01*
X103574433Y-75071733D01*
X103714033Y-74975375D01*
X103826516Y-74848407D01*
X103886468Y-74734176D01*
X104649336Y-75497044D01*
X104649337Y-75497043D01*
X104697140Y-75437102D01*
X104697147Y-75437091D01*
X104828265Y-75209988D01*
X104924074Y-74965873D01*
X104924077Y-74965861D01*
X104982429Y-74710204D01*
X105002026Y-74448704D01*
X105002026Y-74448695D01*
X104982429Y-74187195D01*
X104924077Y-73931538D01*
X104924074Y-73931526D01*
X104828265Y-73687411D01*
X104697144Y-73460303D01*
X104649337Y-73400354D01*
X103886468Y-74163223D01*
X103826516Y-74048993D01*
X103714033Y-73922025D01*
X103574433Y-73825667D01*
X103532734Y-73809852D01*
X104296377Y-73046208D01*
X104124733Y-72929184D01*
X104124725Y-72929179D01*
X103888464Y-72815403D01*
X103888466Y-72815403D01*
X103637880Y-72738107D01*
X103637874Y-72738106D01*
X103378565Y-72699020D01*
X103116314Y-72699020D01*
X102857005Y-72738106D01*
X102856999Y-72738107D01*
X102606414Y-72815403D01*
X102370152Y-72929181D01*
X102370139Y-72929188D01*
X102198501Y-73046207D01*
X102962146Y-73809852D01*
X102920447Y-73825667D01*
X102780847Y-73922025D01*
X102668364Y-74048993D01*
X102608410Y-74163223D01*
X101845542Y-73400355D01*
X101797733Y-73460306D01*
X101666614Y-73687411D01*
X101570805Y-73931526D01*
X101570802Y-73931538D01*
X101512450Y-74187195D01*
X101492854Y-74448695D01*
X101492854Y-74448704D01*
X91940500Y-74448704D01*
X91940500Y-70904137D01*
X91960185Y-70837098D01*
X92012989Y-70791343D01*
X92082147Y-70781399D01*
X92145703Y-70810424D01*
X92148808Y-70813208D01*
X92155721Y-70819623D01*
X92372456Y-70967391D01*
X92372461Y-70967393D01*
X92372462Y-70967394D01*
X92372463Y-70967395D01*
X92497981Y-71027840D01*
X92608790Y-71081203D01*
X92608791Y-71081203D01*
X92608794Y-71081205D01*
X92859456Y-71158524D01*
X92859457Y-71158524D01*
X92859460Y-71158525D01*
X93118834Y-71197619D01*
X93118839Y-71197619D01*
X93118842Y-71197620D01*
X93118843Y-71197620D01*
X93381157Y-71197620D01*
X93381158Y-71197620D01*
X93381165Y-71197619D01*
X93640539Y-71158525D01*
X93640540Y-71158524D01*
X93640544Y-71158524D01*
X93891206Y-71081205D01*
X94127544Y-70967391D01*
X94344279Y-70819623D01*
X94536571Y-70641203D01*
X94700122Y-70436116D01*
X94831280Y-70208944D01*
X94884970Y-70072143D01*
X94927114Y-69964763D01*
X94951710Y-69856998D01*
X94985485Y-69709022D01*
X94991525Y-69628425D01*
X95005088Y-69447444D01*
X95005088Y-69447435D01*
X94985486Y-69185867D01*
X94985485Y-69185862D01*
X94985485Y-69185858D01*
X94943898Y-69003655D01*
X94927114Y-68930116D01*
X94863898Y-68769045D01*
X94831280Y-68685936D01*
X94831279Y-68685935D01*
X94831280Y-68685935D01*
X94772648Y-68584383D01*
X94700122Y-68458764D01*
X94536571Y-68253677D01*
X94344279Y-68075257D01*
X94127544Y-67927489D01*
X94127540Y-67927487D01*
X94127537Y-67927485D01*
X94127536Y-67927484D01*
X93891208Y-67813676D01*
X93891210Y-67813676D01*
X93640545Y-67736356D01*
X93640539Y-67736354D01*
X93381165Y-67697260D01*
X93381158Y-67697260D01*
X93118842Y-67697260D01*
X93118834Y-67697260D01*
X92859460Y-67736354D01*
X92859454Y-67736356D01*
X92608790Y-67813676D01*
X92372463Y-67927484D01*
X92372462Y-67927485D01*
X92155720Y-68075257D01*
X92148840Y-68081642D01*
X92086307Y-68112809D01*
X92016850Y-68105221D01*
X91962522Y-68061287D01*
X91940572Y-67994955D01*
X91940500Y-67990742D01*
X91940500Y-66950624D01*
X101489812Y-66950624D01*
X101509413Y-67212192D01*
X101509414Y-67212197D01*
X101567785Y-67467943D01*
X101663620Y-67712124D01*
X101663619Y-67712124D01*
X101725184Y-67818756D01*
X101794778Y-67939296D01*
X101958329Y-68144383D01*
X102150621Y-68322803D01*
X102367356Y-68470571D01*
X102367361Y-68470573D01*
X102367362Y-68470574D01*
X102367363Y-68470575D01*
X102468643Y-68519348D01*
X102603690Y-68584383D01*
X102603691Y-68584383D01*
X102603694Y-68584385D01*
X102854356Y-68661704D01*
X102854357Y-68661704D01*
X102854360Y-68661705D01*
X103113734Y-68700799D01*
X103113739Y-68700799D01*
X103113742Y-68700800D01*
X103113743Y-68700800D01*
X103376057Y-68700800D01*
X103376058Y-68700800D01*
X103411865Y-68695403D01*
X103635439Y-68661705D01*
X103635440Y-68661704D01*
X103635444Y-68661704D01*
X103886106Y-68584385D01*
X103997585Y-68530699D01*
X104066523Y-68519348D01*
X104130658Y-68547070D01*
X104169624Y-68605065D01*
X104171049Y-68674920D01*
X104166812Y-68687722D01*
X104069685Y-68935196D01*
X104011314Y-69190942D01*
X104011313Y-69190947D01*
X103991712Y-69452515D01*
X103991712Y-69452524D01*
X104011313Y-69714092D01*
X104011314Y-69714097D01*
X104069685Y-69969843D01*
X104165520Y-70214024D01*
X104165519Y-70214024D01*
X104248670Y-70358044D01*
X104296678Y-70441196D01*
X104460229Y-70646283D01*
X104652521Y-70824703D01*
X104869256Y-70972471D01*
X104869261Y-70972473D01*
X104869262Y-70972474D01*
X104869263Y-70972475D01*
X104994781Y-71032920D01*
X105105590Y-71086283D01*
X105105591Y-71086283D01*
X105105594Y-71086285D01*
X105356256Y-71163604D01*
X105356257Y-71163604D01*
X105356260Y-71163605D01*
X105615634Y-71202699D01*
X105615639Y-71202699D01*
X105615642Y-71202700D01*
X105615643Y-71202700D01*
X105877957Y-71202700D01*
X105877958Y-71202700D01*
X105911662Y-71197620D01*
X106137339Y-71163605D01*
X106137340Y-71163604D01*
X106137344Y-71163604D01*
X106388006Y-71086285D01*
X106624344Y-70972471D01*
X106841079Y-70824703D01*
X107033371Y-70646283D01*
X107196922Y-70441196D01*
X107328080Y-70214024D01*
X107395790Y-70041501D01*
X107423914Y-69969843D01*
X107455472Y-69831575D01*
X107482285Y-69714102D01*
X107482666Y-69709017D01*
X107501888Y-69452524D01*
X107501888Y-69452515D01*
X107482286Y-69190947D01*
X107482285Y-69190942D01*
X107482285Y-69190938D01*
X107439539Y-69003655D01*
X107423914Y-68935196D01*
X107360698Y-68774125D01*
X107328080Y-68691016D01*
X107328079Y-68691015D01*
X107328080Y-68691015D01*
X107266515Y-68584383D01*
X107196922Y-68463844D01*
X107033371Y-68258757D01*
X106841079Y-68080337D01*
X106624344Y-67932569D01*
X106624340Y-67932567D01*
X106624337Y-67932565D01*
X106624336Y-67932564D01*
X106388008Y-67818756D01*
X106388010Y-67818756D01*
X106137345Y-67741436D01*
X106137339Y-67741434D01*
X105877965Y-67702340D01*
X105877958Y-67702340D01*
X105615642Y-67702340D01*
X105615634Y-67702340D01*
X105356260Y-67741434D01*
X105356254Y-67741436D01*
X105105596Y-67818754D01*
X105105594Y-67818755D01*
X105015440Y-67862171D01*
X104994116Y-67872440D01*
X104925174Y-67883791D01*
X104861040Y-67856068D01*
X104822075Y-67798073D01*
X104820650Y-67728218D01*
X104824887Y-67715416D01*
X104826176Y-67712129D01*
X104826180Y-67712124D01*
X104922014Y-67467941D01*
X104980385Y-67212202D01*
X104988408Y-67105145D01*
X104999988Y-66950624D01*
X104999988Y-66950615D01*
X104980386Y-66689047D01*
X104980385Y-66689042D01*
X104980385Y-66689038D01*
X104930391Y-66470000D01*
X104922014Y-66433296D01*
X104858798Y-66272225D01*
X104826180Y-66189116D01*
X104826179Y-66189115D01*
X104826180Y-66189115D01*
X104761634Y-66077319D01*
X104695022Y-65961944D01*
X104531471Y-65756857D01*
X104339179Y-65578437D01*
X104122444Y-65430669D01*
X104122440Y-65430667D01*
X104122437Y-65430665D01*
X104122436Y-65430664D01*
X103886108Y-65316856D01*
X103886110Y-65316856D01*
X103635445Y-65239536D01*
X103635439Y-65239534D01*
X103376065Y-65200440D01*
X103376058Y-65200440D01*
X103113742Y-65200440D01*
X103113734Y-65200440D01*
X102854360Y-65239534D01*
X102854354Y-65239536D01*
X102603690Y-65316856D01*
X102367363Y-65430664D01*
X102367362Y-65430665D01*
X102150620Y-65578437D01*
X101958331Y-65756855D01*
X101958329Y-65756857D01*
X101794778Y-65961944D01*
X101663620Y-66189115D01*
X101567785Y-66433296D01*
X101509414Y-66689042D01*
X101509413Y-66689047D01*
X101489812Y-66950615D01*
X101489812Y-66950624D01*
X91940500Y-66950624D01*
X91940500Y-59750005D01*
X99395057Y-59750005D01*
X99414807Y-60063942D01*
X99414808Y-60063949D01*
X99473755Y-60372958D01*
X99570963Y-60672132D01*
X99570965Y-60672137D01*
X99704900Y-60956761D01*
X99704903Y-60956767D01*
X99873457Y-61222367D01*
X99873460Y-61222371D01*
X99964286Y-61332160D01*
X100602266Y-60694180D01*
X100765130Y-60884870D01*
X100955818Y-61047732D01*
X100314971Y-61688579D01*
X100314972Y-61688581D01*
X100557772Y-61864985D01*
X100557790Y-61864996D01*
X100833447Y-62016540D01*
X100833455Y-62016544D01*
X101125926Y-62132340D01*
X101430620Y-62210573D01*
X101430629Y-62210575D01*
X101742701Y-62249999D01*
X101742715Y-62250000D01*
X102057285Y-62250000D01*
X102057298Y-62249999D01*
X102369370Y-62210575D01*
X102369379Y-62210573D01*
X102674073Y-62132340D01*
X102966544Y-62016544D01*
X102966552Y-62016540D01*
X103242209Y-61864996D01*
X103242219Y-61864990D01*
X103485026Y-61688579D01*
X103485027Y-61688579D01*
X102844180Y-61047733D01*
X103034870Y-60884870D01*
X103197733Y-60694181D01*
X103835712Y-61332160D01*
X103926544Y-61222364D01*
X104095096Y-60956767D01*
X104095099Y-60956761D01*
X104229034Y-60672137D01*
X104229036Y-60672132D01*
X104326244Y-60372958D01*
X104385191Y-60063949D01*
X104385192Y-60063942D01*
X104404943Y-59750005D01*
X104404943Y-59749994D01*
X104385192Y-59436057D01*
X104385191Y-59436050D01*
X104326244Y-59127041D01*
X104229036Y-58827867D01*
X104229034Y-58827862D01*
X104095099Y-58543238D01*
X104095096Y-58543232D01*
X103926542Y-58277632D01*
X103926539Y-58277628D01*
X103835712Y-58167838D01*
X103197732Y-58805818D01*
X103034870Y-58615130D01*
X102844180Y-58452266D01*
X103485027Y-57811419D01*
X103485026Y-57811417D01*
X103242227Y-57635014D01*
X103242209Y-57635003D01*
X102966552Y-57483459D01*
X102966544Y-57483455D01*
X102674073Y-57367659D01*
X102369379Y-57289426D01*
X102369370Y-57289424D01*
X102057298Y-57250000D01*
X101742701Y-57250000D01*
X101430629Y-57289424D01*
X101430620Y-57289426D01*
X101125926Y-57367659D01*
X100833455Y-57483455D01*
X100833447Y-57483459D01*
X100557787Y-57635004D01*
X100557782Y-57635007D01*
X100314972Y-57811418D01*
X100314971Y-57811419D01*
X100955819Y-58452266D01*
X100765130Y-58615130D01*
X100602266Y-58805818D01*
X99964286Y-58167838D01*
X99964285Y-58167838D01*
X99873459Y-58277629D01*
X99873457Y-58277632D01*
X99704903Y-58543232D01*
X99704900Y-58543238D01*
X99570965Y-58827862D01*
X99570963Y-58827867D01*
X99473755Y-59127041D01*
X99414808Y-59436050D01*
X99414807Y-59436057D01*
X99395057Y-59749994D01*
X99395057Y-59750005D01*
X91940500Y-59750005D01*
X91940500Y-51405001D01*
X99174532Y-51405001D01*
X99194364Y-51631686D01*
X99194366Y-51631697D01*
X99253258Y-51851488D01*
X99253261Y-51851497D01*
X99349431Y-52057732D01*
X99349432Y-52057734D01*
X99479954Y-52244141D01*
X99640858Y-52405045D01*
X99640861Y-52405047D01*
X99827266Y-52535568D01*
X100033504Y-52631739D01*
X100253308Y-52690635D01*
X100415230Y-52704801D01*
X100479998Y-52710468D01*
X100480000Y-52710468D01*
X100480002Y-52710468D01*
X100536673Y-52705509D01*
X100706692Y-52690635D01*
X100926496Y-52631739D01*
X101132734Y-52535568D01*
X101319139Y-52405047D01*
X101480047Y-52244139D01*
X101610568Y-52057734D01*
X101706739Y-51851496D01*
X101765635Y-51631692D01*
X101785468Y-51405000D01*
X101781197Y-51356188D01*
X101765635Y-51178313D01*
X101765635Y-51178308D01*
X101706739Y-50958504D01*
X101610568Y-50752266D01*
X101480047Y-50565861D01*
X101480045Y-50565858D01*
X101319141Y-50404954D01*
X101132734Y-50274432D01*
X101132732Y-50274431D01*
X100926497Y-50178261D01*
X100926488Y-50178258D01*
X100781898Y-50139516D01*
X100722237Y-50103151D01*
X100691708Y-50040304D01*
X100700003Y-49970929D01*
X100744488Y-49917051D01*
X100781898Y-49899966D01*
X100926317Y-49861269D01*
X100926331Y-49861264D01*
X101132478Y-49765136D01*
X101205471Y-49714024D01*
X100612533Y-49121086D01*
X100622315Y-49119680D01*
X100753100Y-49059952D01*
X100861761Y-48965798D01*
X100939493Y-48844844D01*
X100963076Y-48764523D01*
X101559024Y-49360471D01*
X101610136Y-49287478D01*
X101706264Y-49081331D01*
X101706269Y-49081317D01*
X101765139Y-48861610D01*
X101765141Y-48861599D01*
X101784966Y-48635002D01*
X101784966Y-48634997D01*
X101765141Y-48408400D01*
X101765139Y-48408389D01*
X101706269Y-48188682D01*
X101706264Y-48188668D01*
X101610136Y-47982521D01*
X101610132Y-47982513D01*
X101559025Y-47909526D01*
X100963076Y-48505475D01*
X100939493Y-48425156D01*
X100861761Y-48304202D01*
X100753100Y-48210048D01*
X100622315Y-48150320D01*
X100612533Y-48148913D01*
X101205472Y-47555974D01*
X101132478Y-47504863D01*
X100926331Y-47408735D01*
X100926319Y-47408731D01*
X100781897Y-47370033D01*
X100722237Y-47333668D01*
X100691708Y-47270821D01*
X100700003Y-47201445D01*
X100744488Y-47147567D01*
X100781894Y-47130484D01*
X100926496Y-47091739D01*
X101132734Y-46995568D01*
X101319139Y-46865047D01*
X101480047Y-46704139D01*
X101610568Y-46517734D01*
X101706739Y-46311496D01*
X101706740Y-46311491D01*
X101706742Y-46311487D01*
X101751709Y-46143663D01*
X101765635Y-46091692D01*
X101785468Y-45865000D01*
X101785030Y-45859999D01*
X101772196Y-45713300D01*
X101765635Y-45638308D01*
X101739800Y-45541890D01*
X101741463Y-45472042D01*
X101771880Y-45422130D01*
X102027073Y-45166871D01*
X102039279Y-45156167D01*
X102044865Y-45151881D01*
X102110035Y-45126689D01*
X102178479Y-45140729D01*
X102221922Y-45179135D01*
X102245121Y-45212267D01*
X102319954Y-45319141D01*
X102480858Y-45480045D01*
X102480861Y-45480047D01*
X102667266Y-45610568D01*
X102873504Y-45706739D01*
X102873509Y-45706740D01*
X102873511Y-45706741D01*
X103017136Y-45745225D01*
X103076797Y-45781590D01*
X103107326Y-45844437D01*
X103099031Y-45913812D01*
X103054546Y-45967690D01*
X103017136Y-45984775D01*
X102873511Y-46023258D01*
X102873502Y-46023261D01*
X102667267Y-46119431D01*
X102667265Y-46119432D01*
X102480858Y-46249954D01*
X102319954Y-46410858D01*
X102189432Y-46597265D01*
X102189431Y-46597267D01*
X102093261Y-46803502D01*
X102093258Y-46803511D01*
X102034366Y-47023302D01*
X102034364Y-47023313D01*
X102014532Y-47249998D01*
X102014532Y-47250001D01*
X102034364Y-47476686D01*
X102034366Y-47476697D01*
X102093258Y-47696488D01*
X102093261Y-47696497D01*
X102189431Y-47902732D01*
X102189432Y-47902734D01*
X102319954Y-48089141D01*
X102480858Y-48250045D01*
X102480861Y-48250047D01*
X102667266Y-48380568D01*
X102873504Y-48476739D01*
X102873509Y-48476740D01*
X102873511Y-48476741D01*
X103017136Y-48515225D01*
X103076797Y-48551590D01*
X103107326Y-48614437D01*
X103099031Y-48683812D01*
X103054546Y-48737690D01*
X103017136Y-48754775D01*
X102873511Y-48793258D01*
X102873502Y-48793261D01*
X102667267Y-48889431D01*
X102667265Y-48889432D01*
X102480858Y-49019954D01*
X102319954Y-49180858D01*
X102189432Y-49367265D01*
X102189431Y-49367267D01*
X102093261Y-49573502D01*
X102093258Y-49573511D01*
X102034366Y-49793302D01*
X102034364Y-49793313D01*
X102014532Y-50019998D01*
X102014532Y-50020001D01*
X102034364Y-50246686D01*
X102034366Y-50246697D01*
X102093258Y-50466488D01*
X102093261Y-50466497D01*
X102189431Y-50672732D01*
X102189432Y-50672734D01*
X102319954Y-50859141D01*
X102480858Y-51020045D01*
X102480861Y-51020047D01*
X102667266Y-51150568D01*
X102873504Y-51246739D01*
X102873509Y-51246740D01*
X102873511Y-51246741D01*
X103017136Y-51285225D01*
X103076797Y-51321590D01*
X103107326Y-51384437D01*
X103099031Y-51453812D01*
X103054546Y-51507690D01*
X103017136Y-51524775D01*
X102873511Y-51563258D01*
X102873502Y-51563261D01*
X102667267Y-51659431D01*
X102667265Y-51659432D01*
X102480858Y-51789954D01*
X102319954Y-51950858D01*
X102189432Y-52137265D01*
X102189431Y-52137267D01*
X102093261Y-52343502D01*
X102093258Y-52343511D01*
X102034366Y-52563302D01*
X102034364Y-52563313D01*
X102014532Y-52789998D01*
X102014532Y-52790001D01*
X102034364Y-53016686D01*
X102034366Y-53016697D01*
X102093258Y-53236488D01*
X102093261Y-53236497D01*
X102189431Y-53442732D01*
X102189432Y-53442734D01*
X102319954Y-53629141D01*
X102480858Y-53790045D01*
X102480861Y-53790047D01*
X102667266Y-53920568D01*
X102873504Y-54016739D01*
X103093308Y-54075635D01*
X103255230Y-54089801D01*
X103319998Y-54095468D01*
X103320000Y-54095468D01*
X103320002Y-54095468D01*
X103376673Y-54090509D01*
X103546692Y-54075635D01*
X103766496Y-54016739D01*
X103972734Y-53920568D01*
X104159139Y-53790047D01*
X104320047Y-53629139D01*
X104450568Y-53442734D01*
X104546739Y-53236496D01*
X104605635Y-53016692D01*
X104625468Y-52790000D01*
X104622523Y-52756344D01*
X104616775Y-52690635D01*
X104605635Y-52563308D01*
X104546739Y-52343504D01*
X104450568Y-52137266D01*
X104320047Y-51950861D01*
X104320045Y-51950858D01*
X104159141Y-51789954D01*
X103972734Y-51659432D01*
X103972732Y-51659431D01*
X103766497Y-51563261D01*
X103766488Y-51563258D01*
X103643966Y-51530429D01*
X103622862Y-51524774D01*
X103563202Y-51488410D01*
X103532673Y-51425563D01*
X103540968Y-51356188D01*
X103585453Y-51302310D01*
X103622862Y-51285225D01*
X103766496Y-51246739D01*
X103972734Y-51150568D01*
X104159139Y-51020047D01*
X104320047Y-50859139D01*
X104450568Y-50672734D01*
X104546739Y-50466496D01*
X104605635Y-50246692D01*
X104625468Y-50020000D01*
X104620760Y-49966193D01*
X104616569Y-49918282D01*
X104605635Y-49793308D01*
X104579870Y-49697152D01*
X104581533Y-49627305D01*
X104611966Y-49577377D01*
X106055031Y-48134497D01*
X106067207Y-48123821D01*
X106092282Y-48104582D01*
X106147166Y-48033056D01*
X106187612Y-47980353D01*
X106188523Y-47979199D01*
X106188527Y-47979190D01*
X106188914Y-47978227D01*
X106219414Y-47904596D01*
X106220183Y-47902740D01*
X106220185Y-47902736D01*
X106247972Y-47835663D01*
X106249064Y-47833192D01*
X106249067Y-47833180D01*
X106249310Y-47831038D01*
X106250307Y-47823470D01*
X106259226Y-47755718D01*
X106269682Y-47676339D01*
X106265559Y-47645013D01*
X106264500Y-47628835D01*
X106264500Y-46282343D01*
X106284185Y-46215304D01*
X106300808Y-46194673D01*
X106651461Y-45843930D01*
X106712779Y-45810437D01*
X106739153Y-45807600D01*
X107691922Y-45807600D01*
X107758961Y-45827285D01*
X107804716Y-45880089D01*
X107808964Y-45890646D01*
X107869210Y-46062821D01*
X107869437Y-46063182D01*
X107965184Y-46215562D01*
X108092738Y-46343116D01*
X108116162Y-46357834D01*
X108220055Y-46423115D01*
X108245478Y-46439089D01*
X108382248Y-46486947D01*
X108415745Y-46498668D01*
X108415750Y-46498669D01*
X108594996Y-46518865D01*
X108595000Y-46518865D01*
X108595004Y-46518865D01*
X108774249Y-46498669D01*
X108774252Y-46498668D01*
X108774255Y-46498668D01*
X108944522Y-46439089D01*
X109097262Y-46343116D01*
X109224816Y-46215562D01*
X109320789Y-46062822D01*
X109380368Y-45892555D01*
X109380583Y-45890646D01*
X109400565Y-45713303D01*
X109400565Y-45713296D01*
X109380369Y-45534050D01*
X109380368Y-45534045D01*
X109361473Y-45480047D01*
X109320789Y-45363778D01*
X109315816Y-45355864D01*
X109242339Y-45238926D01*
X109224816Y-45211038D01*
X109097262Y-45083484D01*
X109078191Y-45071501D01*
X108944521Y-44987510D01*
X108774252Y-44927931D01*
X108774247Y-44927930D01*
X108687513Y-44918158D01*
X108623100Y-44891092D01*
X108613698Y-44882601D01*
X108547219Y-44816095D01*
X108536543Y-44803919D01*
X108517282Y-44778818D01*
X108455699Y-44731564D01*
X108455679Y-44731549D01*
X108451836Y-44728599D01*
X108423297Y-44706691D01*
X108391939Y-44682619D01*
X108391848Y-44682566D01*
X108319184Y-44652468D01*
X108319161Y-44652458D01*
X108245885Y-44622088D01*
X108245766Y-44622056D01*
X108167848Y-44611798D01*
X108167826Y-44611795D01*
X108128423Y-44606600D01*
X108089120Y-44601418D01*
X108089118Y-44601418D01*
X108089117Y-44601418D01*
X108067120Y-44604309D01*
X108057745Y-44605542D01*
X108041585Y-44606600D01*
X107661390Y-44606600D01*
X107594351Y-44586915D01*
X107548596Y-44534111D01*
X107538652Y-44464953D01*
X107544349Y-44441645D01*
X107593366Y-44301562D01*
X107593369Y-44301549D01*
X107613565Y-44122303D01*
X107613565Y-44122296D01*
X107593369Y-43943050D01*
X107593368Y-43943045D01*
X107553969Y-43830450D01*
X107533789Y-43772778D01*
X107525788Y-43760045D01*
X107437815Y-43620037D01*
X107310262Y-43492484D01*
X107157523Y-43396511D01*
X106987254Y-43336931D01*
X106987249Y-43336930D01*
X106808004Y-43316735D01*
X106807996Y-43316735D01*
X106628750Y-43336930D01*
X106628745Y-43336931D01*
X106458476Y-43396511D01*
X106305736Y-43492485D01*
X106256998Y-43541222D01*
X106216766Y-43568102D01*
X106145174Y-43597752D01*
X106078238Y-43649113D01*
X106051228Y-43669837D01*
X106051229Y-43669838D01*
X106019716Y-43694018D01*
X106000500Y-43719061D01*
X105989804Y-43731256D01*
X104836054Y-44884895D01*
X104774729Y-44918377D01*
X104705038Y-44913390D01*
X104682405Y-44902204D01*
X104678746Y-44899905D01*
X104649347Y-44881432D01*
X104603057Y-44829098D01*
X104592408Y-44760045D01*
X104595546Y-44744343D01*
X104596760Y-44739815D01*
X104605635Y-44706692D01*
X104625468Y-44480000D01*
X104605635Y-44253308D01*
X104546739Y-44033504D01*
X104450568Y-43827266D01*
X104320047Y-43640861D01*
X104320045Y-43640858D01*
X104159141Y-43479954D01*
X103972734Y-43349432D01*
X103972732Y-43349431D01*
X103766497Y-43253261D01*
X103761402Y-43251407D01*
X103762159Y-43249325D01*
X103710617Y-43217908D01*
X103680088Y-43155061D01*
X103688383Y-43085686D01*
X103732869Y-43031808D01*
X103799421Y-43010534D01*
X103802352Y-43010499D01*
X104167872Y-43010499D01*
X104227483Y-43004091D01*
X104362331Y-42953796D01*
X104477546Y-42867546D01*
X104563796Y-42752331D01*
X104614091Y-42617483D01*
X104620500Y-42557873D01*
X104620499Y-40862128D01*
X104614091Y-40802517D01*
X104607872Y-40785844D01*
X104563797Y-40667671D01*
X104563793Y-40667664D01*
X104477547Y-40552455D01*
X104477544Y-40552452D01*
X104362335Y-40466206D01*
X104362328Y-40466202D01*
X104227482Y-40415908D01*
X104227483Y-40415908D01*
X104167883Y-40409501D01*
X104167881Y-40409500D01*
X104167873Y-40409500D01*
X104167864Y-40409500D01*
X102472129Y-40409500D01*
X102472123Y-40409501D01*
X102412512Y-40415909D01*
X102404969Y-40417692D01*
X102404222Y-40414531D01*
X102349316Y-40418414D01*
X102288020Y-40384879D01*
X102254584Y-40323529D01*
X102259625Y-40253841D01*
X102288117Y-40209562D01*
X102943359Y-39554739D01*
X102946309Y-39551791D01*
X103007643Y-39518325D01*
X103033962Y-39515500D01*
X104654903Y-39515500D01*
X104721942Y-39535185D01*
X104742584Y-39551819D01*
X104951799Y-39761034D01*
X104962493Y-39773228D01*
X104979809Y-39795794D01*
X104981718Y-39798282D01*
X105061451Y-39859463D01*
X105107159Y-39894536D01*
X105107161Y-39894536D01*
X105107163Y-39894538D01*
X105159504Y-39916218D01*
X105253238Y-39955044D01*
X105331619Y-39965363D01*
X105409999Y-39975682D01*
X105410000Y-39975682D01*
X105441302Y-39971560D01*
X105457487Y-39970500D01*
X105983648Y-39970500D01*
X106050687Y-39990185D01*
X106082017Y-40019005D01*
X106085946Y-40024124D01*
X106133718Y-40086382D01*
X106158807Y-40105633D01*
X106170985Y-40116313D01*
X106967816Y-40912960D01*
X106978520Y-40925164D01*
X106997716Y-40950181D01*
X107025996Y-40971880D01*
X107026115Y-40971978D01*
X107041346Y-40983663D01*
X107059738Y-40997772D01*
X107123159Y-41046436D01*
X107123160Y-41046436D01*
X107123196Y-41046464D01*
X107123200Y-41046467D01*
X107123595Y-41046626D01*
X107164742Y-41063664D01*
X107194673Y-41076058D01*
X107194684Y-41076063D01*
X107230408Y-41090860D01*
X107269238Y-41106944D01*
X107269240Y-41106944D01*
X107269271Y-41106957D01*
X107269296Y-41106963D01*
X107269636Y-41107005D01*
X107347271Y-41117217D01*
X107386639Y-41122400D01*
X107386645Y-41122400D01*
X107390572Y-41122917D01*
X107390726Y-41122933D01*
X107426070Y-41127582D01*
X107457330Y-41123462D01*
X107473529Y-41122400D01*
X107893903Y-41122400D01*
X107960942Y-41142085D01*
X107981584Y-41158719D01*
X111952799Y-45129934D01*
X111963493Y-45142128D01*
X111982718Y-45167183D01*
X112007798Y-45186427D01*
X112019982Y-45197110D01*
X112142043Y-45319139D01*
X112536310Y-45713303D01*
X112548170Y-45725159D01*
X112581663Y-45786478D01*
X112584500Y-45812852D01*
X112584500Y-63954997D01*
X112583438Y-63971189D01*
X112579318Y-64002469D01*
X112579318Y-64002473D01*
X112583969Y-64037818D01*
X112583974Y-64037867D01*
X112588284Y-64070603D01*
X112588284Y-64070610D01*
X112588285Y-64070610D01*
X112599949Y-64159244D01*
X112599955Y-64159260D01*
X112599956Y-64159262D01*
X112626379Y-64223053D01*
X112626380Y-64223057D01*
X112626381Y-64223058D01*
X112660455Y-64305329D01*
X112706298Y-64365074D01*
X112706302Y-64365078D01*
X112734981Y-64402457D01*
X112735011Y-64402494D01*
X112756718Y-64430782D01*
X112781755Y-64449994D01*
X112793949Y-64460687D01*
X118573806Y-70241039D01*
X118584487Y-70253219D01*
X118603719Y-70278283D01*
X118664284Y-70324755D01*
X118664290Y-70324760D01*
X118728311Y-70373890D01*
X118729159Y-70374555D01*
X118729161Y-70374556D01*
X118730441Y-70375067D01*
X118803428Y-70405299D01*
X118803432Y-70405302D01*
X118803433Y-70405301D01*
X118874834Y-70434880D01*
X118875326Y-70435087D01*
X118875421Y-70435112D01*
X118877581Y-70435352D01*
X118955920Y-70445665D01*
X118955927Y-70445668D01*
X118955927Y-70445666D01*
X118971136Y-70447669D01*
X119031970Y-70455682D01*
X119031972Y-70455682D01*
X119031973Y-70455681D01*
X119031974Y-70455682D01*
X119063293Y-70451559D01*
X119079472Y-70450500D01*
X119970816Y-70450500D01*
X120037855Y-70470185D01*
X120058515Y-70486836D01*
X120378199Y-70806648D01*
X120411671Y-70867978D01*
X120414500Y-70894312D01*
X120414500Y-78964053D01*
X120394815Y-79031092D01*
X120378150Y-79051765D01*
X120283755Y-79146093D01*
X120222420Y-79179557D01*
X120209989Y-79181601D01*
X120122750Y-79191430D01*
X119952478Y-79251010D01*
X119799737Y-79346984D01*
X119672184Y-79474537D01*
X119576211Y-79627276D01*
X119516631Y-79797545D01*
X119516630Y-79797550D01*
X119496435Y-79976796D01*
X119496435Y-79976803D01*
X119516630Y-80156049D01*
X119516631Y-80156054D01*
X119576211Y-80326323D01*
X119652235Y-80447313D01*
X119672184Y-80479062D01*
X119799738Y-80606616D01*
X119952478Y-80702589D01*
X120096587Y-80753015D01*
X120122745Y-80762168D01*
X120122750Y-80762169D01*
X120301996Y-80782365D01*
X120302000Y-80782365D01*
X120302004Y-80782365D01*
X120481249Y-80762169D01*
X120481252Y-80762168D01*
X120481255Y-80762168D01*
X120651522Y-80702589D01*
X120804262Y-80606616D01*
X120931816Y-80479062D01*
X120970506Y-80417486D01*
X121022841Y-80371196D01*
X121091894Y-80360548D01*
X121155743Y-80388923D01*
X121194115Y-80447313D01*
X121199500Y-80483459D01*
X121199500Y-82137870D01*
X121199501Y-82137876D01*
X121205908Y-82197483D01*
X121256202Y-82332328D01*
X121256206Y-82332335D01*
X121342452Y-82447544D01*
X121342455Y-82447547D01*
X121457664Y-82533793D01*
X121457671Y-82533797D01*
X121592517Y-82584091D01*
X121592516Y-82584091D01*
X121599444Y-82584835D01*
X121652127Y-82590500D01*
X123447872Y-82590499D01*
X123507483Y-82584091D01*
X123642331Y-82533796D01*
X123757546Y-82447546D01*
X123843796Y-82332331D01*
X123894091Y-82197483D01*
X123900500Y-82137873D01*
X123900499Y-80342128D01*
X123894091Y-80282517D01*
X123892881Y-80279274D01*
X123843797Y-80147671D01*
X123843793Y-80147664D01*
X123757547Y-80032455D01*
X123757544Y-80032452D01*
X123642335Y-79946206D01*
X123642328Y-79946202D01*
X123510401Y-79896997D01*
X123454467Y-79855126D01*
X123430050Y-79789662D01*
X123444902Y-79721389D01*
X123466053Y-79693133D01*
X123588108Y-79571078D01*
X123723600Y-79377578D01*
X123823429Y-79163492D01*
X123823432Y-79163486D01*
X123880636Y-78950000D01*
X122983686Y-78950000D01*
X123009493Y-78909844D01*
X123050000Y-78771889D01*
X123050000Y-78628111D01*
X123009493Y-78490156D01*
X122983686Y-78450000D01*
X123880636Y-78450000D01*
X123880635Y-78449999D01*
X123823432Y-78236513D01*
X123823429Y-78236507D01*
X123723600Y-78022422D01*
X123723599Y-78022420D01*
X123588113Y-77828926D01*
X123588108Y-77828920D01*
X123421078Y-77661890D01*
X123235405Y-77531879D01*
X123191780Y-77477302D01*
X123184588Y-77407804D01*
X123216110Y-77345449D01*
X123235406Y-77328730D01*
X123237163Y-77327500D01*
X123421401Y-77198495D01*
X123588495Y-77031401D01*
X123724035Y-76837830D01*
X123823903Y-76623663D01*
X123885063Y-76395408D01*
X123905659Y-76160000D01*
X123885063Y-75924592D01*
X123823903Y-75696337D01*
X123724035Y-75482171D01*
X123692478Y-75437102D01*
X123588494Y-75288597D01*
X123421402Y-75121506D01*
X123421396Y-75121501D01*
X123235842Y-74991575D01*
X123192217Y-74936998D01*
X123185023Y-74867500D01*
X123216546Y-74805145D01*
X123235842Y-74788425D01*
X123326215Y-74725145D01*
X123421401Y-74658495D01*
X123588495Y-74491401D01*
X123724035Y-74297830D01*
X123823903Y-74083663D01*
X123885063Y-73855408D01*
X123905659Y-73620000D01*
X123885063Y-73384592D01*
X123823903Y-73156337D01*
X123724035Y-72942171D01*
X123714945Y-72929188D01*
X123588494Y-72748597D01*
X123421402Y-72581506D01*
X123421396Y-72581501D01*
X123235842Y-72451575D01*
X123192217Y-72396998D01*
X123185023Y-72327500D01*
X123216546Y-72265145D01*
X123235842Y-72248425D01*
X123326215Y-72185145D01*
X123421401Y-72118495D01*
X123588495Y-71951401D01*
X123724035Y-71757830D01*
X123732576Y-71739512D01*
X123778746Y-71687074D01*
X123828768Y-71668979D01*
X123858662Y-71665044D01*
X124004741Y-71604536D01*
X124084072Y-71543663D01*
X124130182Y-71508282D01*
X124149410Y-71483222D01*
X124160089Y-71471044D01*
X132884316Y-62746819D01*
X132945639Y-62713334D01*
X132971997Y-62710500D01*
X143677440Y-62710500D01*
X143744479Y-62730185D01*
X143790234Y-62782989D01*
X143800178Y-62852147D01*
X143789823Y-62886900D01*
X143776098Y-62916335D01*
X143776096Y-62916340D01*
X143776094Y-62916344D01*
X143714938Y-63144586D01*
X143714936Y-63144596D01*
X143694341Y-63379999D01*
X143694341Y-63380000D01*
X143714936Y-63615403D01*
X143714938Y-63615413D01*
X143776094Y-63843655D01*
X143776096Y-63843659D01*
X143776097Y-63843663D01*
X143867239Y-64039118D01*
X143875965Y-64057830D01*
X143875967Y-64057834D01*
X143984281Y-64212521D01*
X143991655Y-64223053D01*
X144011501Y-64251395D01*
X144011506Y-64251402D01*
X144178597Y-64418493D01*
X144178603Y-64418498D01*
X144364158Y-64548425D01*
X144407783Y-64603002D01*
X144414977Y-64672500D01*
X144383454Y-64734855D01*
X144364158Y-64751575D01*
X144178597Y-64881505D01*
X144011505Y-65048597D01*
X143875965Y-65242169D01*
X143875964Y-65242171D01*
X143776098Y-65456335D01*
X143776094Y-65456344D01*
X143714938Y-65684586D01*
X143714936Y-65684596D01*
X143694341Y-65919999D01*
X143694341Y-65920000D01*
X143714936Y-66155403D01*
X143714938Y-66155413D01*
X143776094Y-66383655D01*
X143776096Y-66383659D01*
X143776097Y-66383663D01*
X143870002Y-66585043D01*
X143875965Y-66597830D01*
X143875967Y-66597834D01*
X144011501Y-66791395D01*
X144011506Y-66791402D01*
X144178597Y-66958493D01*
X144178603Y-66958498D01*
X144364158Y-67088425D01*
X144407783Y-67143002D01*
X144414977Y-67212500D01*
X144383454Y-67274855D01*
X144364158Y-67291575D01*
X144178597Y-67421505D01*
X144011505Y-67588597D01*
X143875965Y-67782169D01*
X143875964Y-67782171D01*
X143802696Y-67939295D01*
X143776742Y-67994955D01*
X143776098Y-67996335D01*
X143776094Y-67996344D01*
X143714938Y-68224586D01*
X143714936Y-68224596D01*
X143694341Y-68459999D01*
X143694341Y-68460000D01*
X143714936Y-68695403D01*
X143714938Y-68695413D01*
X143776094Y-68923655D01*
X143776096Y-68923659D01*
X143776097Y-68923663D01*
X143875965Y-69137830D01*
X143875967Y-69137834D01*
X144011501Y-69331395D01*
X144011506Y-69331402D01*
X144178597Y-69498493D01*
X144178603Y-69498498D01*
X144364158Y-69628425D01*
X144407783Y-69683002D01*
X144414977Y-69752500D01*
X144383454Y-69814855D01*
X144364158Y-69831575D01*
X144178597Y-69961505D01*
X144011505Y-70128597D01*
X143875965Y-70322169D01*
X143875964Y-70322171D01*
X143776098Y-70536335D01*
X143776094Y-70536344D01*
X143714938Y-70764586D01*
X143714936Y-70764596D01*
X143694341Y-70999999D01*
X143694341Y-71000000D01*
X143714936Y-71235403D01*
X143714938Y-71235413D01*
X143776094Y-71463655D01*
X143776096Y-71463659D01*
X143776097Y-71463663D01*
X143841788Y-71604538D01*
X143875965Y-71677830D01*
X143875967Y-71677834D01*
X144011501Y-71871395D01*
X144011506Y-71871402D01*
X144178597Y-72038493D01*
X144178603Y-72038498D01*
X144364158Y-72168425D01*
X144407783Y-72223002D01*
X144414977Y-72292500D01*
X144383454Y-72354855D01*
X144364158Y-72371575D01*
X144178597Y-72501505D01*
X144011505Y-72668597D01*
X143875965Y-72862169D01*
X143875964Y-72862171D01*
X143776098Y-73076335D01*
X143776094Y-73076344D01*
X143714938Y-73304586D01*
X143714936Y-73304596D01*
X143694341Y-73539999D01*
X143694341Y-73540000D01*
X143714936Y-73775403D01*
X143714938Y-73775413D01*
X143776094Y-74003655D01*
X143776096Y-74003659D01*
X143776097Y-74003663D01*
X143861680Y-74187195D01*
X143875965Y-74217830D01*
X143875967Y-74217834D01*
X144011501Y-74411395D01*
X144011506Y-74411402D01*
X144178597Y-74578493D01*
X144178603Y-74578498D01*
X144364158Y-74708425D01*
X144407783Y-74763002D01*
X144414977Y-74832500D01*
X144383454Y-74894855D01*
X144364158Y-74911575D01*
X144178597Y-75041505D01*
X144011505Y-75208597D01*
X143875965Y-75402169D01*
X143875964Y-75402171D01*
X143776098Y-75616335D01*
X143776094Y-75616344D01*
X143714938Y-75844586D01*
X143714936Y-75844596D01*
X143694341Y-76079999D01*
X143694341Y-76080000D01*
X143714936Y-76315403D01*
X143714938Y-76315413D01*
X143776094Y-76543655D01*
X143776096Y-76543659D01*
X143776097Y-76543663D01*
X143875965Y-76757830D01*
X143875967Y-76757834D01*
X144011501Y-76951395D01*
X144011506Y-76951402D01*
X144178597Y-77118493D01*
X144178603Y-77118498D01*
X144364158Y-77248425D01*
X144407783Y-77303002D01*
X144414977Y-77372500D01*
X144383454Y-77434855D01*
X144364158Y-77451575D01*
X144178597Y-77581505D01*
X144011505Y-77748597D01*
X143875965Y-77942169D01*
X143875964Y-77942171D01*
X143776098Y-78156335D01*
X143776094Y-78156344D01*
X143714938Y-78384586D01*
X143714936Y-78384596D01*
X143694341Y-78619999D01*
X143694341Y-78620000D01*
X143714936Y-78855403D01*
X143714938Y-78855413D01*
X143776094Y-79083655D01*
X143776096Y-79083659D01*
X143776097Y-79083663D01*
X143854133Y-79251011D01*
X143875965Y-79297830D01*
X143875967Y-79297834D01*
X143978927Y-79444875D01*
X144011501Y-79491396D01*
X144011506Y-79491402D01*
X144133430Y-79613326D01*
X144166915Y-79674649D01*
X144161931Y-79744341D01*
X144120059Y-79800274D01*
X144089083Y-79817189D01*
X143957669Y-79866203D01*
X143957664Y-79866206D01*
X143842455Y-79952452D01*
X143842452Y-79952455D01*
X143756206Y-80067664D01*
X143756202Y-80067671D01*
X143705908Y-80202517D01*
X143699501Y-80262116D01*
X143699501Y-80262123D01*
X143699500Y-80262135D01*
X143699500Y-82057870D01*
X143699501Y-82057876D01*
X143705908Y-82117483D01*
X143756202Y-82252328D01*
X143756206Y-82252335D01*
X143842452Y-82367544D01*
X143842455Y-82367547D01*
X143957664Y-82453793D01*
X143957671Y-82453797D01*
X144092517Y-82504091D01*
X144092516Y-82504091D01*
X144099444Y-82504835D01*
X144152127Y-82510500D01*
X145947872Y-82510499D01*
X146007483Y-82504091D01*
X146142331Y-82453796D01*
X146257546Y-82367546D01*
X146343796Y-82252331D01*
X146394091Y-82117483D01*
X146400500Y-82057873D01*
X146400499Y-80262128D01*
X146394091Y-80202517D01*
X146376761Y-80156054D01*
X146343797Y-80067671D01*
X146343793Y-80067664D01*
X146257547Y-79952455D01*
X146257544Y-79952452D01*
X146142335Y-79866206D01*
X146142328Y-79866202D01*
X146010917Y-79817189D01*
X145954983Y-79775318D01*
X145930566Y-79709853D01*
X145945418Y-79641580D01*
X145966563Y-79613332D01*
X146088495Y-79491401D01*
X146224035Y-79297830D01*
X146323903Y-79083663D01*
X146385063Y-78855408D01*
X146405659Y-78620000D01*
X146385063Y-78384592D01*
X146323903Y-78156337D01*
X146224035Y-77942171D01*
X146215520Y-77930009D01*
X146088494Y-77748597D01*
X145921402Y-77581506D01*
X145921396Y-77581501D01*
X145735842Y-77451575D01*
X145692217Y-77396998D01*
X145685023Y-77327500D01*
X145716546Y-77265145D01*
X145735842Y-77248425D01*
X145807152Y-77198493D01*
X145921401Y-77118495D01*
X146088495Y-76951401D01*
X146224035Y-76757830D01*
X146323903Y-76543663D01*
X146385063Y-76315408D01*
X146405659Y-76080000D01*
X146385063Y-75844592D01*
X146323903Y-75616337D01*
X146224035Y-75402171D01*
X146183559Y-75344364D01*
X146088494Y-75208597D01*
X145921402Y-75041506D01*
X145921396Y-75041501D01*
X145735842Y-74911575D01*
X145692217Y-74856998D01*
X145685023Y-74787500D01*
X145716546Y-74725145D01*
X145735842Y-74708425D01*
X145807152Y-74658493D01*
X145921401Y-74578495D01*
X146088495Y-74411401D01*
X146224035Y-74217830D01*
X146323903Y-74003663D01*
X146385063Y-73775408D01*
X146405659Y-73540000D01*
X146385063Y-73304592D01*
X146323903Y-73076337D01*
X146224035Y-72862171D01*
X146144512Y-72748599D01*
X146088494Y-72668597D01*
X145921402Y-72501506D01*
X145921396Y-72501501D01*
X145735842Y-72371575D01*
X145692217Y-72316998D01*
X145685023Y-72247500D01*
X145716546Y-72185145D01*
X145735842Y-72168425D01*
X145807152Y-72118493D01*
X145921401Y-72038495D01*
X146088495Y-71871401D01*
X146224035Y-71677830D01*
X146323903Y-71463663D01*
X146385063Y-71235408D01*
X146405659Y-71000000D01*
X146403250Y-70972471D01*
X146391920Y-70842964D01*
X146385063Y-70764592D01*
X146323903Y-70536337D01*
X146224035Y-70322171D01*
X146200345Y-70288337D01*
X146088494Y-70128597D01*
X145921402Y-69961506D01*
X145921396Y-69961501D01*
X145735842Y-69831575D01*
X145692217Y-69776998D01*
X145685023Y-69707500D01*
X145716546Y-69645145D01*
X145735842Y-69628425D01*
X145807152Y-69578493D01*
X145921401Y-69498495D01*
X146088495Y-69331401D01*
X146224035Y-69137830D01*
X146323903Y-68923663D01*
X146385063Y-68695408D01*
X146405659Y-68460000D01*
X146385063Y-68224592D01*
X146323903Y-67996337D01*
X146224035Y-67782171D01*
X146195513Y-67741436D01*
X146088494Y-67588597D01*
X145921402Y-67421506D01*
X145921396Y-67421501D01*
X145735842Y-67291575D01*
X145692217Y-67236998D01*
X145685023Y-67167500D01*
X145716546Y-67105145D01*
X145735842Y-67088425D01*
X145807152Y-67038493D01*
X145921401Y-66958495D01*
X146088495Y-66791401D01*
X146224035Y-66597830D01*
X146323903Y-66383663D01*
X146385063Y-66155408D01*
X146405659Y-65920000D01*
X146385063Y-65684592D01*
X146323903Y-65456337D01*
X146224035Y-65242171D01*
X146146589Y-65131565D01*
X146088494Y-65048597D01*
X145921402Y-64881506D01*
X145921396Y-64881501D01*
X145735842Y-64751575D01*
X145692217Y-64696998D01*
X145685023Y-64627500D01*
X145716546Y-64565145D01*
X145735842Y-64548425D01*
X145851567Y-64467393D01*
X145921401Y-64418495D01*
X146088495Y-64251401D01*
X146224035Y-64057830D01*
X146323903Y-63843663D01*
X146385063Y-63615408D01*
X146405659Y-63380000D01*
X146385063Y-63144592D01*
X146323903Y-62916337D01*
X146224035Y-62702171D01*
X146144511Y-62588599D01*
X146088496Y-62508600D01*
X146085764Y-62505344D01*
X146057752Y-62441336D01*
X146068793Y-62372344D01*
X146093071Y-62337962D01*
X158720883Y-49710150D01*
X158782204Y-49676667D01*
X158851896Y-49681651D01*
X158879685Y-49696258D01*
X159062165Y-49824032D01*
X159062167Y-49824033D01*
X159062170Y-49824035D01*
X159276337Y-49923903D01*
X159504592Y-49985063D01*
X159665924Y-49999178D01*
X159739999Y-50005659D01*
X159740000Y-50005659D01*
X159740001Y-50005659D01*
X159814076Y-49999178D01*
X159975408Y-49985063D01*
X160203663Y-49923903D01*
X160417830Y-49824035D01*
X160611401Y-49688495D01*
X160778495Y-49521401D01*
X160908730Y-49335405D01*
X160963307Y-49291781D01*
X161032805Y-49284587D01*
X161095160Y-49316110D01*
X161111879Y-49335405D01*
X161241890Y-49521078D01*
X161408917Y-49688105D01*
X161602421Y-49823600D01*
X161816507Y-49923429D01*
X161816516Y-49923433D01*
X162030000Y-49980634D01*
X162030000Y-49085501D01*
X162137685Y-49134680D01*
X162244237Y-49150000D01*
X162315763Y-49150000D01*
X162422315Y-49134680D01*
X162530000Y-49085501D01*
X162530000Y-49980633D01*
X162743483Y-49923433D01*
X162743492Y-49923429D01*
X162957578Y-49823600D01*
X163151082Y-49688105D01*
X163318105Y-49521082D01*
X163453600Y-49327578D01*
X163553429Y-49113492D01*
X163553432Y-49113486D01*
X163610636Y-48900000D01*
X162713686Y-48900000D01*
X162739493Y-48859844D01*
X162780000Y-48721889D01*
X162780000Y-48578111D01*
X162739493Y-48440156D01*
X162713686Y-48400000D01*
X163610636Y-48400000D01*
X163610635Y-48399999D01*
X163553432Y-48186513D01*
X163553429Y-48186507D01*
X163453600Y-47972422D01*
X163453599Y-47972420D01*
X163318113Y-47778926D01*
X163318108Y-47778920D01*
X163151082Y-47611894D01*
X162964968Y-47481575D01*
X162921344Y-47426998D01*
X162914151Y-47357499D01*
X162945673Y-47295145D01*
X162964968Y-47278425D01*
X163151082Y-47148105D01*
X163318105Y-46981082D01*
X163453600Y-46787578D01*
X163553429Y-46573492D01*
X163553432Y-46573486D01*
X163610636Y-46360000D01*
X162713686Y-46360000D01*
X162739493Y-46319844D01*
X162780000Y-46181889D01*
X162780000Y-46038111D01*
X162739493Y-45900156D01*
X162713686Y-45860000D01*
X163610636Y-45860000D01*
X163610635Y-45859999D01*
X163553432Y-45646513D01*
X163553429Y-45646507D01*
X163453600Y-45432422D01*
X163453599Y-45432420D01*
X163318113Y-45238926D01*
X163318108Y-45238920D01*
X163151082Y-45071894D01*
X162957578Y-44936399D01*
X162743492Y-44836570D01*
X162743486Y-44836567D01*
X162530000Y-44779364D01*
X162530000Y-45674498D01*
X162422315Y-45625320D01*
X162315763Y-45610000D01*
X162244237Y-45610000D01*
X162137685Y-45625320D01*
X162030000Y-45674498D01*
X162030000Y-44779364D01*
X162029999Y-44779364D01*
X161816513Y-44836567D01*
X161816507Y-44836570D01*
X161602422Y-44936399D01*
X161602420Y-44936400D01*
X161408926Y-45071886D01*
X161408920Y-45071891D01*
X161241891Y-45238920D01*
X161241890Y-45238922D01*
X161111880Y-45424595D01*
X161057303Y-45468219D01*
X160987804Y-45475412D01*
X160925450Y-45443890D01*
X160908730Y-45424594D01*
X160778494Y-45238597D01*
X160611402Y-45071506D01*
X160611395Y-45071501D01*
X160602353Y-45065170D01*
X160546215Y-45025861D01*
X160417831Y-44935965D01*
X160417826Y-44935962D01*
X160412091Y-44933288D01*
X160359653Y-44887113D01*
X160340500Y-44820908D01*
X160340500Y-38987487D01*
X160341561Y-38971301D01*
X160345682Y-38939999D01*
X160345682Y-38939998D01*
X160327970Y-38805463D01*
X160325044Y-38783238D01*
X160294790Y-38710198D01*
X160264538Y-38637163D01*
X160264535Y-38637158D01*
X160263234Y-38635463D01*
X160217790Y-38576239D01*
X160192451Y-38543216D01*
X160192450Y-38543215D01*
X160178761Y-38525375D01*
X160168281Y-38511716D01*
X160143229Y-38492494D01*
X160131034Y-38481799D01*
X156608199Y-34958964D01*
X156597504Y-34946769D01*
X156578283Y-34921719D01*
X156578278Y-34921715D01*
X156452841Y-34825464D01*
X156306762Y-34764956D01*
X156306760Y-34764955D01*
X156189361Y-34749500D01*
X156150000Y-34744318D01*
X156118697Y-34748439D01*
X156102513Y-34749500D01*
X148997487Y-34749500D01*
X148981302Y-34748439D01*
X148950000Y-34744318D01*
X148910639Y-34749500D01*
X148793239Y-34764955D01*
X148793237Y-34764956D01*
X148647157Y-34825464D01*
X148521719Y-34921715D01*
X148502497Y-34946766D01*
X148491805Y-34958958D01*
X148381463Y-35069299D01*
X148320140Y-35102783D01*
X148307666Y-35104837D01*
X148220750Y-35114630D01*
X148050478Y-35174210D01*
X147897737Y-35270184D01*
X147770184Y-35397737D01*
X147674211Y-35550476D01*
X147614631Y-35720745D01*
X147614630Y-35720750D01*
X147594435Y-35899996D01*
X147594435Y-35900003D01*
X147614630Y-36079249D01*
X147614631Y-36079254D01*
X147674211Y-36249523D01*
X147763356Y-36391395D01*
X147770184Y-36402262D01*
X147897738Y-36529816D01*
X147943385Y-36558498D01*
X148031771Y-36614035D01*
X148050478Y-36625789D01*
X148156827Y-36663002D01*
X148220745Y-36685368D01*
X148220750Y-36685369D01*
X148399996Y-36705565D01*
X148400000Y-36705565D01*
X148400004Y-36705565D01*
X148579249Y-36685369D01*
X148579252Y-36685368D01*
X148579255Y-36685368D01*
X148749522Y-36625789D01*
X148902262Y-36529816D01*
X149029816Y-36402262D01*
X149125789Y-36249522D01*
X149185368Y-36079255D01*
X149185369Y-36079249D01*
X149187469Y-36060615D01*
X149214536Y-35996201D01*
X149272132Y-35956647D01*
X149310689Y-35950500D01*
X155849903Y-35950500D01*
X155916942Y-35970185D01*
X155937584Y-35986819D01*
X159103181Y-39152416D01*
X159136666Y-39213739D01*
X159139500Y-39240097D01*
X159139500Y-44820908D01*
X159119815Y-44887947D01*
X159067914Y-44933286D01*
X159062173Y-44935963D01*
X159062169Y-44935965D01*
X158868597Y-45071505D01*
X158701505Y-45238597D01*
X158571575Y-45424158D01*
X158516998Y-45467783D01*
X158447500Y-45474977D01*
X158385145Y-45443454D01*
X158368425Y-45424158D01*
X158238494Y-45238597D01*
X158071402Y-45071506D01*
X158071395Y-45071501D01*
X158062353Y-45065170D01*
X158006215Y-45025861D01*
X157877834Y-44935967D01*
X157877830Y-44935965D01*
X157848244Y-44922169D01*
X157663663Y-44836097D01*
X157663659Y-44836096D01*
X157663655Y-44836094D01*
X157435413Y-44774938D01*
X157435403Y-44774936D01*
X157320402Y-44764875D01*
X157255334Y-44739422D01*
X157214355Y-44682831D01*
X157210477Y-44613069D01*
X157243526Y-44553669D01*
X158629049Y-43168087D01*
X158641223Y-43157409D01*
X158666282Y-43138182D01*
X158685301Y-43113393D01*
X158685315Y-43113379D01*
X158711246Y-43079583D01*
X158711246Y-43079582D01*
X158711252Y-43079575D01*
X158757619Y-43019148D01*
X158760283Y-43016111D01*
X158762763Y-43012649D01*
X158763748Y-43010500D01*
X158765240Y-43006215D01*
X158806039Y-42907715D01*
X158821380Y-42870677D01*
X158823160Y-42866778D01*
X158823839Y-42862664D01*
X158824103Y-42858631D01*
X158835067Y-42775333D01*
X158835067Y-42775332D01*
X158835068Y-42775332D01*
X158835068Y-42775325D01*
X158838500Y-42749261D01*
X158838500Y-42749256D01*
X158839026Y-42745264D01*
X158839027Y-42745251D01*
X158843682Y-42709887D01*
X158839723Y-42679816D01*
X158839561Y-42678588D01*
X158838500Y-42662401D01*
X158838500Y-41306607D01*
X158839562Y-41290414D01*
X158843683Y-41259126D01*
X158841749Y-41244435D01*
X158839029Y-41223771D01*
X158839027Y-41223743D01*
X158836430Y-41204024D01*
X158835167Y-41194429D01*
X158823418Y-41105162D01*
X158823128Y-41102458D01*
X158823122Y-41102436D01*
X158822289Y-41100516D01*
X158807024Y-41063664D01*
X158791800Y-41026909D01*
X158763538Y-40958671D01*
X158762662Y-40956416D01*
X158762631Y-40956362D01*
X158761871Y-40955392D01*
X158712033Y-40890443D01*
X158690466Y-40862333D01*
X158690463Y-40862330D01*
X158688005Y-40859126D01*
X158687980Y-40859095D01*
X158670997Y-40836963D01*
X158666282Y-40830818D01*
X158666280Y-40830817D01*
X158666280Y-40830816D01*
X158641245Y-40811606D01*
X158629046Y-40800908D01*
X157254211Y-39425965D01*
X156162198Y-38333866D01*
X156151515Y-38321683D01*
X156132282Y-38296618D01*
X156132279Y-38296616D01*
X156055749Y-38237892D01*
X156006862Y-38200376D01*
X156006860Y-38200375D01*
X156006843Y-38200364D01*
X155936234Y-38171117D01*
X155936234Y-38171116D01*
X155936232Y-38171116D01*
X155860785Y-38139862D01*
X155860784Y-38139861D01*
X155860770Y-38139856D01*
X155785677Y-38129970D01*
X155785676Y-38129969D01*
X155785675Y-38129970D01*
X155704024Y-38119218D01*
X155672704Y-38123340D01*
X155656525Y-38124400D01*
X152822447Y-38124400D01*
X152806276Y-38123341D01*
X152774931Y-38119218D01*
X152774929Y-38119218D01*
X152696667Y-38129530D01*
X152696654Y-38129532D01*
X152618204Y-38139860D01*
X152542808Y-38171100D01*
X152542796Y-38171105D01*
X152472123Y-38200378D01*
X152410589Y-38247608D01*
X152410576Y-38247618D01*
X152346719Y-38296616D01*
X152327473Y-38321696D01*
X152316793Y-38333876D01*
X152127544Y-38523171D01*
X152066225Y-38556663D01*
X152039852Y-38559500D01*
X151235487Y-38559500D01*
X151219302Y-38558439D01*
X151188000Y-38554318D01*
X151148639Y-38559500D01*
X151031239Y-38574955D01*
X151031237Y-38574956D01*
X150885160Y-38635463D01*
X150759718Y-38731718D01*
X150663463Y-38857160D01*
X150602956Y-39003237D01*
X150602955Y-39003239D01*
X150582318Y-39159998D01*
X150582318Y-39160000D01*
X150586439Y-39191301D01*
X150587500Y-39207487D01*
X150587500Y-39587400D01*
X150567815Y-39654439D01*
X150515011Y-39700194D01*
X150463500Y-39711400D01*
X148812478Y-39711400D01*
X148796298Y-39710340D01*
X148788335Y-39709292D01*
X148764980Y-39706218D01*
X148764979Y-39706218D01*
X148764978Y-39706218D01*
X148683501Y-39716947D01*
X148683500Y-39716947D01*
X148608226Y-39726857D01*
X148536287Y-39756658D01*
X148536286Y-39756658D01*
X148462154Y-39787365D01*
X148462142Y-39787373D01*
X148462142Y-39787374D01*
X148404552Y-39831566D01*
X148368197Y-39859463D01*
X148336715Y-39883620D01*
X148317482Y-39908684D01*
X148306793Y-39920872D01*
X147441896Y-40785828D01*
X147029922Y-41197830D01*
X147028574Y-41199178D01*
X146967252Y-41232665D01*
X146940890Y-41235500D01*
X146401110Y-41235500D01*
X146334071Y-41215815D01*
X146288316Y-41163011D01*
X146278372Y-41093853D01*
X146288728Y-41059095D01*
X146292478Y-41051053D01*
X146323903Y-40983663D01*
X146385063Y-40755408D01*
X146405659Y-40520000D01*
X146385063Y-40284592D01*
X146323903Y-40056337D01*
X146234619Y-39864870D01*
X146224128Y-39795794D01*
X146248623Y-39736984D01*
X146251540Y-39733182D01*
X146262204Y-39721022D01*
X146984064Y-38998977D01*
X146996264Y-38988277D01*
X147021282Y-38969082D01*
X147042611Y-38941283D01*
X147042712Y-38941161D01*
X147045495Y-38937531D01*
X147045500Y-38937528D01*
X147068247Y-38907874D01*
X147117176Y-38844109D01*
X147117568Y-38843609D01*
X147117568Y-38843608D01*
X147117835Y-38842944D01*
X147148246Y-38769500D01*
X147177619Y-38698586D01*
X147178072Y-38697530D01*
X147178073Y-38697527D01*
X147178208Y-38696391D01*
X147189287Y-38612159D01*
X147193500Y-38580161D01*
X147193500Y-38580158D01*
X147194016Y-38576239D01*
X147194029Y-38576093D01*
X147198682Y-38540723D01*
X147194563Y-38509466D01*
X147193500Y-38493265D01*
X147193500Y-37614745D01*
X147194564Y-37598536D01*
X147194855Y-37596335D01*
X147198682Y-37567301D01*
X147194034Y-37531950D01*
X147194012Y-37531732D01*
X147191986Y-37516344D01*
X147188326Y-37488539D01*
X147178070Y-37410536D01*
X147178069Y-37410534D01*
X147178066Y-37410509D01*
X147178055Y-37410466D01*
X147178044Y-37410440D01*
X147178044Y-37410438D01*
X147165360Y-37379817D01*
X147147782Y-37337379D01*
X147147774Y-37337360D01*
X147133204Y-37302169D01*
X147117587Y-37264447D01*
X147117582Y-37264441D01*
X147117536Y-37264359D01*
X147069063Y-37201187D01*
X147069051Y-37201171D01*
X147043126Y-37167374D01*
X147042987Y-37167204D01*
X147021282Y-37138918D01*
X147021280Y-37138917D01*
X147021280Y-37138916D01*
X146996282Y-37119735D01*
X146984071Y-37109025D01*
X146761086Y-36885965D01*
X146202500Y-36327191D01*
X146169026Y-36265864D01*
X146174022Y-36196173D01*
X146188621Y-36168405D01*
X146224035Y-36117830D01*
X146323903Y-35903663D01*
X146385063Y-35675408D01*
X146405659Y-35440000D01*
X146385063Y-35204592D01*
X146323903Y-34976337D01*
X146224035Y-34762171D01*
X146215517Y-34750005D01*
X146088494Y-34568597D01*
X145921402Y-34401506D01*
X145921401Y-34401505D01*
X145735405Y-34271269D01*
X145691781Y-34216692D01*
X145684588Y-34147193D01*
X145716110Y-34084839D01*
X145735405Y-34068119D01*
X145921082Y-33938105D01*
X146088105Y-33771082D01*
X146223600Y-33577578D01*
X146323429Y-33363492D01*
X146323432Y-33363486D01*
X146380636Y-33150000D01*
X145483686Y-33150000D01*
X145509493Y-33109844D01*
X145550000Y-32971889D01*
X145550000Y-32828111D01*
X145509493Y-32690156D01*
X145483686Y-32650000D01*
X146380636Y-32650000D01*
X146380635Y-32649999D01*
X146323432Y-32436513D01*
X146323429Y-32436507D01*
X146223600Y-32222422D01*
X146223599Y-32222420D01*
X146088113Y-32028926D01*
X146088108Y-32028920D01*
X145921082Y-31861894D01*
X145727578Y-31726399D01*
X145513492Y-31626570D01*
X145513486Y-31626567D01*
X145300000Y-31569364D01*
X145300000Y-32464498D01*
X145192315Y-32415320D01*
X145085763Y-32400000D01*
X145014237Y-32400000D01*
X144907685Y-32415320D01*
X144800000Y-32464498D01*
X144800000Y-31569364D01*
X144799999Y-31569364D01*
X144586513Y-31626567D01*
X144586507Y-31626570D01*
X144372422Y-31726399D01*
X144372420Y-31726400D01*
X144178926Y-31861886D01*
X144178920Y-31861891D01*
X144011891Y-32028920D01*
X144011886Y-32028926D01*
X143876400Y-32222420D01*
X143876399Y-32222422D01*
X143776570Y-32436507D01*
X143776567Y-32436513D01*
X143719364Y-32649999D01*
X143719364Y-32650000D01*
X144616314Y-32650000D01*
X144590507Y-32690156D01*
X144550000Y-32828111D01*
X144550000Y-32971889D01*
X144590507Y-33109844D01*
X144616314Y-33150000D01*
X143719364Y-33150000D01*
X143776567Y-33363486D01*
X143776570Y-33363492D01*
X143876399Y-33577578D01*
X144011894Y-33771082D01*
X144178917Y-33938105D01*
X144364595Y-34068119D01*
X144408219Y-34122696D01*
X144415412Y-34192195D01*
X144383890Y-34254549D01*
X144364595Y-34271269D01*
X144178594Y-34401508D01*
X144011505Y-34568597D01*
X143875965Y-34762169D01*
X143875964Y-34762171D01*
X143776098Y-34976335D01*
X143776094Y-34976344D01*
X143714938Y-35204586D01*
X143714936Y-35204596D01*
X143694341Y-35439999D01*
X143694341Y-35440000D01*
X143714936Y-35675403D01*
X143714938Y-35675413D01*
X143776094Y-35903655D01*
X143776096Y-35903659D01*
X143776097Y-35903663D01*
X143843603Y-36048430D01*
X143875965Y-36117830D01*
X143875967Y-36117834D01*
X144011501Y-36311395D01*
X144011506Y-36311402D01*
X144178597Y-36478493D01*
X144178603Y-36478498D01*
X144364158Y-36608425D01*
X144407783Y-36663002D01*
X144414977Y-36732500D01*
X144383454Y-36794855D01*
X144364158Y-36811575D01*
X144178597Y-36941505D01*
X144011505Y-37108597D01*
X143875965Y-37302169D01*
X143875964Y-37302171D01*
X143776098Y-37516335D01*
X143776094Y-37516344D01*
X143714938Y-37744586D01*
X143714936Y-37744596D01*
X143694341Y-37979999D01*
X143694341Y-37980000D01*
X143714936Y-38215403D01*
X143714938Y-38215413D01*
X143776094Y-38443655D01*
X143776096Y-38443659D01*
X143776097Y-38443663D01*
X143810825Y-38518137D01*
X143827126Y-38553095D01*
X143837618Y-38622173D01*
X143809098Y-38685957D01*
X143750621Y-38724196D01*
X143714744Y-38729500D01*
X143619494Y-38729500D01*
X143603307Y-38728439D01*
X143572010Y-38724318D01*
X143572008Y-38724318D01*
X143536670Y-38728969D01*
X143536664Y-38728970D01*
X143532643Y-38729500D01*
X143532639Y-38729500D01*
X143497297Y-38734152D01*
X143497294Y-38734152D01*
X143415251Y-38744952D01*
X143415241Y-38744954D01*
X143415237Y-38744955D01*
X143415236Y-38744956D01*
X143368496Y-38764317D01*
X143368495Y-38764317D01*
X143269172Y-38805457D01*
X143269165Y-38805460D01*
X143269162Y-38805461D01*
X143269155Y-38805465D01*
X143269141Y-38805474D01*
X143268695Y-38805820D01*
X143143714Y-38901721D01*
X143124496Y-38926767D01*
X143113801Y-38938962D01*
X124041715Y-58010578D01*
X123980392Y-58044063D01*
X123910700Y-58039077D01*
X123854767Y-57997205D01*
X123834260Y-57954989D01*
X123823905Y-57916344D01*
X123823904Y-57916343D01*
X123823903Y-57916337D01*
X123724035Y-57702171D01*
X123677012Y-57635014D01*
X123588494Y-57508597D01*
X123421402Y-57341506D01*
X123421396Y-57341501D01*
X123235842Y-57211575D01*
X123192217Y-57156998D01*
X123185023Y-57087500D01*
X123216546Y-57025145D01*
X123235842Y-57008425D01*
X123326215Y-56945145D01*
X123421401Y-56878495D01*
X123588495Y-56711401D01*
X123724035Y-56517830D01*
X123823903Y-56303663D01*
X123885063Y-56075408D01*
X123905659Y-55840000D01*
X123885063Y-55604592D01*
X123823903Y-55376337D01*
X123724035Y-55162171D01*
X123668018Y-55082169D01*
X123588494Y-54968597D01*
X123421402Y-54801506D01*
X123421396Y-54801501D01*
X123235842Y-54671575D01*
X123192217Y-54616998D01*
X123185023Y-54547500D01*
X123216546Y-54485145D01*
X123235842Y-54468425D01*
X123326215Y-54405145D01*
X123421401Y-54338495D01*
X123588495Y-54171401D01*
X123724035Y-53977830D01*
X123823903Y-53763663D01*
X123885063Y-53535408D01*
X123905659Y-53300000D01*
X123885063Y-53064592D01*
X123823903Y-52836337D01*
X123724035Y-52622171D01*
X123682823Y-52563313D01*
X123588494Y-52428597D01*
X123421402Y-52261506D01*
X123421396Y-52261501D01*
X123235842Y-52131575D01*
X123192217Y-52076998D01*
X123185023Y-52007500D01*
X123216546Y-51945145D01*
X123235842Y-51928425D01*
X123326215Y-51865145D01*
X123421401Y-51798495D01*
X123588495Y-51631401D01*
X123724035Y-51437830D01*
X123823903Y-51223663D01*
X123885063Y-50995408D01*
X123905659Y-50760000D01*
X123904982Y-50752267D01*
X123898024Y-50672732D01*
X123885063Y-50524592D01*
X123823903Y-50296337D01*
X123724035Y-50082171D01*
X123680504Y-50020001D01*
X123588494Y-49888597D01*
X123421402Y-49721506D01*
X123421396Y-49721501D01*
X123235842Y-49591575D01*
X123192217Y-49536998D01*
X123185023Y-49467500D01*
X123216546Y-49405145D01*
X123235842Y-49388425D01*
X123339118Y-49316110D01*
X123421401Y-49258495D01*
X123588495Y-49091401D01*
X123724035Y-48897830D01*
X123823903Y-48683663D01*
X123885063Y-48455408D01*
X123905659Y-48220000D01*
X123885063Y-47984592D01*
X123829868Y-47778598D01*
X123823905Y-47756344D01*
X123823904Y-47756343D01*
X123823903Y-47756337D01*
X123724035Y-47542171D01*
X123719049Y-47535049D01*
X123588494Y-47348597D01*
X123421402Y-47181506D01*
X123421396Y-47181501D01*
X123235842Y-47051575D01*
X123192217Y-46996998D01*
X123185023Y-46927500D01*
X123216546Y-46865145D01*
X123235842Y-46848425D01*
X123294499Y-46807353D01*
X123421401Y-46718495D01*
X123588495Y-46551401D01*
X123724035Y-46357830D01*
X123823903Y-46143663D01*
X123885063Y-45915408D01*
X123905659Y-45680000D01*
X123885063Y-45444592D01*
X123829868Y-45238599D01*
X123823905Y-45216344D01*
X123823904Y-45216343D01*
X123823903Y-45216337D01*
X123724035Y-45002171D01*
X123713770Y-44987510D01*
X123588494Y-44808597D01*
X123421402Y-44641506D01*
X123421396Y-44641501D01*
X123235842Y-44511575D01*
X123192217Y-44456998D01*
X123185023Y-44387500D01*
X123216546Y-44325145D01*
X123235842Y-44308425D01*
X123314557Y-44253308D01*
X123421401Y-44178495D01*
X123588495Y-44011401D01*
X123724035Y-43817830D01*
X123823903Y-43603663D01*
X123885063Y-43375408D01*
X123905659Y-43140000D01*
X123885063Y-42904592D01*
X123823903Y-42676337D01*
X123724035Y-42462171D01*
X123710099Y-42442267D01*
X123588494Y-42268597D01*
X123421402Y-42101506D01*
X123421396Y-42101501D01*
X123235842Y-41971575D01*
X123192217Y-41916998D01*
X123185023Y-41847500D01*
X123216546Y-41785145D01*
X123235842Y-41768425D01*
X123282338Y-41735868D01*
X123421401Y-41638495D01*
X123588495Y-41471401D01*
X123724035Y-41277830D01*
X123823903Y-41063663D01*
X123885063Y-40835408D01*
X123905659Y-40600000D01*
X123885063Y-40364592D01*
X123828911Y-40155026D01*
X123823905Y-40136344D01*
X123823904Y-40136343D01*
X123823903Y-40136337D01*
X123724035Y-39922171D01*
X123723496Y-39921400D01*
X123588494Y-39728597D01*
X123421402Y-39561506D01*
X123421396Y-39561501D01*
X123235842Y-39431575D01*
X123192217Y-39376998D01*
X123185023Y-39307500D01*
X123216546Y-39245145D01*
X123235842Y-39228425D01*
X123275814Y-39200436D01*
X123421401Y-39098495D01*
X123588495Y-38931401D01*
X123724035Y-38737830D01*
X123823903Y-38523663D01*
X123885063Y-38295408D01*
X123905659Y-38060000D01*
X123885063Y-37824592D01*
X123823903Y-37596337D01*
X123724035Y-37382171D01*
X123724034Y-37382169D01*
X123588494Y-37188597D01*
X123421402Y-37021506D01*
X123421396Y-37021501D01*
X123235842Y-36891575D01*
X123192217Y-36836998D01*
X123185023Y-36767500D01*
X123216546Y-36705145D01*
X123235842Y-36688425D01*
X123325295Y-36625789D01*
X123421401Y-36558495D01*
X123588495Y-36391401D01*
X123724035Y-36197830D01*
X123823903Y-35983663D01*
X123885063Y-35755408D01*
X123905659Y-35520000D01*
X123885063Y-35284592D01*
X123823903Y-35056337D01*
X123724035Y-34842171D01*
X123668018Y-34762169D01*
X123588494Y-34648597D01*
X123421402Y-34481506D01*
X123421396Y-34481501D01*
X123235842Y-34351575D01*
X123192217Y-34296998D01*
X123185023Y-34227500D01*
X123216546Y-34165145D01*
X123235842Y-34148425D01*
X123327363Y-34084341D01*
X123421401Y-34018495D01*
X123588495Y-33851401D01*
X123724035Y-33657830D01*
X123823903Y-33443663D01*
X123885063Y-33215408D01*
X123905659Y-32980000D01*
X123885063Y-32744592D01*
X123823903Y-32516337D01*
X123724035Y-32302171D01*
X123715110Y-32289424D01*
X123588494Y-32108597D01*
X123421402Y-31941506D01*
X123421395Y-31941501D01*
X123227834Y-31805967D01*
X123227830Y-31805965D01*
X123227828Y-31805964D01*
X123013663Y-31706097D01*
X123013659Y-31706096D01*
X123013655Y-31706094D01*
X122785413Y-31644938D01*
X122785403Y-31644936D01*
X122550001Y-31624341D01*
X122549999Y-31624341D01*
X122314596Y-31644936D01*
X122314586Y-31644938D01*
X122086344Y-31706094D01*
X122086335Y-31706098D01*
X121872171Y-31805964D01*
X121872169Y-31805965D01*
X121678597Y-31941505D01*
X121511505Y-32108597D01*
X121375965Y-32302169D01*
X121375964Y-32302171D01*
X121276098Y-32516335D01*
X121276094Y-32516344D01*
X121214938Y-32744586D01*
X121214936Y-32744596D01*
X121194341Y-32979999D01*
X121194341Y-32980000D01*
X121214936Y-33215403D01*
X121214938Y-33215413D01*
X121276094Y-33443655D01*
X121276096Y-33443659D01*
X121276097Y-33443663D01*
X121322527Y-33543232D01*
X121375965Y-33657830D01*
X121375967Y-33657834D01*
X121511501Y-33851395D01*
X121511506Y-33851402D01*
X121678597Y-34018493D01*
X121678603Y-34018498D01*
X121864158Y-34148425D01*
X121907783Y-34203002D01*
X121914977Y-34272500D01*
X121883454Y-34334855D01*
X121864158Y-34351575D01*
X121678597Y-34481505D01*
X121511505Y-34648597D01*
X121375965Y-34842169D01*
X121375964Y-34842171D01*
X121276098Y-35056335D01*
X121276094Y-35056344D01*
X121214938Y-35284586D01*
X121214936Y-35284596D01*
X121194341Y-35519999D01*
X121194341Y-35520000D01*
X121214936Y-35755403D01*
X121214938Y-35755413D01*
X121276094Y-35983655D01*
X121276096Y-35983659D01*
X121276097Y-35983663D01*
X121338660Y-36117829D01*
X121375965Y-36197830D01*
X121375967Y-36197834D01*
X121511501Y-36391395D01*
X121511506Y-36391402D01*
X121678597Y-36558493D01*
X121678603Y-36558498D01*
X121864158Y-36688425D01*
X121907783Y-36743002D01*
X121914977Y-36812500D01*
X121883454Y-36874855D01*
X121864158Y-36891575D01*
X121678597Y-37021505D01*
X121511505Y-37188597D01*
X121375965Y-37382169D01*
X121375965Y-37382170D01*
X121367430Y-37400472D01*
X121321255Y-37452909D01*
X121271228Y-37471002D01*
X121241263Y-37474945D01*
X121169843Y-37504528D01*
X121169835Y-37504532D01*
X121095179Y-37535448D01*
X121027974Y-37587016D01*
X121027970Y-37587019D01*
X120998977Y-37609262D01*
X120998920Y-37609309D01*
X120969714Y-37631720D01*
X120969713Y-37631722D01*
X120950506Y-37656752D01*
X120939807Y-37668951D01*
X120569611Y-38039088D01*
X120508285Y-38072568D01*
X120481937Y-38075400D01*
X119910487Y-38075400D01*
X119894302Y-38074339D01*
X119863000Y-38070218D01*
X119823639Y-38075400D01*
X119706239Y-38090855D01*
X119706237Y-38090856D01*
X119560160Y-38151363D01*
X119434718Y-38247618D01*
X119338463Y-38373060D01*
X119277956Y-38519137D01*
X119277955Y-38519139D01*
X119257318Y-38675898D01*
X119257318Y-38677600D01*
X119256912Y-38678982D01*
X119256257Y-38683958D01*
X119255481Y-38683855D01*
X119237633Y-38744639D01*
X119209330Y-38775571D01*
X119209272Y-38775616D01*
X119208738Y-38776027D01*
X119175614Y-38801439D01*
X119175511Y-38801522D01*
X119146719Y-38823616D01*
X119127519Y-38848636D01*
X119116818Y-38860836D01*
X118319986Y-39657484D01*
X118307807Y-39668165D01*
X118282718Y-39687418D01*
X118234953Y-39749666D01*
X118234946Y-39749675D01*
X118186483Y-39812818D01*
X118186471Y-39812838D01*
X118157161Y-39883603D01*
X118157155Y-39883618D01*
X118125960Y-39958901D01*
X118116189Y-40033129D01*
X118116187Y-40033144D01*
X118105318Y-40115628D01*
X118105318Y-40115630D01*
X118109441Y-40146975D01*
X118110500Y-40163146D01*
X118110500Y-45965274D01*
X118090815Y-46032313D01*
X118074176Y-46052961D01*
X117403445Y-46723607D01*
X116189095Y-47937803D01*
X116145605Y-47981287D01*
X116084279Y-48014768D01*
X116057929Y-48017600D01*
X115747487Y-48017600D01*
X115731302Y-48016539D01*
X115700000Y-48012418D01*
X115660639Y-48017600D01*
X115543239Y-48033055D01*
X115543237Y-48033056D01*
X115397160Y-48093563D01*
X115271718Y-48189818D01*
X115175463Y-48315260D01*
X115114956Y-48461338D01*
X115110254Y-48497049D01*
X115081986Y-48560945D01*
X115051670Y-48586284D01*
X115051701Y-48586327D01*
X115051198Y-48586678D01*
X115049332Y-48588239D01*
X115047267Y-48589431D01*
X114860858Y-48719954D01*
X114699954Y-48880858D01*
X114569432Y-49067265D01*
X114569431Y-49067267D01*
X114473261Y-49273502D01*
X114473258Y-49273511D01*
X114414366Y-49493302D01*
X114414364Y-49493313D01*
X114394532Y-49719998D01*
X114394532Y-49720001D01*
X114414364Y-49946686D01*
X114414366Y-49946697D01*
X114473258Y-50166488D01*
X114473261Y-50166497D01*
X114569431Y-50372732D01*
X114569432Y-50372734D01*
X114699954Y-50559141D01*
X114860858Y-50720045D01*
X114860861Y-50720047D01*
X115047266Y-50850568D01*
X115253504Y-50946739D01*
X115473308Y-51005635D01*
X115635230Y-51019801D01*
X115699998Y-51025468D01*
X115700000Y-51025468D01*
X115700002Y-51025468D01*
X115761985Y-51020045D01*
X115926692Y-51005635D01*
X116146496Y-50946739D01*
X116352734Y-50850568D01*
X116539139Y-50720047D01*
X116700047Y-50559139D01*
X116830568Y-50372734D01*
X116926739Y-50166496D01*
X116985635Y-49946692D01*
X117005468Y-49720000D01*
X117004606Y-49710152D01*
X116988093Y-49521402D01*
X116985635Y-49493308D01*
X116926739Y-49273504D01*
X116844208Y-49096518D01*
X116833717Y-49027443D01*
X116862236Y-48963659D01*
X116868897Y-48956447D01*
X119102031Y-46723597D01*
X119114207Y-46712921D01*
X119139282Y-46693682D01*
X119192765Y-46623980D01*
X119234626Y-46569433D01*
X119235526Y-46568294D01*
X119235527Y-46568292D01*
X119235951Y-46567238D01*
X119266230Y-46494136D01*
X119266234Y-46494132D01*
X119266233Y-46494132D01*
X119294682Y-46425464D01*
X119294974Y-46424757D01*
X119296061Y-46422298D01*
X119296066Y-46422279D01*
X119296309Y-46420146D01*
X119297532Y-46410861D01*
X119306694Y-46341265D01*
X119316682Y-46265439D01*
X119312559Y-46234113D01*
X119311500Y-46217935D01*
X119311500Y-40415846D01*
X119331185Y-40348807D01*
X119347829Y-40328155D01*
X119391408Y-40284586D01*
X119782193Y-39893890D01*
X119843520Y-39860413D01*
X119855012Y-39859177D01*
X119854942Y-39858643D01*
X119914700Y-39850775D01*
X120019762Y-39836944D01*
X120165841Y-39776436D01*
X120291282Y-39680182D01*
X120387536Y-39554741D01*
X120448044Y-39408662D01*
X120451262Y-39384214D01*
X120479528Y-39320319D01*
X120537852Y-39281847D01*
X120574201Y-39276400D01*
X120734482Y-39276400D01*
X120750676Y-39277462D01*
X120752483Y-39277699D01*
X120781951Y-39281582D01*
X120781954Y-39281581D01*
X120781957Y-39281582D01*
X120817300Y-39276932D01*
X120817394Y-39276922D01*
X120821358Y-39276400D01*
X120821361Y-39276400D01*
X120857744Y-39271609D01*
X120857761Y-39271611D01*
X120857761Y-39271607D01*
X120938715Y-39260957D01*
X120938720Y-39260954D01*
X120938756Y-39260944D01*
X120938762Y-39260944D01*
X121005865Y-39233148D01*
X121083501Y-39200998D01*
X121084819Y-39200474D01*
X121085866Y-39199648D01*
X121150059Y-39150392D01*
X121178748Y-39128382D01*
X121178748Y-39128381D01*
X121182846Y-39125238D01*
X121182893Y-39125196D01*
X121210282Y-39104182D01*
X121229490Y-39079148D01*
X121240185Y-39066954D01*
X121252319Y-39054821D01*
X121355957Y-38951200D01*
X121417283Y-38917721D01*
X121486974Y-38922711D01*
X121531312Y-38951208D01*
X121678597Y-39098493D01*
X121678603Y-39098498D01*
X121864158Y-39228425D01*
X121907783Y-39283002D01*
X121914977Y-39352500D01*
X121883454Y-39414855D01*
X121864158Y-39431575D01*
X121678597Y-39561505D01*
X121511505Y-39728597D01*
X121375965Y-39922169D01*
X121375964Y-39922171D01*
X121276098Y-40136335D01*
X121276094Y-40136344D01*
X121214938Y-40364586D01*
X121214936Y-40364596D01*
X121194341Y-40599999D01*
X121194341Y-40600000D01*
X121214936Y-40835403D01*
X121214938Y-40835413D01*
X121276094Y-41063655D01*
X121276096Y-41063659D01*
X121276097Y-41063663D01*
X121350744Y-41223743D01*
X121375965Y-41277830D01*
X121375967Y-41277834D01*
X121511501Y-41471395D01*
X121511506Y-41471402D01*
X121678597Y-41638493D01*
X121678603Y-41638498D01*
X121864158Y-41768425D01*
X121907783Y-41823002D01*
X121914977Y-41892500D01*
X121883454Y-41954855D01*
X121864158Y-41971575D01*
X121678597Y-42101505D01*
X121511505Y-42268597D01*
X121375965Y-42462169D01*
X121375964Y-42462171D01*
X121276098Y-42676335D01*
X121276094Y-42676344D01*
X121214938Y-42904586D01*
X121214936Y-42904596D01*
X121194341Y-43139999D01*
X121194341Y-43140000D01*
X121214936Y-43375403D01*
X121214938Y-43375413D01*
X121276094Y-43603655D01*
X121276096Y-43603659D01*
X121276097Y-43603663D01*
X121368562Y-43801955D01*
X121375965Y-43817830D01*
X121375967Y-43817834D01*
X121511501Y-44011395D01*
X121511506Y-44011402D01*
X121678597Y-44178493D01*
X121678603Y-44178498D01*
X121864158Y-44308425D01*
X121907783Y-44363002D01*
X121914977Y-44432500D01*
X121883454Y-44494855D01*
X121864158Y-44511575D01*
X121678597Y-44641505D01*
X121511505Y-44808597D01*
X121375965Y-45002169D01*
X121375964Y-45002171D01*
X121299018Y-45167183D01*
X121279122Y-45209851D01*
X121276098Y-45216335D01*
X121276094Y-45216344D01*
X121214938Y-45444586D01*
X121214936Y-45444596D01*
X121194341Y-45679999D01*
X121194341Y-45680000D01*
X121214936Y-45915403D01*
X121214938Y-45915413D01*
X121276094Y-46143655D01*
X121276096Y-46143659D01*
X121276097Y-46143663D01*
X121332882Y-46265439D01*
X121375965Y-46357830D01*
X121375967Y-46357834D01*
X121511501Y-46551395D01*
X121511506Y-46551402D01*
X121678597Y-46718493D01*
X121678603Y-46718498D01*
X121864158Y-46848425D01*
X121907783Y-46903002D01*
X121914977Y-46972500D01*
X121883454Y-47034855D01*
X121864158Y-47051575D01*
X121678597Y-47181505D01*
X121511505Y-47348597D01*
X121375965Y-47542169D01*
X121375964Y-47542171D01*
X121304001Y-47696497D01*
X121276382Y-47755727D01*
X121276098Y-47756335D01*
X121276094Y-47756344D01*
X121214938Y-47984586D01*
X121214936Y-47984596D01*
X121194341Y-48219999D01*
X121194341Y-48220000D01*
X121214936Y-48455403D01*
X121214938Y-48455413D01*
X121276094Y-48683655D01*
X121276096Y-48683659D01*
X121276097Y-48683663D01*
X121338660Y-48817830D01*
X121375965Y-48897830D01*
X121375967Y-48897834D01*
X121461477Y-49019954D01*
X121494605Y-49067266D01*
X121511501Y-49091395D01*
X121511506Y-49091402D01*
X121678597Y-49258493D01*
X121678603Y-49258498D01*
X121864158Y-49388425D01*
X121907783Y-49443002D01*
X121914977Y-49512500D01*
X121883454Y-49574855D01*
X121864158Y-49591575D01*
X121678597Y-49721505D01*
X121511505Y-49888597D01*
X121375965Y-50082169D01*
X121375964Y-50082171D01*
X121276098Y-50296335D01*
X121276094Y-50296344D01*
X121214938Y-50524586D01*
X121214936Y-50524596D01*
X121194341Y-50759999D01*
X121194341Y-50760000D01*
X121214936Y-50995403D01*
X121214938Y-50995413D01*
X121276094Y-51223655D01*
X121276096Y-51223659D01*
X121276097Y-51223663D01*
X121323570Y-51325468D01*
X121375965Y-51437830D01*
X121375967Y-51437834D01*
X121511501Y-51631395D01*
X121511506Y-51631402D01*
X121678597Y-51798493D01*
X121678603Y-51798498D01*
X121864158Y-51928425D01*
X121907783Y-51983002D01*
X121914977Y-52052500D01*
X121883454Y-52114855D01*
X121864158Y-52131575D01*
X121678597Y-52261505D01*
X121511505Y-52428597D01*
X121375965Y-52622169D01*
X121375964Y-52622171D01*
X121276098Y-52836335D01*
X121276094Y-52836344D01*
X121214938Y-53064586D01*
X121214936Y-53064596D01*
X121194341Y-53299999D01*
X121194341Y-53300000D01*
X121214936Y-53535403D01*
X121214938Y-53535413D01*
X121276094Y-53763655D01*
X121276096Y-53763659D01*
X121276097Y-53763663D01*
X121338660Y-53897830D01*
X121375965Y-53977830D01*
X121375967Y-53977834D01*
X121511501Y-54171395D01*
X121511506Y-54171402D01*
X121678597Y-54338493D01*
X121678603Y-54338498D01*
X121864158Y-54468425D01*
X121907783Y-54523002D01*
X121914977Y-54592500D01*
X121883454Y-54654855D01*
X121864158Y-54671575D01*
X121678597Y-54801505D01*
X121511505Y-54968597D01*
X121375965Y-55162169D01*
X121375964Y-55162171D01*
X121276098Y-55376335D01*
X121276094Y-55376344D01*
X121214938Y-55604586D01*
X121214936Y-55604596D01*
X121194341Y-55839999D01*
X121194341Y-55840000D01*
X121214936Y-56075403D01*
X121214938Y-56075413D01*
X121276094Y-56303655D01*
X121276096Y-56303659D01*
X121276097Y-56303663D01*
X121338660Y-56437830D01*
X121375965Y-56517830D01*
X121375967Y-56517834D01*
X121511501Y-56711395D01*
X121511506Y-56711402D01*
X121678597Y-56878493D01*
X121678603Y-56878498D01*
X121864158Y-57008425D01*
X121907783Y-57063002D01*
X121914977Y-57132500D01*
X121883454Y-57194855D01*
X121864158Y-57211575D01*
X121678597Y-57341505D01*
X121511505Y-57508597D01*
X121375965Y-57702169D01*
X121375964Y-57702171D01*
X121276098Y-57916335D01*
X121276094Y-57916344D01*
X121214938Y-58144586D01*
X121214936Y-58144596D01*
X121194341Y-58379999D01*
X121194341Y-58380000D01*
X121214936Y-58615403D01*
X121214938Y-58615413D01*
X121276094Y-58843655D01*
X121276096Y-58843659D01*
X121276097Y-58843663D01*
X121332506Y-58964632D01*
X121375965Y-59057830D01*
X121375967Y-59057834D01*
X121424427Y-59127041D01*
X121508939Y-59247737D01*
X121511501Y-59251395D01*
X121511506Y-59251402D01*
X121526500Y-59266396D01*
X121559985Y-59327719D01*
X121555001Y-59397411D01*
X121526499Y-59441759D01*
X116958962Y-64009201D01*
X116946771Y-64019893D01*
X116921720Y-64039116D01*
X116921719Y-64039117D01*
X116921718Y-64039118D01*
X116913177Y-64050249D01*
X116893748Y-64075570D01*
X116893747Y-64075571D01*
X116825470Y-64164549D01*
X116825466Y-64164554D01*
X116801235Y-64223053D01*
X116767642Y-64304154D01*
X116767640Y-64304159D01*
X116764956Y-64310637D01*
X116764955Y-64310638D01*
X116755759Y-64380498D01*
X116755759Y-64380500D01*
X116744318Y-64467393D01*
X116744318Y-64467394D01*
X116748439Y-64498698D01*
X116749500Y-64514883D01*
X116749500Y-65238306D01*
X116729815Y-65305345D01*
X116696623Y-65339881D01*
X116510859Y-65469953D01*
X116349954Y-65630858D01*
X116219433Y-65817264D01*
X116176406Y-65909535D01*
X116130233Y-65961974D01*
X116063039Y-65981125D01*
X115996158Y-65960909D01*
X115976339Y-65944806D01*
X115796144Y-65764596D01*
X113986701Y-63954997D01*
X113821815Y-63790097D01*
X113788333Y-63728773D01*
X113785500Y-63702420D01*
X113785500Y-59390559D01*
X113805185Y-59323520D01*
X113857989Y-59277765D01*
X113927147Y-59267821D01*
X113950455Y-59273517D01*
X113961745Y-59277468D01*
X113961748Y-59277468D01*
X113961750Y-59277469D01*
X114140997Y-59297665D01*
X114141000Y-59297665D01*
X114141001Y-59297665D01*
X114173009Y-59294058D01*
X114196121Y-59291454D01*
X114264943Y-59303508D01*
X114297684Y-59326990D01*
X114408041Y-59437340D01*
X114441528Y-59498662D01*
X114440138Y-59557116D01*
X114414366Y-59653302D01*
X114414365Y-59653308D01*
X114394532Y-59879999D01*
X114394532Y-59880001D01*
X114414364Y-60106686D01*
X114414366Y-60106697D01*
X114473258Y-60326488D01*
X114473261Y-60326497D01*
X114569431Y-60532732D01*
X114569432Y-60532734D01*
X114699954Y-60719141D01*
X114860858Y-60880045D01*
X114860861Y-60880047D01*
X115047266Y-61010568D01*
X115253504Y-61106739D01*
X115473308Y-61165635D01*
X115635230Y-61179801D01*
X115699998Y-61185468D01*
X115700000Y-61185468D01*
X115700002Y-61185468D01*
X115762282Y-61180019D01*
X115926692Y-61165635D01*
X116146496Y-61106739D01*
X116352734Y-61010568D01*
X116539139Y-60880047D01*
X116700047Y-60719139D01*
X116830568Y-60532734D01*
X116926739Y-60326496D01*
X116985635Y-60106692D01*
X117005468Y-59880000D01*
X116985635Y-59653308D01*
X116926739Y-59433504D01*
X116830568Y-59227266D01*
X116700047Y-59040861D01*
X116700045Y-59040858D01*
X116539141Y-58879954D01*
X116352734Y-58749432D01*
X116352732Y-58749431D01*
X116146497Y-58653261D01*
X116146488Y-58653258D01*
X115926697Y-58594366D01*
X115926693Y-58594365D01*
X115926692Y-58594365D01*
X115926691Y-58594364D01*
X115926686Y-58594364D01*
X115700002Y-58574532D01*
X115699999Y-58574532D01*
X115473313Y-58594364D01*
X115473309Y-58594364D01*
X115473308Y-58594365D01*
X115473303Y-58594366D01*
X115473300Y-58594367D01*
X115377016Y-58620165D01*
X115307166Y-58618502D01*
X115257246Y-58588074D01*
X115204581Y-58535413D01*
X114989135Y-58319981D01*
X114916443Y-58247294D01*
X114887079Y-58200564D01*
X114866789Y-58142578D01*
X114770816Y-57989838D01*
X114643262Y-57862284D01*
X114601968Y-57836337D01*
X114490523Y-57766311D01*
X114320254Y-57706731D01*
X114320249Y-57706730D01*
X114141004Y-57686535D01*
X114140996Y-57686535D01*
X113961750Y-57706730D01*
X113961740Y-57706732D01*
X113950451Y-57710683D01*
X113880673Y-57714243D01*
X113820046Y-57679512D01*
X113787821Y-57617518D01*
X113785500Y-57593640D01*
X113785500Y-45560140D01*
X113786559Y-45543970D01*
X113790682Y-45512623D01*
X113790682Y-45512622D01*
X113780080Y-45432171D01*
X113770044Y-45355938D01*
X113770042Y-45355935D01*
X113770042Y-45355929D01*
X113770024Y-45355864D01*
X113770024Y-45355862D01*
X113738080Y-45278770D01*
X113709536Y-45209859D01*
X113709534Y-45209857D01*
X113709532Y-45209851D01*
X113709504Y-45209802D01*
X113709498Y-45209794D01*
X113709497Y-45209791D01*
X113660370Y-45145784D01*
X113660367Y-45145775D01*
X113660365Y-45145777D01*
X113645718Y-45126689D01*
X113613282Y-45084418D01*
X113613279Y-45084416D01*
X113613278Y-45084414D01*
X113588199Y-45065170D01*
X113576016Y-45054488D01*
X113347962Y-44826494D01*
X113314469Y-44765175D01*
X113319445Y-44695483D01*
X113347951Y-44651120D01*
X115118504Y-42880699D01*
X115179827Y-42847218D01*
X115192276Y-42845167D01*
X115279255Y-42835368D01*
X115449522Y-42775789D01*
X115602262Y-42679816D01*
X115729816Y-42552262D01*
X115825789Y-42399522D01*
X115885368Y-42229255D01*
X115885369Y-42229249D01*
X115905565Y-42050003D01*
X115905565Y-42049996D01*
X115885369Y-41870750D01*
X115885368Y-41870745D01*
X115868662Y-41823002D01*
X115825789Y-41700478D01*
X115729816Y-41547738D01*
X115602262Y-41420184D01*
X115449523Y-41324211D01*
X115279254Y-41264631D01*
X115279249Y-41264630D01*
X115100004Y-41244435D01*
X115099996Y-41244435D01*
X114920750Y-41264630D01*
X114920745Y-41264631D01*
X114750476Y-41324211D01*
X114597737Y-41420184D01*
X114470184Y-41547737D01*
X114374210Y-41700478D01*
X114314630Y-41870750D01*
X114304841Y-41957633D01*
X114277774Y-42022047D01*
X114269299Y-42031434D01*
X112498645Y-43801955D01*
X112437321Y-43835437D01*
X112367629Y-43830450D01*
X112323286Y-43801951D01*
X108652199Y-40130864D01*
X108641504Y-40118669D01*
X108622283Y-40093619D01*
X108612852Y-40086382D01*
X108496841Y-39997364D01*
X108479509Y-39990185D01*
X108350762Y-39936856D01*
X108350760Y-39936855D01*
X108302483Y-39930500D01*
X108194001Y-39916218D01*
X108194000Y-39916218D01*
X108162697Y-39920339D01*
X108146513Y-39921400D01*
X107726049Y-39921400D01*
X107659010Y-39901715D01*
X107638378Y-39885091D01*
X107204011Y-39450825D01*
X107170519Y-39389506D01*
X107169279Y-39377987D01*
X107168743Y-39378058D01*
X107147044Y-39213239D01*
X107147044Y-39213238D01*
X107086536Y-39067159D01*
X106990282Y-38941718D01*
X106864841Y-38845464D01*
X106861748Y-38844183D01*
X106718762Y-38784956D01*
X106718760Y-38784955D01*
X106601361Y-38769500D01*
X106562000Y-38764318D01*
X106530697Y-38768439D01*
X106514513Y-38769500D01*
X105710097Y-38769500D01*
X105643058Y-38749815D01*
X105622416Y-38733181D01*
X105413199Y-38523964D01*
X105402504Y-38511769D01*
X105383283Y-38486719D01*
X105354809Y-38464870D01*
X105257841Y-38390464D01*
X105257621Y-38390373D01*
X105111762Y-38329956D01*
X105111760Y-38329955D01*
X104994361Y-38314500D01*
X104955000Y-38309318D01*
X104923697Y-38313439D01*
X104907513Y-38314500D01*
X102781604Y-38314500D01*
X102765381Y-38313434D01*
X102734193Y-38309318D01*
X102734191Y-38309318D01*
X102734190Y-38309318D01*
X102734188Y-38309318D01*
X102698837Y-38313961D01*
X102698418Y-38314002D01*
X102664780Y-38318430D01*
X102655876Y-38319603D01*
X102622987Y-38323922D01*
X102577416Y-38329907D01*
X102577325Y-38329932D01*
X102577238Y-38329955D01*
X102504896Y-38359920D01*
X102504861Y-38359935D01*
X102431311Y-38390373D01*
X102431174Y-38390452D01*
X102369347Y-38437893D01*
X102369320Y-38437913D01*
X102334508Y-38464608D01*
X102334188Y-38464870D01*
X102305719Y-38486716D01*
X102286568Y-38511675D01*
X102275846Y-38523896D01*
X101245027Y-39554057D01*
X101232864Y-39564721D01*
X101207716Y-39584018D01*
X101159264Y-39647162D01*
X101159242Y-39647191D01*
X101111550Y-39709304D01*
X101111468Y-39709446D01*
X101081266Y-39782363D01*
X101081251Y-39782399D01*
X101051002Y-39855359D01*
X101050971Y-39855478D01*
X101050956Y-39855530D01*
X101040687Y-39933537D01*
X101040682Y-39933576D01*
X101030318Y-40012109D01*
X101034444Y-40043523D01*
X101035500Y-40059671D01*
X101035500Y-41735868D01*
X101015815Y-41802907D01*
X100963011Y-41848662D01*
X100893853Y-41858606D01*
X100879407Y-41855643D01*
X100706697Y-41809366D01*
X100706693Y-41809365D01*
X100706692Y-41809365D01*
X100706691Y-41809364D01*
X100706686Y-41809364D01*
X100480002Y-41789532D01*
X100479998Y-41789532D01*
X100253313Y-41809364D01*
X100253302Y-41809366D01*
X100033511Y-41868258D01*
X100033502Y-41868261D01*
X99827267Y-41964431D01*
X99827265Y-41964432D01*
X99640858Y-42094954D01*
X99479954Y-42255858D01*
X99349432Y-42442265D01*
X99349431Y-42442267D01*
X99253261Y-42648502D01*
X99253258Y-42648511D01*
X99194366Y-42868302D01*
X99194364Y-42868313D01*
X99174532Y-43094998D01*
X99174532Y-43095001D01*
X99194364Y-43321686D01*
X99194366Y-43321697D01*
X99253258Y-43541488D01*
X99253261Y-43541497D01*
X99349431Y-43747732D01*
X99349432Y-43747734D01*
X99479954Y-43934141D01*
X99640858Y-44095045D01*
X99679777Y-44122296D01*
X99827266Y-44225568D01*
X100033504Y-44321739D01*
X100033509Y-44321740D01*
X100033511Y-44321741D01*
X100177136Y-44360225D01*
X100236797Y-44396590D01*
X100267326Y-44459437D01*
X100259031Y-44528812D01*
X100214546Y-44582690D01*
X100177136Y-44599775D01*
X100033511Y-44638258D01*
X100033502Y-44638261D01*
X99827267Y-44734431D01*
X99827265Y-44734432D01*
X99640858Y-44864954D01*
X99479954Y-45025858D01*
X99349432Y-45212265D01*
X99349431Y-45212267D01*
X99253261Y-45418502D01*
X99253258Y-45418511D01*
X99194366Y-45638302D01*
X99194364Y-45638313D01*
X99174532Y-45864998D01*
X99174532Y-45865001D01*
X99194364Y-46091686D01*
X99194366Y-46091697D01*
X99253258Y-46311487D01*
X99253261Y-46311497D01*
X99349431Y-46517732D01*
X99349432Y-46517734D01*
X99479954Y-46704141D01*
X99640858Y-46865045D01*
X99640861Y-46865047D01*
X99827266Y-46995568D01*
X100033504Y-47091739D01*
X100178102Y-47130483D01*
X100237761Y-47166848D01*
X100268291Y-47229694D01*
X100259997Y-47299070D01*
X100215512Y-47352948D01*
X100178102Y-47370033D01*
X100033680Y-47408731D01*
X100033673Y-47408734D01*
X99827516Y-47504866D01*
X99827512Y-47504868D01*
X99754526Y-47555973D01*
X99754526Y-47555974D01*
X100347466Y-48148913D01*
X100337685Y-48150320D01*
X100206900Y-48210048D01*
X100098239Y-48304202D01*
X100020507Y-48425156D01*
X99996923Y-48505475D01*
X99400974Y-47909526D01*
X99400973Y-47909526D01*
X99349868Y-47982512D01*
X99349866Y-47982516D01*
X99253734Y-48188673D01*
X99253730Y-48188682D01*
X99194860Y-48408389D01*
X99194858Y-48408400D01*
X99175034Y-48634997D01*
X99175034Y-48635002D01*
X99194858Y-48861599D01*
X99194860Y-48861610D01*
X99253730Y-49081317D01*
X99253735Y-49081331D01*
X99349863Y-49287478D01*
X99400974Y-49360472D01*
X99996923Y-48764523D01*
X100020507Y-48844844D01*
X100098239Y-48965798D01*
X100206900Y-49059952D01*
X100337685Y-49119680D01*
X100347466Y-49121086D01*
X99754526Y-49714025D01*
X99827513Y-49765132D01*
X99827521Y-49765136D01*
X100033668Y-49861264D01*
X100033682Y-49861269D01*
X100178101Y-49899966D01*
X100237762Y-49936331D01*
X100268291Y-49999178D01*
X100259996Y-50068553D01*
X100215511Y-50122431D01*
X100178102Y-50139516D01*
X100033508Y-50178259D01*
X100033502Y-50178261D01*
X99827267Y-50274431D01*
X99827265Y-50274432D01*
X99640858Y-50404954D01*
X99479954Y-50565858D01*
X99349432Y-50752265D01*
X99349431Y-50752267D01*
X99253261Y-50958502D01*
X99253258Y-50958511D01*
X99194366Y-51178302D01*
X99194364Y-51178313D01*
X99174532Y-51404998D01*
X99174532Y-51405001D01*
X91940500Y-51405001D01*
X91940500Y-34750005D01*
X99395057Y-34750005D01*
X99414807Y-35063942D01*
X99414808Y-35063949D01*
X99473755Y-35372958D01*
X99570963Y-35672132D01*
X99570965Y-35672137D01*
X99704900Y-35956761D01*
X99704903Y-35956767D01*
X99873457Y-36222367D01*
X99873460Y-36222371D01*
X99964286Y-36332160D01*
X100602266Y-35694180D01*
X100765130Y-35884870D01*
X100955818Y-36047732D01*
X100314971Y-36688579D01*
X100314972Y-36688581D01*
X100557772Y-36864985D01*
X100557790Y-36864996D01*
X100833447Y-37016540D01*
X100833455Y-37016544D01*
X101125926Y-37132340D01*
X101430620Y-37210573D01*
X101430629Y-37210575D01*
X101742701Y-37249999D01*
X101742715Y-37250000D01*
X102057285Y-37250000D01*
X102057298Y-37249999D01*
X102369370Y-37210575D01*
X102369379Y-37210573D01*
X102674073Y-37132340D01*
X102966544Y-37016544D01*
X102966552Y-37016540D01*
X103242209Y-36864996D01*
X103242219Y-36864990D01*
X103485026Y-36688579D01*
X103485027Y-36688579D01*
X102844180Y-36047733D01*
X103034870Y-35884870D01*
X103197733Y-35694181D01*
X103835712Y-36332160D01*
X103926544Y-36222364D01*
X104095096Y-35956767D01*
X104095099Y-35956761D01*
X104229034Y-35672137D01*
X104229036Y-35672132D01*
X104326244Y-35372958D01*
X104385191Y-35063949D01*
X104385192Y-35063942D01*
X104404943Y-34750005D01*
X104404943Y-34749994D01*
X104385192Y-34436057D01*
X104385191Y-34436050D01*
X104326244Y-34127041D01*
X104229036Y-33827867D01*
X104229034Y-33827862D01*
X104095099Y-33543238D01*
X104095096Y-33543232D01*
X103926542Y-33277632D01*
X103926539Y-33277628D01*
X103835712Y-33167838D01*
X103197732Y-33805818D01*
X103034870Y-33615130D01*
X102844180Y-33452266D01*
X103485027Y-32811419D01*
X103485026Y-32811417D01*
X103242227Y-32635014D01*
X103242209Y-32635003D01*
X102966552Y-32483459D01*
X102966544Y-32483455D01*
X102674073Y-32367659D01*
X102369379Y-32289426D01*
X102369370Y-32289424D01*
X102057298Y-32250000D01*
X101742701Y-32250000D01*
X101430629Y-32289424D01*
X101430620Y-32289426D01*
X101125926Y-32367659D01*
X100833455Y-32483455D01*
X100833447Y-32483459D01*
X100557787Y-32635004D01*
X100557782Y-32635007D01*
X100314972Y-32811418D01*
X100314971Y-32811419D01*
X100955819Y-33452266D01*
X100765130Y-33615130D01*
X100602266Y-33805818D01*
X99964286Y-33167838D01*
X99964285Y-33167838D01*
X99873459Y-33277629D01*
X99873457Y-33277632D01*
X99704903Y-33543232D01*
X99704900Y-33543238D01*
X99570965Y-33827862D01*
X99570963Y-33827867D01*
X99473755Y-34127041D01*
X99414808Y-34436050D01*
X99414807Y-34436057D01*
X99395057Y-34749994D01*
X99395057Y-34750005D01*
X91940500Y-34750005D01*
X91940500Y-31104500D01*
X91960185Y-31037461D01*
X92012989Y-30991706D01*
X92064500Y-30980500D01*
X164475500Y-30980500D01*
X164542539Y-31000185D01*
G37*
%TD.AperFunction*%
%TD*%
M02*
