%TF.GenerationSoftware,KiCad,Pcbnew,7.0.11+1*%
%TF.CreationDate,2024-06-05T10:26:47+01:00*%
%TF.ProjectId,nanoshield,6e616e6f-7368-4696-956c-642e6b696361,rev?*%
%TF.SameCoordinates,Original*%
%TF.FileFunction,Copper,L2,Bot*%
%TF.FilePolarity,Positive*%
%FSLAX46Y46*%
G04 Gerber Fmt 4.6, Leading zero omitted, Abs format (unit mm)*
G04 Created by KiCad (PCBNEW 7.0.11+1) date 2024-06-05 10:26:47*
%MOMM*%
%LPD*%
G01*
G04 APERTURE LIST*
%TA.AperFunction,ComponentPad*%
%ADD10R,1.700000X1.700000*%
%TD*%
%TA.AperFunction,ComponentPad*%
%ADD11O,1.700000X1.700000*%
%TD*%
%TA.AperFunction,ComponentPad*%
%ADD12C,4.000000*%
%TD*%
%TA.AperFunction,ComponentPad*%
%ADD13R,1.600000X1.600000*%
%TD*%
%TA.AperFunction,ComponentPad*%
%ADD14C,1.600000*%
%TD*%
%TA.AperFunction,ComponentPad*%
%ADD15O,1.600000X1.600000*%
%TD*%
%TA.AperFunction,WasherPad*%
%ADD16C,2.499360*%
%TD*%
%TA.AperFunction,ComponentPad*%
%ADD17C,2.499360*%
%TD*%
%TA.AperFunction,ViaPad*%
%ADD18C,0.600000*%
%TD*%
%TA.AperFunction,Conductor*%
%ADD19C,0.200000*%
%TD*%
G04 APERTURE END LIST*
D10*
%TO.P,J3,1,Pin_1*%
%TO.N,+5V*%
X122550000Y-81240000D03*
D11*
%TO.P,J3,2,Pin_2*%
%TO.N,GND*%
X122550000Y-78700000D03*
%TO.P,J3,3,Pin_3*%
%TO.N,unconnected-(J3-Pin_3-Pad3)*%
X122550000Y-76160000D03*
%TO.P,J3,4,Pin_4*%
%TO.N,unconnected-(J3-Pin_4-Pad4)*%
X122550000Y-73620000D03*
%TO.P,J3,5,Pin_5*%
%TO.N,miso*%
X122550000Y-71080000D03*
%TO.P,J3,6,Pin_6*%
%TO.N,mosi*%
X122550000Y-68540000D03*
%TO.P,J3,7,Pin_7*%
%TO.N,csn*%
X122550000Y-66000000D03*
%TO.P,J3,8,Pin_8*%
%TO.N,sck*%
X122550000Y-63460000D03*
%TO.P,J3,9,Pin_9*%
%TO.N,irq*%
X122550000Y-60920000D03*
%TO.P,J3,10,Pin_10*%
%TO.N,unconnected-(J3-Pin_10-Pad10)*%
X122550000Y-58380000D03*
%TO.P,J3,11,Pin_11*%
%TO.N,unconnected-(J3-Pin_11-Pad11)*%
X122550000Y-55840000D03*
%TO.P,J3,12,Pin_12*%
%TO.N,unconnected-(J3-Pin_12-Pad12)*%
X122550000Y-53300000D03*
%TO.P,J3,13,Pin_13*%
%TO.N,unconnected-(J3-Pin_13-Pad13)*%
X122550000Y-50760000D03*
%TO.P,J3,14,Pin_14*%
%TO.N,unconnected-(J3-Pin_14-Pad14)*%
X122550000Y-48220000D03*
%TO.P,J3,15,Pin_15*%
%TO.N,unconnected-(J3-Pin_15-Pad15)*%
X122550000Y-45680000D03*
%TO.P,J3,16,Pin_16*%
%TO.N,unconnected-(J3-Pin_16-Pad16)*%
X122550000Y-43140000D03*
%TO.P,J3,17,Pin_17*%
%TO.N,unconnected-(J3-Pin_17-Pad17)*%
X122550000Y-40600000D03*
%TO.P,J3,18,Pin_18*%
%TO.N,midi-out*%
X122550000Y-38060000D03*
%TO.P,J3,19,Pin_19*%
%TO.N,unconnected-(J3-Pin_19-Pad19)*%
X122550000Y-35520000D03*
%TO.P,J3,20,Pin_20*%
%TO.N,unconnected-(J3-Pin_20-Pad20)*%
X122550000Y-32980000D03*
%TD*%
D10*
%TO.P,J1,1,Pin_1*%
%TO.N,unconnected-(J1-Pin_1-Pad1)*%
X145410000Y-81240000D03*
D11*
%TO.P,J1,2,Pin_2*%
%TO.N,unconnected-(J1-Pin_2-Pad2)*%
X145410000Y-78700000D03*
%TO.P,J1,3,Pin_3*%
%TO.N,unconnected-(J1-Pin_3-Pad3)*%
X145410000Y-76160000D03*
%TO.P,J1,4,Pin_4*%
%TO.N,unconnected-(J1-Pin_4-Pad4)*%
X145410000Y-73620000D03*
%TO.P,J1,5,Pin_5*%
%TO.N,unconnected-(J1-Pin_5-Pad5)*%
X145410000Y-71080000D03*
%TO.P,J1,6,Pin_6*%
%TO.N,unconnected-(J1-Pin_6-Pad6)*%
X145410000Y-68540000D03*
%TO.P,J1,7,Pin_7*%
%TO.N,unconnected-(J1-Pin_7-Pad7)*%
X145410000Y-66000000D03*
%TO.P,J1,8,Pin_8*%
%TO.N,btn0*%
X145410000Y-63460000D03*
%TO.P,J1,9,Pin_9*%
%TO.N,down*%
X145410000Y-60920000D03*
%TO.P,J1,10,Pin_10*%
%TO.N,up*%
X145410000Y-58380000D03*
%TO.P,J1,11,Pin_11*%
%TO.N,right*%
X145410000Y-55840000D03*
%TO.P,J1,12,Pin_12*%
%TO.N,left*%
X145410000Y-53300000D03*
%TO.P,J1,13,Pin_13*%
%TO.N,btn1*%
X145410000Y-50760000D03*
%TO.P,J1,14,Pin_14*%
%TO.N,unconnected-(J1-Pin_14-Pad14)*%
X145410000Y-48220000D03*
%TO.P,J1,15,Pin_15*%
%TO.N,unconnected-(J1-Pin_15-Pad15)*%
X145410000Y-45680000D03*
%TO.P,J1,16,Pin_16*%
%TO.N,unconnected-(J1-Pin_16-Pad16)*%
X145410000Y-43140000D03*
%TO.P,J1,17,Pin_17*%
%TO.N,unconnected-(J1-Pin_17-Pad17)*%
X145410000Y-40600000D03*
%TO.P,J1,18,Pin_18*%
%TO.N,unconnected-(J1-Pin_18-Pad18)*%
X145410000Y-38060000D03*
%TO.P,J1,19,Pin_19*%
%TO.N,+3V3*%
X145410000Y-35520000D03*
%TO.P,J1,20,Pin_20*%
%TO.N,GND*%
X145410000Y-32980000D03*
%TD*%
D12*
%TO.P,J2,0,PAD*%
%TO.N,GND*%
X101900000Y-34750000D03*
X101900000Y-59750000D03*
D13*
%TO.P,J2,1,1*%
%TO.N,up*%
X103320000Y-41710000D03*
D14*
%TO.P,J2,2,2*%
%TO.N,down*%
X103320000Y-44480000D03*
%TO.P,J2,3,3*%
%TO.N,left*%
X103320000Y-47250000D03*
%TO.P,J2,4,4*%
%TO.N,right*%
X103320000Y-50020000D03*
%TO.P,J2,5,5*%
%TO.N,unconnected-(J2-Pad5)*%
X103320000Y-52790000D03*
%TO.P,J2,6,6*%
%TO.N,btn0*%
X100480000Y-43095000D03*
%TO.P,J2,7,7*%
%TO.N,+5V*%
X100480000Y-45865000D03*
%TO.P,J2,8,8*%
%TO.N,GND*%
X100480000Y-48635000D03*
%TO.P,J2,9,9*%
%TO.N,btn1*%
X100480000Y-51405000D03*
%TD*%
%TO.P,C1,1*%
%TO.N,+5V*%
X118400000Y-82950000D03*
%TO.P,C1,2*%
%TO.N,GND*%
X113400000Y-82950000D03*
%TD*%
%TO.P,R1,1*%
%TO.N,+3V3*%
X117350000Y-66470000D03*
D15*
%TO.P,R1,2*%
%TO.N,Net-(J5-Pad4)*%
X117350000Y-76630000D03*
%TD*%
D16*
%TO.P,J5,*%
%TO.N,*%
X93202600Y-70798740D03*
X93202600Y-80801260D03*
D17*
%TO.P,J5,1*%
%TO.N,unconnected-(J5-Pad1)*%
X103197500Y-83298080D03*
%TO.P,J5,2*%
%TO.N,GND*%
X103200040Y-75800000D03*
%TO.P,J5,3*%
%TO.N,unconnected-(J5-Pad3)*%
X103197500Y-68301920D03*
%TO.P,J5,4*%
%TO.N,Net-(J5-Pad4)*%
X105699400Y-80796180D03*
%TO.P,J5,5*%
%TO.N,Net-(J5-Pad5)*%
X105699400Y-70803820D03*
%TD*%
D14*
%TO.P,R2,1*%
%TO.N,Net-(J5-Pad5)*%
X115700000Y-59880000D03*
D15*
%TO.P,R2,2*%
%TO.N,midi-out*%
X115700000Y-49720000D03*
%TD*%
D10*
%TO.P,J4,1,Pin_1*%
%TO.N,unconnected-(J4-Pin_1-Pad1)*%
X149800000Y-39160000D03*
D11*
%TO.P,J4,2,Pin_2*%
%TO.N,unconnected-(J4-Pin_2-Pad2)*%
X149800000Y-41700000D03*
%TO.P,J4,3,Pin_3*%
%TO.N,irq*%
X152340000Y-39160000D03*
%TO.P,J4,4,Pin_4*%
%TO.N,unconnected-(J4-Pin_4-Pad4)*%
X152340000Y-41700000D03*
%TO.P,J4,5,Pin_5*%
%TO.N,csn*%
X154880000Y-39160000D03*
%TO.P,J4,6,Pin_6*%
%TO.N,sck*%
X154880000Y-41700000D03*
%TO.P,J4,7,Pin_7*%
%TO.N,miso*%
X157420000Y-39160000D03*
%TO.P,J4,8,Pin_8*%
%TO.N,mosi*%
X157420000Y-41700000D03*
%TO.P,J4,9,Pin_9*%
%TO.N,+5V*%
X159960000Y-39160000D03*
%TO.P,J4,10,Pin_10*%
%TO.N,unconnected-(J4-Pin_10-Pad10)*%
X159960000Y-41700000D03*
%TO.P,J4,11,Pin_11*%
%TO.N,GND*%
X162500000Y-39160000D03*
%TO.P,J4,12,Pin_12*%
X162500000Y-41700000D03*
%TD*%
D18*
%TO.N,down*%
X104186000Y-45535700D03*
X139600000Y-59750000D03*
%TO.N,right*%
X108595000Y-45713300D03*
%TO.N,left*%
X106808000Y-44122300D03*
%TO.N,miso*%
X137854000Y-63827000D03*
%TO.N,mosi*%
X125319000Y-64326000D03*
%TO.N,sck*%
X137946000Y-48271500D03*
%TO.N,+5V*%
X148400000Y-35900000D03*
X120302000Y-79976800D03*
X115100000Y-42050000D03*
%TO.N,Net-(J5-Pad5)*%
X114141000Y-58492100D03*
%TD*%
D19*
%TO.N,+3V3*%
X145698000Y-36671900D02*
X146593000Y-37567200D01*
X145410000Y-35520000D02*
X145410000Y-36671900D01*
X145804000Y-39330000D02*
X143572000Y-39330000D01*
X122169000Y-59648500D02*
X117350000Y-64467400D01*
X117350000Y-64467400D02*
X117350000Y-66470000D01*
X146593000Y-38540800D02*
X145804000Y-39330000D01*
X143572000Y-39330000D02*
X123253000Y-59648500D01*
X145410000Y-36671900D02*
X145698000Y-36671900D01*
X146593000Y-37567200D02*
X146593000Y-38540800D01*
X123253000Y-59648500D02*
X122169000Y-59648500D01*
%TO.N,down*%
X139600000Y-59750000D02*
X140770000Y-60920000D01*
X140770000Y-60920000D02*
X145410000Y-60920000D01*
X103320000Y-44670000D02*
X104186000Y-45535700D01*
%TO.N,right*%
X103320000Y-50020000D02*
X105664000Y-47676300D01*
X106439000Y-45207100D02*
X108089000Y-45207100D01*
X108089000Y-45207100D02*
X108595000Y-45713300D01*
X105664000Y-45982300D02*
X106439000Y-45207100D01*
X105664000Y-47676300D02*
X105664000Y-45982300D01*
%TO.N,left*%
X106448000Y-44122300D02*
X106808000Y-44122300D01*
X103320000Y-47250000D02*
X106448000Y-44122300D01*
%TO.N,btn0*%
X156360000Y-51489900D02*
X161137000Y-46712500D01*
X161137000Y-38645600D02*
X156808000Y-34315800D01*
X156360000Y-51924800D02*
X156360000Y-51489900D01*
X145118000Y-63167500D02*
X156360000Y-51924800D01*
X156808000Y-34315800D02*
X106764000Y-34315800D01*
X100480000Y-40599900D02*
X100480000Y-43095000D01*
X106764000Y-34315800D02*
X100480000Y-40599900D01*
X161137000Y-46712500D02*
X161137000Y-38645600D01*
%TO.N,miso*%
X130601000Y-71080000D02*
X137854000Y-63827000D01*
X122550000Y-71080000D02*
X130601000Y-71080000D01*
%TO.N,mosi*%
X156268000Y-41988000D02*
X154963000Y-43293300D01*
X156268000Y-41700000D02*
X156268000Y-41988000D01*
X154963000Y-43293300D02*
X152029000Y-43293300D01*
X140155000Y-49490000D02*
X125319000Y-64326000D01*
X152029000Y-43293300D02*
X145833000Y-49490000D01*
X145833000Y-49490000D02*
X140155000Y-49490000D01*
X157420000Y-41700000D02*
X156268000Y-41700000D01*
%TO.N,csn*%
X153728000Y-39160000D02*
X153728000Y-39448100D01*
X123702000Y-66000000D02*
X122550000Y-66000000D01*
X154880000Y-39160000D02*
X153728000Y-39160000D01*
X151070000Y-42074300D02*
X146194000Y-46950000D01*
X141769000Y-46950000D02*
X123702000Y-65016700D01*
X146194000Y-46950000D02*
X141769000Y-46950000D01*
X153728000Y-39448100D02*
X152864000Y-40311900D01*
X123702000Y-65016700D02*
X123702000Y-66000000D01*
X152864000Y-40311900D02*
X152040000Y-40311900D01*
X151070000Y-41281600D02*
X151070000Y-42074300D01*
X152040000Y-40311900D02*
X151070000Y-41281600D01*
%TO.N,sck*%
X123702000Y-62515900D02*
X137946000Y-48271500D01*
X123702000Y-63460000D02*
X123702000Y-62515900D01*
X122550000Y-63460000D02*
X123702000Y-63460000D01*
%TO.N,irq*%
X148765000Y-40311900D02*
X150828000Y-40311900D01*
X122550000Y-60920000D02*
X123702000Y-60920000D01*
X150828000Y-40311900D02*
X151188000Y-39952000D01*
X147241000Y-41836000D02*
X148765000Y-40311900D01*
X151188000Y-39952000D02*
X151188000Y-39160000D01*
X142786000Y-41836000D02*
X147241000Y-41836000D01*
X151188000Y-39160000D02*
X152340000Y-39160000D01*
X123702000Y-60920000D02*
X142786000Y-41836000D01*
%TO.N,midi-out*%
X118711000Y-46265400D02*
X118711000Y-40115700D01*
X119575000Y-39251900D02*
X119863000Y-39251900D01*
X121398000Y-38060000D02*
X122550000Y-38060000D01*
X119863000Y-38675900D02*
X120782000Y-38675900D01*
X118711000Y-40115700D02*
X119575000Y-39251900D01*
X118711000Y-46265400D02*
X116358300Y-48618100D01*
X119863000Y-39251900D02*
X119863000Y-38675900D01*
X120782000Y-38675900D02*
X121398000Y-38060000D01*
X116358300Y-48618100D02*
X115700000Y-48618100D01*
X115700000Y-49720000D02*
X115700000Y-48618100D01*
%TO.N,+5V*%
X106562000Y-39658100D02*
X107426000Y-40521900D01*
X113185000Y-45512700D02*
X113185000Y-64002500D01*
X119032000Y-69850000D02*
X120271000Y-69850000D01*
X102734000Y-38915000D02*
X104955000Y-38915000D01*
X112411000Y-44738800D02*
X112411000Y-44738900D01*
X159960000Y-39160000D02*
X156150000Y-35350000D01*
X113185000Y-64002500D02*
X119032000Y-69850000D01*
X121015000Y-70594300D02*
X121015000Y-79264300D01*
X120271000Y-69850000D02*
X121015000Y-70594300D01*
X104955000Y-38915000D02*
X105410000Y-39370000D01*
X101636000Y-44708700D02*
X101636000Y-40012300D01*
X101636000Y-40012300D02*
X102734000Y-38915000D01*
X156150000Y-35350000D02*
X148950000Y-35350000D01*
X121015000Y-79264300D02*
X120302000Y-79976800D01*
X100480000Y-45865000D02*
X101636000Y-44708700D01*
X105410000Y-39370000D02*
X106562000Y-39370000D01*
X112411000Y-44738900D02*
X113185000Y-45512700D01*
X107426000Y-40521900D02*
X108194000Y-40521900D01*
X148950000Y-35350000D02*
X148400000Y-35900000D01*
X115100000Y-42050000D02*
X112411000Y-44738800D01*
X108194000Y-40521900D02*
X112411000Y-44738900D01*
X106562000Y-39370000D02*
X106562000Y-39658100D01*
%TO.N,Net-(J5-Pad5)*%
X114312100Y-58492100D02*
X115700000Y-59880000D01*
X114141000Y-58492100D02*
X114312100Y-58492100D01*
%TD*%
%TA.AperFunction,Conductor*%
%TO.N,GND*%
G36*
X162750000Y-41264498D02*
G01*
X162642315Y-41215320D01*
X162535763Y-41200000D01*
X162464237Y-41200000D01*
X162357685Y-41215320D01*
X162250000Y-41264498D01*
X162250000Y-39595501D01*
X162357685Y-39644680D01*
X162464237Y-39660000D01*
X162535763Y-39660000D01*
X162642315Y-39644680D01*
X162750000Y-39595501D01*
X162750000Y-41264498D01*
G37*
%TD.AperFunction*%
%TA.AperFunction,Conductor*%
G36*
X164542539Y-31000185D02*
G01*
X164588294Y-31052989D01*
X164599500Y-31104500D01*
X164599500Y-85735500D01*
X164579815Y-85802539D01*
X164527011Y-85848294D01*
X164475500Y-85859500D01*
X92064500Y-85859500D01*
X91997461Y-85839815D01*
X91951706Y-85787011D01*
X91940500Y-85735500D01*
X91940500Y-83298084D01*
X101442412Y-83298084D01*
X101462013Y-83559652D01*
X101462014Y-83559657D01*
X101520385Y-83815403D01*
X101616220Y-84059584D01*
X101616219Y-84059584D01*
X101683861Y-84176741D01*
X101747378Y-84286756D01*
X101910929Y-84491843D01*
X102103221Y-84670263D01*
X102319956Y-84818031D01*
X102319961Y-84818033D01*
X102319962Y-84818034D01*
X102319963Y-84818035D01*
X102445481Y-84878480D01*
X102556290Y-84931843D01*
X102556291Y-84931843D01*
X102556294Y-84931845D01*
X102806956Y-85009164D01*
X102806957Y-85009164D01*
X102806960Y-85009165D01*
X103066334Y-85048259D01*
X103066339Y-85048259D01*
X103066342Y-85048260D01*
X103066343Y-85048260D01*
X103328657Y-85048260D01*
X103328658Y-85048260D01*
X103328665Y-85048259D01*
X103588039Y-85009165D01*
X103588040Y-85009164D01*
X103588044Y-85009164D01*
X103838706Y-84931845D01*
X104075044Y-84818031D01*
X104291779Y-84670263D01*
X104484071Y-84491843D01*
X104647622Y-84286756D01*
X104778780Y-84059584D01*
X104832470Y-83922783D01*
X104874614Y-83815403D01*
X104906552Y-83675471D01*
X104932985Y-83559662D01*
X104945213Y-83396496D01*
X104952588Y-83298084D01*
X104952588Y-83298075D01*
X104932986Y-83036507D01*
X104932985Y-83036502D01*
X104932985Y-83036498D01*
X104913243Y-82950002D01*
X112095034Y-82950002D01*
X112114858Y-83176599D01*
X112114860Y-83176610D01*
X112173730Y-83396317D01*
X112173735Y-83396331D01*
X112269863Y-83602478D01*
X112320974Y-83675472D01*
X113002046Y-82994400D01*
X113014835Y-83075148D01*
X113072359Y-83188045D01*
X113161955Y-83277641D01*
X113274852Y-83335165D01*
X113355599Y-83347953D01*
X112674526Y-84029025D01*
X112747513Y-84080132D01*
X112747521Y-84080136D01*
X112953668Y-84176264D01*
X112953682Y-84176269D01*
X113173389Y-84235139D01*
X113173400Y-84235141D01*
X113399998Y-84254966D01*
X113400002Y-84254966D01*
X113626599Y-84235141D01*
X113626610Y-84235139D01*
X113846317Y-84176269D01*
X113846331Y-84176264D01*
X114052478Y-84080136D01*
X114125471Y-84029024D01*
X113444400Y-83347953D01*
X113525148Y-83335165D01*
X113638045Y-83277641D01*
X113727641Y-83188045D01*
X113785165Y-83075148D01*
X113797953Y-82994400D01*
X114479024Y-83675471D01*
X114530136Y-83602478D01*
X114626264Y-83396331D01*
X114626269Y-83396317D01*
X114685139Y-83176610D01*
X114685141Y-83176599D01*
X114704966Y-82950002D01*
X114704966Y-82950001D01*
X117094532Y-82950001D01*
X117114364Y-83176686D01*
X117114366Y-83176697D01*
X117173258Y-83396488D01*
X117173261Y-83396497D01*
X117269431Y-83602732D01*
X117269432Y-83602734D01*
X117399954Y-83789141D01*
X117560858Y-83950045D01*
X117560861Y-83950047D01*
X117747266Y-84080568D01*
X117953504Y-84176739D01*
X118173308Y-84235635D01*
X118335230Y-84249801D01*
X118399998Y-84255468D01*
X118400000Y-84255468D01*
X118400002Y-84255468D01*
X118456673Y-84250509D01*
X118626692Y-84235635D01*
X118846496Y-84176739D01*
X119052734Y-84080568D01*
X119239139Y-83950047D01*
X119400047Y-83789139D01*
X119530568Y-83602734D01*
X119626739Y-83396496D01*
X119685635Y-83176692D01*
X119705468Y-82950000D01*
X119685635Y-82723308D01*
X119627747Y-82507265D01*
X119626741Y-82503511D01*
X119626738Y-82503502D01*
X119608171Y-82463686D01*
X119530568Y-82297266D01*
X119400047Y-82110861D01*
X119400045Y-82110858D01*
X119239141Y-81949954D01*
X119052734Y-81819432D01*
X119052732Y-81819431D01*
X118846497Y-81723261D01*
X118846488Y-81723258D01*
X118626697Y-81664366D01*
X118626693Y-81664365D01*
X118626692Y-81664365D01*
X118626691Y-81664364D01*
X118626686Y-81664364D01*
X118400002Y-81644532D01*
X118399998Y-81644532D01*
X118173313Y-81664364D01*
X118173302Y-81664366D01*
X117953511Y-81723258D01*
X117953502Y-81723261D01*
X117747267Y-81819431D01*
X117747265Y-81819432D01*
X117560858Y-81949954D01*
X117399954Y-82110858D01*
X117269432Y-82297265D01*
X117269431Y-82297267D01*
X117173261Y-82503502D01*
X117173258Y-82503511D01*
X117114366Y-82723302D01*
X117114364Y-82723313D01*
X117094532Y-82949998D01*
X117094532Y-82950001D01*
X114704966Y-82950001D01*
X114704966Y-82949997D01*
X114685141Y-82723400D01*
X114685139Y-82723389D01*
X114626269Y-82503682D01*
X114626264Y-82503668D01*
X114530136Y-82297521D01*
X114530132Y-82297513D01*
X114479025Y-82224526D01*
X113797953Y-82905598D01*
X113785165Y-82824852D01*
X113727641Y-82711955D01*
X113638045Y-82622359D01*
X113525148Y-82564835D01*
X113444401Y-82552046D01*
X114125472Y-81870974D01*
X114052478Y-81819863D01*
X113846331Y-81723735D01*
X113846317Y-81723730D01*
X113626610Y-81664860D01*
X113626599Y-81664858D01*
X113400002Y-81645034D01*
X113399998Y-81645034D01*
X113173400Y-81664858D01*
X113173389Y-81664860D01*
X112953682Y-81723730D01*
X112953673Y-81723734D01*
X112747516Y-81819866D01*
X112747512Y-81819868D01*
X112674526Y-81870973D01*
X112674526Y-81870974D01*
X113355599Y-82552046D01*
X113274852Y-82564835D01*
X113161955Y-82622359D01*
X113072359Y-82711955D01*
X113014835Y-82824852D01*
X113002046Y-82905598D01*
X112320974Y-82224526D01*
X112320973Y-82224526D01*
X112269868Y-82297512D01*
X112269866Y-82297516D01*
X112173734Y-82503673D01*
X112173730Y-82503682D01*
X112114860Y-82723389D01*
X112114858Y-82723400D01*
X112095034Y-82949997D01*
X112095034Y-82950002D01*
X104913243Y-82950002D01*
X104884678Y-82824852D01*
X104874614Y-82780756D01*
X104782620Y-82546360D01*
X104778780Y-82536576D01*
X104778779Y-82536574D01*
X104777487Y-82533282D01*
X104771318Y-82463686D01*
X104803756Y-82401802D01*
X104864501Y-82367279D01*
X104934267Y-82371078D01*
X104946706Y-82376255D01*
X105058194Y-82429945D01*
X105308856Y-82507264D01*
X105308857Y-82507264D01*
X105308860Y-82507265D01*
X105568234Y-82546359D01*
X105568239Y-82546359D01*
X105568242Y-82546360D01*
X105568243Y-82546360D01*
X105830557Y-82546360D01*
X105830558Y-82546360D01*
X105830565Y-82546359D01*
X106089939Y-82507265D01*
X106089940Y-82507264D01*
X106089944Y-82507264D01*
X106340606Y-82429945D01*
X106543304Y-82332331D01*
X106576936Y-82316135D01*
X106576936Y-82316134D01*
X106576944Y-82316131D01*
X106793679Y-82168363D01*
X106985971Y-81989943D01*
X107149522Y-81784856D01*
X107280680Y-81557684D01*
X107334370Y-81420883D01*
X107376514Y-81313503D01*
X107393191Y-81240432D01*
X107434885Y-81057762D01*
X107454107Y-80801264D01*
X107454488Y-80796184D01*
X107454488Y-80796175D01*
X107434886Y-80534607D01*
X107434885Y-80534602D01*
X107434885Y-80534598D01*
X107401530Y-80388461D01*
X107376514Y-80278856D01*
X107313298Y-80117785D01*
X107280680Y-80034676D01*
X107280679Y-80034675D01*
X107280680Y-80034675D01*
X107229599Y-79946202D01*
X107149522Y-79807504D01*
X106985971Y-79602417D01*
X106793679Y-79423997D01*
X106576944Y-79276229D01*
X106576940Y-79276227D01*
X106576937Y-79276225D01*
X106576936Y-79276224D01*
X106343200Y-79163664D01*
X106340608Y-79162416D01*
X106340610Y-79162416D01*
X106089945Y-79085096D01*
X106089939Y-79085094D01*
X105830565Y-79046000D01*
X105830558Y-79046000D01*
X105568242Y-79046000D01*
X105568234Y-79046000D01*
X105308860Y-79085094D01*
X105308854Y-79085096D01*
X105058190Y-79162416D01*
X104821863Y-79276224D01*
X104821862Y-79276225D01*
X104605120Y-79423997D01*
X104412831Y-79602415D01*
X104412829Y-79602417D01*
X104249278Y-79807504D01*
X104118120Y-80034675D01*
X104022285Y-80278856D01*
X103963914Y-80534602D01*
X103963913Y-80534607D01*
X103944312Y-80796175D01*
X103944312Y-80796184D01*
X103963913Y-81057752D01*
X103963914Y-81057757D01*
X103963914Y-81057761D01*
X103963915Y-81057762D01*
X103969073Y-81080362D01*
X104022285Y-81313503D01*
X104119412Y-81560977D01*
X104125581Y-81630574D01*
X104093143Y-81692457D01*
X104032398Y-81726980D01*
X103962632Y-81723181D01*
X103950183Y-81717999D01*
X103839838Y-81664860D01*
X103838708Y-81664316D01*
X103838710Y-81664316D01*
X103588045Y-81586996D01*
X103588039Y-81586994D01*
X103328665Y-81547900D01*
X103328658Y-81547900D01*
X103066342Y-81547900D01*
X103066334Y-81547900D01*
X102806960Y-81586994D01*
X102806954Y-81586996D01*
X102556290Y-81664316D01*
X102319963Y-81778124D01*
X102319962Y-81778125D01*
X102103220Y-81925897D01*
X101910931Y-82104315D01*
X101910929Y-82104317D01*
X101747378Y-82309404D01*
X101616220Y-82536575D01*
X101520385Y-82780756D01*
X101462014Y-83036502D01*
X101462013Y-83036507D01*
X101442412Y-83298075D01*
X101442412Y-83298084D01*
X91940500Y-83298084D01*
X91940500Y-82293643D01*
X91960185Y-82226604D01*
X92012989Y-82180849D01*
X92082147Y-82170905D01*
X92134349Y-82191189D01*
X92325056Y-82321211D01*
X92325060Y-82321212D01*
X92325063Y-82321215D01*
X92428606Y-82371078D01*
X92561390Y-82435023D01*
X92561391Y-82435023D01*
X92561394Y-82435025D01*
X92812056Y-82512344D01*
X92812057Y-82512344D01*
X92812060Y-82512345D01*
X93071434Y-82551439D01*
X93071439Y-82551439D01*
X93071442Y-82551440D01*
X93071443Y-82551440D01*
X93333757Y-82551440D01*
X93333758Y-82551440D01*
X93367462Y-82546360D01*
X93593139Y-82512345D01*
X93593140Y-82512344D01*
X93593144Y-82512344D01*
X93843806Y-82435025D01*
X94080144Y-82321211D01*
X94296879Y-82173443D01*
X94489171Y-81995023D01*
X94652722Y-81789936D01*
X94783880Y-81562764D01*
X94837570Y-81425963D01*
X94879714Y-81318583D01*
X94896391Y-81245512D01*
X94938085Y-81062842D01*
X94938466Y-81057757D01*
X94957688Y-80801264D01*
X94957688Y-80801255D01*
X94938086Y-80539687D01*
X94938085Y-80539682D01*
X94938085Y-80539678D01*
X94892996Y-80342129D01*
X94879714Y-80283936D01*
X94816498Y-80122865D01*
X94783880Y-80039756D01*
X94783879Y-80039755D01*
X94783880Y-80039755D01*
X94729866Y-79946202D01*
X94652722Y-79812584D01*
X94489171Y-79607497D01*
X94296879Y-79429077D01*
X94080144Y-79281309D01*
X94080140Y-79281307D01*
X94080137Y-79281305D01*
X94080136Y-79281304D01*
X93843808Y-79167496D01*
X93843810Y-79167496D01*
X93593145Y-79090176D01*
X93593139Y-79090174D01*
X93333765Y-79051080D01*
X93333758Y-79051080D01*
X93071442Y-79051080D01*
X93071434Y-79051080D01*
X92812060Y-79090174D01*
X92812054Y-79090176D01*
X92561390Y-79167496D01*
X92325063Y-79281304D01*
X92325062Y-79281305D01*
X92325056Y-79281308D01*
X92325056Y-79281309D01*
X92134350Y-79411330D01*
X92067872Y-79432830D01*
X92000322Y-79414976D01*
X91953148Y-79363436D01*
X91940500Y-79308876D01*
X91940500Y-75800004D01*
X101445454Y-75800004D01*
X101465050Y-76061504D01*
X101523402Y-76317161D01*
X101523405Y-76317173D01*
X101619214Y-76561288D01*
X101750335Y-76788396D01*
X101798141Y-76848344D01*
X102561010Y-76085475D01*
X102620964Y-76199707D01*
X102733447Y-76326675D01*
X102873047Y-76423033D01*
X102914745Y-76438847D01*
X102151101Y-77202490D01*
X102322746Y-77319515D01*
X102322754Y-77319520D01*
X102559015Y-77433296D01*
X102559013Y-77433296D01*
X102809599Y-77510592D01*
X102809605Y-77510593D01*
X103068914Y-77549679D01*
X103068921Y-77549680D01*
X103331159Y-77549680D01*
X103331165Y-77549679D01*
X103590474Y-77510593D01*
X103590480Y-77510592D01*
X103841065Y-77433296D01*
X104077325Y-77319520D01*
X104077326Y-77319519D01*
X104248977Y-77202490D01*
X103485334Y-76438847D01*
X103527033Y-76423033D01*
X103666633Y-76326675D01*
X103779116Y-76199707D01*
X103839068Y-76085476D01*
X104601936Y-76848344D01*
X104601937Y-76848343D01*
X104649740Y-76788402D01*
X104649747Y-76788391D01*
X104741194Y-76630001D01*
X116044532Y-76630001D01*
X116064364Y-76856686D01*
X116064366Y-76856697D01*
X116123258Y-77076488D01*
X116123261Y-77076497D01*
X116219431Y-77282732D01*
X116219432Y-77282734D01*
X116349954Y-77469141D01*
X116510858Y-77630045D01*
X116510861Y-77630047D01*
X116697266Y-77760568D01*
X116903504Y-77856739D01*
X117123308Y-77915635D01*
X117285230Y-77929801D01*
X117349998Y-77935468D01*
X117350000Y-77935468D01*
X117350002Y-77935468D01*
X117406673Y-77930509D01*
X117576692Y-77915635D01*
X117796496Y-77856739D01*
X118002734Y-77760568D01*
X118189139Y-77630047D01*
X118350047Y-77469139D01*
X118480568Y-77282734D01*
X118576739Y-77076496D01*
X118635635Y-76856692D01*
X118655468Y-76630000D01*
X118635635Y-76403308D01*
X118576739Y-76183504D01*
X118480568Y-75977266D01*
X118356446Y-75800000D01*
X118350045Y-75790858D01*
X118189141Y-75629954D01*
X118002734Y-75499432D01*
X118002732Y-75499431D01*
X117796497Y-75403261D01*
X117796488Y-75403258D01*
X117576697Y-75344366D01*
X117576693Y-75344365D01*
X117576692Y-75344365D01*
X117576691Y-75344364D01*
X117576686Y-75344364D01*
X117350002Y-75324532D01*
X117349998Y-75324532D01*
X117123313Y-75344364D01*
X117123302Y-75344366D01*
X116903511Y-75403258D01*
X116903502Y-75403261D01*
X116697267Y-75499431D01*
X116697265Y-75499432D01*
X116510858Y-75629954D01*
X116349954Y-75790858D01*
X116219432Y-75977265D01*
X116219431Y-75977267D01*
X116123261Y-76183502D01*
X116123258Y-76183511D01*
X116064366Y-76403302D01*
X116064364Y-76403313D01*
X116044532Y-76629998D01*
X116044532Y-76630001D01*
X104741194Y-76630001D01*
X104780865Y-76561288D01*
X104876674Y-76317173D01*
X104876677Y-76317161D01*
X104935029Y-76061504D01*
X104954626Y-75800004D01*
X104954626Y-75799995D01*
X104935029Y-75538495D01*
X104876677Y-75282838D01*
X104876674Y-75282826D01*
X104780865Y-75038711D01*
X104649744Y-74811603D01*
X104601937Y-74751654D01*
X103839068Y-75514523D01*
X103779116Y-75400293D01*
X103666633Y-75273325D01*
X103527033Y-75176967D01*
X103485334Y-75161152D01*
X104248977Y-74397508D01*
X104077333Y-74280484D01*
X104077325Y-74280479D01*
X103841064Y-74166703D01*
X103841066Y-74166703D01*
X103590480Y-74089407D01*
X103590474Y-74089406D01*
X103331165Y-74050320D01*
X103068914Y-74050320D01*
X102809605Y-74089406D01*
X102809599Y-74089407D01*
X102559014Y-74166703D01*
X102322752Y-74280481D01*
X102322739Y-74280488D01*
X102151101Y-74397507D01*
X102914746Y-75161152D01*
X102873047Y-75176967D01*
X102733447Y-75273325D01*
X102620964Y-75400293D01*
X102561010Y-75514523D01*
X101798142Y-74751655D01*
X101750333Y-74811606D01*
X101619214Y-75038711D01*
X101523405Y-75282826D01*
X101523402Y-75282838D01*
X101465050Y-75538495D01*
X101445454Y-75799995D01*
X101445454Y-75800004D01*
X91940500Y-75800004D01*
X91940500Y-72291123D01*
X91960185Y-72224084D01*
X92012989Y-72178329D01*
X92082147Y-72168385D01*
X92134349Y-72188669D01*
X92325056Y-72318691D01*
X92325060Y-72318692D01*
X92325063Y-72318695D01*
X92436792Y-72372500D01*
X92561390Y-72432503D01*
X92561391Y-72432503D01*
X92561394Y-72432505D01*
X92812056Y-72509824D01*
X92812057Y-72509824D01*
X92812060Y-72509825D01*
X93071434Y-72548919D01*
X93071439Y-72548919D01*
X93071442Y-72548920D01*
X93071443Y-72548920D01*
X93333757Y-72548920D01*
X93333758Y-72548920D01*
X93333765Y-72548919D01*
X93593139Y-72509825D01*
X93593140Y-72509824D01*
X93593144Y-72509824D01*
X93843806Y-72432505D01*
X94080144Y-72318691D01*
X94296879Y-72170923D01*
X94489171Y-71992503D01*
X94652722Y-71787416D01*
X94783880Y-71560244D01*
X94837570Y-71423443D01*
X94879714Y-71316063D01*
X94896391Y-71242992D01*
X94938085Y-71060322D01*
X94950526Y-70894312D01*
X94957688Y-70798744D01*
X94957688Y-70798735D01*
X94938086Y-70537167D01*
X94938085Y-70537162D01*
X94938085Y-70537158D01*
X94900972Y-70374555D01*
X94879714Y-70281416D01*
X94816498Y-70120345D01*
X94783880Y-70037236D01*
X94783879Y-70037235D01*
X94783880Y-70037235D01*
X94711329Y-69911575D01*
X94652722Y-69810064D01*
X94489171Y-69604977D01*
X94296879Y-69426557D01*
X94080144Y-69278789D01*
X94080140Y-69278787D01*
X94080137Y-69278785D01*
X94080136Y-69278784D01*
X93843808Y-69164976D01*
X93843810Y-69164976D01*
X93593145Y-69087656D01*
X93593139Y-69087654D01*
X93333765Y-69048560D01*
X93333758Y-69048560D01*
X93071442Y-69048560D01*
X93071434Y-69048560D01*
X92812060Y-69087654D01*
X92812054Y-69087656D01*
X92561390Y-69164976D01*
X92325063Y-69278784D01*
X92325062Y-69278785D01*
X92325056Y-69278788D01*
X92325056Y-69278789D01*
X92134350Y-69408810D01*
X92067872Y-69430310D01*
X92000322Y-69412456D01*
X91953148Y-69360916D01*
X91940500Y-69306356D01*
X91940500Y-68301924D01*
X101442412Y-68301924D01*
X101462013Y-68563492D01*
X101462014Y-68563497D01*
X101520385Y-68819243D01*
X101616220Y-69063424D01*
X101616219Y-69063424D01*
X101677784Y-69170056D01*
X101747378Y-69290596D01*
X101910929Y-69495683D01*
X102103221Y-69674103D01*
X102319956Y-69821871D01*
X102319961Y-69821873D01*
X102319962Y-69821874D01*
X102319963Y-69821875D01*
X102392898Y-69856998D01*
X102556290Y-69935683D01*
X102556291Y-69935683D01*
X102556294Y-69935685D01*
X102806956Y-70013004D01*
X102806957Y-70013004D01*
X102806960Y-70013005D01*
X103066334Y-70052099D01*
X103066339Y-70052099D01*
X103066342Y-70052100D01*
X103066343Y-70052100D01*
X103328657Y-70052100D01*
X103328658Y-70052100D01*
X103328665Y-70052099D01*
X103588039Y-70013005D01*
X103588040Y-70013004D01*
X103588044Y-70013004D01*
X103838706Y-69935685D01*
X103950185Y-69881999D01*
X104019123Y-69870648D01*
X104083258Y-69898370D01*
X104122224Y-69956365D01*
X104123649Y-70026220D01*
X104119412Y-70039022D01*
X104022285Y-70286496D01*
X103963914Y-70542242D01*
X103963913Y-70542247D01*
X103944312Y-70803815D01*
X103944312Y-70803824D01*
X103963913Y-71065392D01*
X103963914Y-71065397D01*
X104022285Y-71321143D01*
X104118120Y-71565324D01*
X104118119Y-71565324D01*
X104187609Y-71685682D01*
X104249278Y-71792496D01*
X104412829Y-71997583D01*
X104605121Y-72176003D01*
X104821856Y-72323771D01*
X104821861Y-72323773D01*
X104821862Y-72323774D01*
X104821863Y-72323775D01*
X104876321Y-72350000D01*
X105058190Y-72437583D01*
X105058191Y-72437583D01*
X105058194Y-72437585D01*
X105308856Y-72514904D01*
X105308857Y-72514904D01*
X105308860Y-72514905D01*
X105568234Y-72553999D01*
X105568239Y-72553999D01*
X105568242Y-72554000D01*
X105568243Y-72554000D01*
X105830557Y-72554000D01*
X105830558Y-72554000D01*
X105864262Y-72548920D01*
X106089939Y-72514905D01*
X106089940Y-72514904D01*
X106089944Y-72514904D01*
X106340606Y-72437585D01*
X106576944Y-72323771D01*
X106793679Y-72176003D01*
X106985971Y-71997583D01*
X107149522Y-71792496D01*
X107280680Y-71565324D01*
X107334370Y-71428523D01*
X107376514Y-71321143D01*
X107393191Y-71248072D01*
X107434885Y-71065402D01*
X107435266Y-71060317D01*
X107454488Y-70803824D01*
X107454488Y-70803815D01*
X107434886Y-70542247D01*
X107434885Y-70542242D01*
X107434885Y-70542238D01*
X107401530Y-70396101D01*
X107376514Y-70286496D01*
X107313298Y-70125425D01*
X107280680Y-70042316D01*
X107280679Y-70042315D01*
X107280680Y-70042315D01*
X107219115Y-69935683D01*
X107149522Y-69815144D01*
X106985971Y-69610057D01*
X106793679Y-69431637D01*
X106576944Y-69283869D01*
X106576940Y-69283867D01*
X106576937Y-69283865D01*
X106576936Y-69283864D01*
X106340608Y-69170056D01*
X106340610Y-69170056D01*
X106089945Y-69092736D01*
X106089939Y-69092734D01*
X105830565Y-69053640D01*
X105830558Y-69053640D01*
X105568242Y-69053640D01*
X105568234Y-69053640D01*
X105308860Y-69092734D01*
X105308854Y-69092736D01*
X105058196Y-69170054D01*
X105058194Y-69170055D01*
X104980713Y-69207368D01*
X104946716Y-69223740D01*
X104877774Y-69235091D01*
X104813640Y-69207368D01*
X104774675Y-69149373D01*
X104773250Y-69079518D01*
X104777487Y-69066716D01*
X104778776Y-69063429D01*
X104778780Y-69063424D01*
X104874614Y-68819241D01*
X104932985Y-68563502D01*
X104934746Y-68540000D01*
X104952588Y-68301924D01*
X104952588Y-68301915D01*
X104932986Y-68040347D01*
X104932985Y-68040342D01*
X104932985Y-68040338D01*
X104899630Y-67894201D01*
X104874614Y-67784596D01*
X104811398Y-67623525D01*
X104778780Y-67540416D01*
X104778779Y-67540415D01*
X104778780Y-67540415D01*
X104681299Y-67371575D01*
X104647622Y-67313244D01*
X104484071Y-67108157D01*
X104291779Y-66929737D01*
X104075044Y-66781969D01*
X104075040Y-66781967D01*
X104075037Y-66781965D01*
X104075036Y-66781964D01*
X103838708Y-66668156D01*
X103838710Y-66668156D01*
X103588045Y-66590836D01*
X103588039Y-66590834D01*
X103328665Y-66551740D01*
X103328658Y-66551740D01*
X103066342Y-66551740D01*
X103066334Y-66551740D01*
X102806960Y-66590834D01*
X102806954Y-66590836D01*
X102556290Y-66668156D01*
X102319963Y-66781964D01*
X102319962Y-66781965D01*
X102103220Y-66929737D01*
X101910931Y-67108155D01*
X101910929Y-67108157D01*
X101747378Y-67313244D01*
X101616220Y-67540415D01*
X101520385Y-67784596D01*
X101462014Y-68040342D01*
X101462013Y-68040347D01*
X101442412Y-68301915D01*
X101442412Y-68301924D01*
X91940500Y-68301924D01*
X91940500Y-59750005D01*
X99395057Y-59750005D01*
X99414807Y-60063942D01*
X99414808Y-60063949D01*
X99473755Y-60372958D01*
X99570963Y-60672132D01*
X99570965Y-60672137D01*
X99704900Y-60956761D01*
X99704903Y-60956767D01*
X99873457Y-61222367D01*
X99873460Y-61222371D01*
X99964286Y-61332160D01*
X100602266Y-60694180D01*
X100765130Y-60884870D01*
X100955818Y-61047732D01*
X100314971Y-61688579D01*
X100314972Y-61688581D01*
X100557772Y-61864985D01*
X100557790Y-61864996D01*
X100833447Y-62016540D01*
X100833455Y-62016544D01*
X101125926Y-62132340D01*
X101430620Y-62210573D01*
X101430629Y-62210575D01*
X101742701Y-62249999D01*
X101742715Y-62250000D01*
X102057285Y-62250000D01*
X102057298Y-62249999D01*
X102369370Y-62210575D01*
X102369379Y-62210573D01*
X102674073Y-62132340D01*
X102966544Y-62016544D01*
X102966552Y-62016540D01*
X103242209Y-61864996D01*
X103242219Y-61864990D01*
X103485026Y-61688579D01*
X103485027Y-61688579D01*
X102844180Y-61047733D01*
X103034870Y-60884870D01*
X103197733Y-60694181D01*
X103835712Y-61332160D01*
X103926544Y-61222364D01*
X104095096Y-60956767D01*
X104095099Y-60956761D01*
X104229034Y-60672137D01*
X104229036Y-60672132D01*
X104326244Y-60372958D01*
X104385191Y-60063949D01*
X104385192Y-60063942D01*
X104404943Y-59750005D01*
X104404943Y-59749994D01*
X104385192Y-59436057D01*
X104385191Y-59436050D01*
X104326244Y-59127041D01*
X104229036Y-58827867D01*
X104229034Y-58827862D01*
X104095099Y-58543238D01*
X104095096Y-58543232D01*
X103926542Y-58277632D01*
X103926539Y-58277628D01*
X103835712Y-58167838D01*
X103197732Y-58805818D01*
X103034870Y-58615130D01*
X102844180Y-58452266D01*
X103485027Y-57811419D01*
X103485026Y-57811417D01*
X103242227Y-57635014D01*
X103242209Y-57635003D01*
X102966552Y-57483459D01*
X102966544Y-57483455D01*
X102674073Y-57367659D01*
X102369379Y-57289426D01*
X102369370Y-57289424D01*
X102057298Y-57250000D01*
X101742701Y-57250000D01*
X101430629Y-57289424D01*
X101430620Y-57289426D01*
X101125926Y-57367659D01*
X100833455Y-57483455D01*
X100833447Y-57483459D01*
X100557787Y-57635004D01*
X100557782Y-57635007D01*
X100314972Y-57811418D01*
X100314971Y-57811419D01*
X100955819Y-58452266D01*
X100765130Y-58615130D01*
X100602266Y-58805818D01*
X99964286Y-58167838D01*
X99964285Y-58167838D01*
X99873459Y-58277629D01*
X99873457Y-58277632D01*
X99704903Y-58543232D01*
X99704900Y-58543238D01*
X99570965Y-58827862D01*
X99570963Y-58827867D01*
X99473755Y-59127041D01*
X99414808Y-59436050D01*
X99414807Y-59436057D01*
X99395057Y-59749994D01*
X99395057Y-59750005D01*
X91940500Y-59750005D01*
X91940500Y-51405001D01*
X99174532Y-51405001D01*
X99194364Y-51631686D01*
X99194366Y-51631697D01*
X99253258Y-51851488D01*
X99253261Y-51851497D01*
X99349431Y-52057732D01*
X99349432Y-52057734D01*
X99479954Y-52244141D01*
X99640858Y-52405045D01*
X99640861Y-52405047D01*
X99827266Y-52535568D01*
X100033504Y-52631739D01*
X100253308Y-52690635D01*
X100415230Y-52704801D01*
X100479998Y-52710468D01*
X100480000Y-52710468D01*
X100480002Y-52710468D01*
X100536673Y-52705509D01*
X100706692Y-52690635D01*
X100926496Y-52631739D01*
X101132734Y-52535568D01*
X101319139Y-52405047D01*
X101480047Y-52244139D01*
X101610568Y-52057734D01*
X101706739Y-51851496D01*
X101765635Y-51631692D01*
X101785468Y-51405000D01*
X101781197Y-51356188D01*
X101769602Y-51223655D01*
X101765635Y-51178308D01*
X101706739Y-50958504D01*
X101610568Y-50752266D01*
X101480047Y-50565861D01*
X101480045Y-50565858D01*
X101319141Y-50404954D01*
X101132734Y-50274432D01*
X101132732Y-50274431D01*
X100926497Y-50178261D01*
X100926488Y-50178258D01*
X100781898Y-50139516D01*
X100722237Y-50103151D01*
X100691708Y-50040304D01*
X100700003Y-49970929D01*
X100744488Y-49917051D01*
X100781898Y-49899966D01*
X100926317Y-49861269D01*
X100926331Y-49861264D01*
X101132478Y-49765136D01*
X101205471Y-49714024D01*
X100612533Y-49121086D01*
X100622315Y-49119680D01*
X100753100Y-49059952D01*
X100861761Y-48965798D01*
X100939493Y-48844844D01*
X100963076Y-48764523D01*
X101559024Y-49360471D01*
X101610136Y-49287478D01*
X101706264Y-49081331D01*
X101706269Y-49081317D01*
X101765139Y-48861610D01*
X101765141Y-48861599D01*
X101784966Y-48635002D01*
X101784966Y-48634997D01*
X101765141Y-48408400D01*
X101765139Y-48408389D01*
X101706269Y-48188682D01*
X101706264Y-48188668D01*
X101610136Y-47982521D01*
X101610132Y-47982513D01*
X101559025Y-47909526D01*
X100963076Y-48505475D01*
X100939493Y-48425156D01*
X100861761Y-48304202D01*
X100753100Y-48210048D01*
X100622315Y-48150320D01*
X100612533Y-48148913D01*
X101205472Y-47555974D01*
X101132478Y-47504863D01*
X100926331Y-47408735D01*
X100926319Y-47408731D01*
X100781897Y-47370033D01*
X100722237Y-47333668D01*
X100691708Y-47270821D01*
X100700003Y-47201445D01*
X100744488Y-47147567D01*
X100781894Y-47130484D01*
X100926496Y-47091739D01*
X101132734Y-46995568D01*
X101319139Y-46865047D01*
X101480047Y-46704139D01*
X101610568Y-46517734D01*
X101706739Y-46311496D01*
X101765635Y-46091692D01*
X101785468Y-45865000D01*
X101765635Y-45638308D01*
X101739800Y-45541890D01*
X101741463Y-45472042D01*
X101771880Y-45422130D01*
X102027073Y-45166871D01*
X102039279Y-45156167D01*
X102044865Y-45151881D01*
X102110035Y-45126689D01*
X102178479Y-45140729D01*
X102221922Y-45179135D01*
X102245121Y-45212267D01*
X102319954Y-45319141D01*
X102480858Y-45480045D01*
X102480861Y-45480047D01*
X102667266Y-45610568D01*
X102873504Y-45706739D01*
X102873509Y-45706740D01*
X102873511Y-45706741D01*
X103017136Y-45745225D01*
X103076797Y-45781590D01*
X103107326Y-45844437D01*
X103099031Y-45913812D01*
X103054546Y-45967690D01*
X103017136Y-45984775D01*
X102873511Y-46023258D01*
X102873502Y-46023261D01*
X102667267Y-46119431D01*
X102667265Y-46119432D01*
X102480858Y-46249954D01*
X102319954Y-46410858D01*
X102189432Y-46597265D01*
X102189431Y-46597267D01*
X102093261Y-46803502D01*
X102093258Y-46803511D01*
X102034366Y-47023302D01*
X102034364Y-47023313D01*
X102014532Y-47249998D01*
X102014532Y-47250001D01*
X102034364Y-47476686D01*
X102034366Y-47476697D01*
X102093258Y-47696488D01*
X102093261Y-47696497D01*
X102189431Y-47902732D01*
X102189432Y-47902734D01*
X102319954Y-48089141D01*
X102480858Y-48250045D01*
X102480861Y-48250047D01*
X102667266Y-48380568D01*
X102873504Y-48476739D01*
X102873509Y-48476740D01*
X102873511Y-48476741D01*
X103017136Y-48515225D01*
X103076797Y-48551590D01*
X103107326Y-48614437D01*
X103099031Y-48683812D01*
X103054546Y-48737690D01*
X103017136Y-48754775D01*
X102873511Y-48793258D01*
X102873502Y-48793261D01*
X102667267Y-48889431D01*
X102667265Y-48889432D01*
X102480858Y-49019954D01*
X102319954Y-49180858D01*
X102189432Y-49367265D01*
X102189431Y-49367267D01*
X102093261Y-49573502D01*
X102093258Y-49573511D01*
X102034366Y-49793302D01*
X102034364Y-49793313D01*
X102014532Y-50019998D01*
X102014532Y-50020001D01*
X102034364Y-50246686D01*
X102034366Y-50246697D01*
X102093258Y-50466488D01*
X102093261Y-50466497D01*
X102189431Y-50672732D01*
X102189432Y-50672734D01*
X102319954Y-50859141D01*
X102480858Y-51020045D01*
X102480861Y-51020047D01*
X102667266Y-51150568D01*
X102873504Y-51246739D01*
X102873509Y-51246740D01*
X102873511Y-51246741D01*
X103017136Y-51285225D01*
X103076797Y-51321590D01*
X103107326Y-51384437D01*
X103099031Y-51453812D01*
X103054546Y-51507690D01*
X103017136Y-51524775D01*
X102873511Y-51563258D01*
X102873502Y-51563261D01*
X102667267Y-51659431D01*
X102667265Y-51659432D01*
X102480858Y-51789954D01*
X102319954Y-51950858D01*
X102189432Y-52137265D01*
X102189431Y-52137267D01*
X102093261Y-52343502D01*
X102093258Y-52343511D01*
X102034366Y-52563302D01*
X102034364Y-52563313D01*
X102014532Y-52789998D01*
X102014532Y-52790001D01*
X102034364Y-53016686D01*
X102034366Y-53016697D01*
X102093258Y-53236488D01*
X102093261Y-53236497D01*
X102189431Y-53442732D01*
X102189432Y-53442734D01*
X102319954Y-53629141D01*
X102480858Y-53790045D01*
X102480861Y-53790047D01*
X102667266Y-53920568D01*
X102873504Y-54016739D01*
X103093308Y-54075635D01*
X103255230Y-54089801D01*
X103319998Y-54095468D01*
X103320000Y-54095468D01*
X103320002Y-54095468D01*
X103376673Y-54090509D01*
X103546692Y-54075635D01*
X103766496Y-54016739D01*
X103972734Y-53920568D01*
X104159139Y-53790047D01*
X104320047Y-53629139D01*
X104450568Y-53442734D01*
X104546739Y-53236496D01*
X104605635Y-53016692D01*
X104625468Y-52790000D01*
X104605635Y-52563308D01*
X104554453Y-52372292D01*
X104546741Y-52343511D01*
X104546738Y-52343502D01*
X104508502Y-52261505D01*
X104450568Y-52137266D01*
X104329353Y-51964152D01*
X104320045Y-51950858D01*
X104159141Y-51789954D01*
X103972734Y-51659432D01*
X103972732Y-51659431D01*
X103766497Y-51563261D01*
X103766488Y-51563258D01*
X103639650Y-51529273D01*
X103622862Y-51524774D01*
X103563202Y-51488410D01*
X103532673Y-51425563D01*
X103540968Y-51356188D01*
X103585453Y-51302310D01*
X103622862Y-51285225D01*
X103766496Y-51246739D01*
X103972734Y-51150568D01*
X104159139Y-51020047D01*
X104320047Y-50859139D01*
X104450568Y-50672734D01*
X104546739Y-50466496D01*
X104605635Y-50246692D01*
X104625468Y-50020000D01*
X104605635Y-49793308D01*
X104579870Y-49697152D01*
X104581533Y-49627305D01*
X104611966Y-49577377D01*
X106055031Y-48134497D01*
X106067207Y-48123821D01*
X106092282Y-48104582D01*
X106147166Y-48033056D01*
X106187612Y-47980353D01*
X106188523Y-47979199D01*
X106188527Y-47979190D01*
X106188914Y-47978227D01*
X106220183Y-47902740D01*
X106220185Y-47902736D01*
X106247972Y-47835663D01*
X106249064Y-47833192D01*
X106249067Y-47833180D01*
X106249310Y-47831040D01*
X106259146Y-47756328D01*
X106259147Y-47756320D01*
X106263021Y-47726906D01*
X106269682Y-47676339D01*
X106265559Y-47645013D01*
X106264500Y-47628835D01*
X106264500Y-46282343D01*
X106284185Y-46215304D01*
X106300808Y-46194673D01*
X106651461Y-45843930D01*
X106712779Y-45810437D01*
X106739153Y-45807600D01*
X107691922Y-45807600D01*
X107758961Y-45827285D01*
X107804716Y-45880089D01*
X107808964Y-45890646D01*
X107869210Y-46062821D01*
X107952059Y-46194673D01*
X107965184Y-46215562D01*
X108092738Y-46343116D01*
X108183080Y-46399882D01*
X108218535Y-46422160D01*
X108245478Y-46439089D01*
X108316041Y-46463780D01*
X108415745Y-46498668D01*
X108415750Y-46498669D01*
X108594996Y-46518865D01*
X108595000Y-46518865D01*
X108595004Y-46518865D01*
X108774249Y-46498669D01*
X108774252Y-46498668D01*
X108774255Y-46498668D01*
X108944522Y-46439089D01*
X109097262Y-46343116D01*
X109224816Y-46215562D01*
X109320789Y-46062822D01*
X109380368Y-45892555D01*
X109380583Y-45890646D01*
X109400565Y-45713303D01*
X109400565Y-45713296D01*
X109380369Y-45534050D01*
X109380368Y-45534045D01*
X109361473Y-45480047D01*
X109320789Y-45363778D01*
X109315816Y-45355864D01*
X109228150Y-45216344D01*
X109224816Y-45211038D01*
X109097262Y-45083484D01*
X109080004Y-45072640D01*
X108944521Y-44987510D01*
X108774252Y-44927931D01*
X108774247Y-44927930D01*
X108687513Y-44918158D01*
X108623100Y-44891092D01*
X108613698Y-44882601D01*
X108547219Y-44816095D01*
X108536543Y-44803919D01*
X108517282Y-44778818D01*
X108455699Y-44731564D01*
X108455679Y-44731549D01*
X108391939Y-44682619D01*
X108391848Y-44682566D01*
X108319184Y-44652468D01*
X108319161Y-44652458D01*
X108245885Y-44622088D01*
X108245766Y-44622056D01*
X108167848Y-44611798D01*
X108167826Y-44611795D01*
X108128423Y-44606600D01*
X108089120Y-44601418D01*
X108089118Y-44601418D01*
X108089117Y-44601418D01*
X108067120Y-44604309D01*
X108057745Y-44605542D01*
X108041585Y-44606600D01*
X107661390Y-44606600D01*
X107594351Y-44586915D01*
X107548596Y-44534111D01*
X107538652Y-44464953D01*
X107544349Y-44441645D01*
X107593366Y-44301562D01*
X107593369Y-44301549D01*
X107613565Y-44122303D01*
X107613565Y-44122296D01*
X107593369Y-43943050D01*
X107593368Y-43943045D01*
X107560344Y-43848667D01*
X107533789Y-43772778D01*
X107525788Y-43760045D01*
X107437815Y-43620037D01*
X107310262Y-43492484D01*
X107157523Y-43396511D01*
X106987254Y-43336931D01*
X106987249Y-43336930D01*
X106808004Y-43316735D01*
X106807996Y-43316735D01*
X106628750Y-43336930D01*
X106628745Y-43336931D01*
X106458476Y-43396511D01*
X106305736Y-43492485D01*
X106256998Y-43541222D01*
X106216766Y-43568102D01*
X106145174Y-43597752D01*
X106078238Y-43649113D01*
X106051228Y-43669837D01*
X106051229Y-43669838D01*
X106019716Y-43694018D01*
X106000500Y-43719061D01*
X105989804Y-43731256D01*
X104836054Y-44884895D01*
X104774729Y-44918377D01*
X104705038Y-44913390D01*
X104682405Y-44902204D01*
X104649347Y-44881432D01*
X104603057Y-44829098D01*
X104592408Y-44760045D01*
X104595546Y-44744343D01*
X104605634Y-44706696D01*
X104605634Y-44706695D01*
X104605635Y-44706692D01*
X104625468Y-44480000D01*
X104605635Y-44253308D01*
X104546739Y-44033504D01*
X104450568Y-43827266D01*
X104320047Y-43640861D01*
X104320045Y-43640858D01*
X104159141Y-43479954D01*
X103972734Y-43349432D01*
X103972732Y-43349431D01*
X103766497Y-43253261D01*
X103761402Y-43251407D01*
X103762159Y-43249325D01*
X103710617Y-43217908D01*
X103680088Y-43155061D01*
X103688383Y-43085686D01*
X103732869Y-43031808D01*
X103799421Y-43010534D01*
X103802352Y-43010499D01*
X104167872Y-43010499D01*
X104227483Y-43004091D01*
X104362331Y-42953796D01*
X104477546Y-42867546D01*
X104563796Y-42752331D01*
X104614091Y-42617483D01*
X104620500Y-42557873D01*
X104620499Y-40862128D01*
X104614091Y-40802517D01*
X104573726Y-40694294D01*
X104563797Y-40667671D01*
X104563793Y-40667664D01*
X104477546Y-40552454D01*
X104477544Y-40552452D01*
X104362335Y-40466206D01*
X104362328Y-40466202D01*
X104227482Y-40415908D01*
X104227483Y-40415908D01*
X104167883Y-40409501D01*
X104167881Y-40409500D01*
X104167873Y-40409500D01*
X104167864Y-40409500D01*
X102472129Y-40409500D01*
X102472123Y-40409501D01*
X102412512Y-40415909D01*
X102404969Y-40417692D01*
X102404222Y-40414531D01*
X102349316Y-40418414D01*
X102288020Y-40384879D01*
X102254584Y-40323529D01*
X102259625Y-40253841D01*
X102288117Y-40209562D01*
X102946309Y-39551791D01*
X103007643Y-39518325D01*
X103033962Y-39515500D01*
X104654903Y-39515500D01*
X104721942Y-39535185D01*
X104742584Y-39551819D01*
X104951799Y-39761034D01*
X104962493Y-39773228D01*
X104981718Y-39798282D01*
X105061451Y-39859463D01*
X105107159Y-39894536D01*
X105107161Y-39894536D01*
X105107163Y-39894538D01*
X105159504Y-39916218D01*
X105253238Y-39955044D01*
X105331619Y-39965363D01*
X105409999Y-39975682D01*
X105410000Y-39975682D01*
X105441302Y-39971560D01*
X105457487Y-39970500D01*
X105983648Y-39970500D01*
X106050687Y-39990185D01*
X106082017Y-40019005D01*
X106085946Y-40024124D01*
X106133718Y-40086382D01*
X106158807Y-40105633D01*
X106170985Y-40116313D01*
X106967816Y-40912960D01*
X106978520Y-40925164D01*
X106997716Y-40950181D01*
X107025996Y-40971880D01*
X107026115Y-40971978D01*
X107029267Y-40974396D01*
X107059738Y-40997772D01*
X107123159Y-41046436D01*
X107123160Y-41046436D01*
X107123196Y-41046464D01*
X107123200Y-41046467D01*
X107123595Y-41046626D01*
X107177010Y-41068744D01*
X107194673Y-41076058D01*
X107194684Y-41076063D01*
X107230408Y-41090860D01*
X107269238Y-41106944D01*
X107269240Y-41106944D01*
X107269271Y-41106957D01*
X107269296Y-41106963D01*
X107269636Y-41107005D01*
X107347271Y-41117217D01*
X107386639Y-41122400D01*
X107386645Y-41122400D01*
X107390572Y-41122917D01*
X107390726Y-41122933D01*
X107426070Y-41127582D01*
X107457330Y-41123462D01*
X107473529Y-41122400D01*
X107893903Y-41122400D01*
X107960942Y-41142085D01*
X107981584Y-41158719D01*
X111952799Y-45129934D01*
X111963493Y-45142128D01*
X111982718Y-45167183D01*
X112007798Y-45186427D01*
X112019982Y-45197110D01*
X112186692Y-45363776D01*
X112536310Y-45713303D01*
X112548170Y-45725159D01*
X112581663Y-45786478D01*
X112584500Y-45812852D01*
X112584500Y-63954997D01*
X112583438Y-63971189D01*
X112579318Y-64002469D01*
X112579318Y-64002473D01*
X112579318Y-64002474D01*
X112579816Y-64006255D01*
X112583969Y-64037818D01*
X112583974Y-64037867D01*
X112588284Y-64070603D01*
X112588284Y-64070610D01*
X112588285Y-64070610D01*
X112599949Y-64159244D01*
X112599955Y-64159260D01*
X112599956Y-64159262D01*
X112626379Y-64223053D01*
X112626380Y-64223057D01*
X112626381Y-64223058D01*
X112660455Y-64305329D01*
X112660463Y-64305340D01*
X112660464Y-64305341D01*
X112678819Y-64329262D01*
X112707226Y-64366283D01*
X112707229Y-64366287D01*
X112734976Y-64402452D01*
X112735017Y-64402502D01*
X112756718Y-64430782D01*
X112781755Y-64449994D01*
X112793949Y-64460687D01*
X118573806Y-70241039D01*
X118584487Y-70253219D01*
X118603719Y-70278283D01*
X118664284Y-70324755D01*
X118664290Y-70324760D01*
X118728311Y-70373890D01*
X118729159Y-70374555D01*
X118729161Y-70374556D01*
X118730441Y-70375067D01*
X118803428Y-70405299D01*
X118803432Y-70405302D01*
X118803433Y-70405301D01*
X118874834Y-70434880D01*
X118875326Y-70435087D01*
X118875421Y-70435112D01*
X118877581Y-70435352D01*
X118955920Y-70445665D01*
X118955927Y-70445668D01*
X118955927Y-70445666D01*
X118971136Y-70447669D01*
X119031970Y-70455682D01*
X119031972Y-70455682D01*
X119031973Y-70455681D01*
X119031974Y-70455682D01*
X119063293Y-70451559D01*
X119079472Y-70450500D01*
X119970816Y-70450500D01*
X120037855Y-70470185D01*
X120058515Y-70486836D01*
X120378199Y-70806648D01*
X120411671Y-70867978D01*
X120414500Y-70894312D01*
X120414500Y-78964053D01*
X120394815Y-79031092D01*
X120378150Y-79051765D01*
X120283755Y-79146093D01*
X120222420Y-79179557D01*
X120209989Y-79181601D01*
X120122750Y-79191430D01*
X119952478Y-79251010D01*
X119799737Y-79346984D01*
X119672184Y-79474537D01*
X119576211Y-79627276D01*
X119516631Y-79797545D01*
X119516630Y-79797550D01*
X119496435Y-79976796D01*
X119496435Y-79976803D01*
X119516630Y-80156049D01*
X119516631Y-80156054D01*
X119576211Y-80326323D01*
X119633494Y-80417487D01*
X119672184Y-80479062D01*
X119799738Y-80606616D01*
X119952478Y-80702589D01*
X120122745Y-80762168D01*
X120122750Y-80762169D01*
X120301996Y-80782365D01*
X120302000Y-80782365D01*
X120302004Y-80782365D01*
X120481249Y-80762169D01*
X120481252Y-80762168D01*
X120481255Y-80762168D01*
X120651522Y-80702589D01*
X120804262Y-80606616D01*
X120931816Y-80479062D01*
X120970506Y-80417486D01*
X121022841Y-80371196D01*
X121091894Y-80360548D01*
X121155743Y-80388923D01*
X121194115Y-80447313D01*
X121199500Y-80483459D01*
X121199500Y-82137870D01*
X121199501Y-82137876D01*
X121205908Y-82197483D01*
X121256202Y-82332328D01*
X121256206Y-82332335D01*
X121342452Y-82447544D01*
X121342455Y-82447547D01*
X121457664Y-82533793D01*
X121457671Y-82533797D01*
X121592517Y-82584091D01*
X121592516Y-82584091D01*
X121599444Y-82584835D01*
X121652127Y-82590500D01*
X123447872Y-82590499D01*
X123507483Y-82584091D01*
X123642331Y-82533796D01*
X123757546Y-82447546D01*
X123843796Y-82332331D01*
X123894091Y-82197483D01*
X123900500Y-82137873D01*
X123900499Y-80342128D01*
X123894091Y-80282517D01*
X123846923Y-80156054D01*
X123843797Y-80147671D01*
X123843793Y-80147664D01*
X123757547Y-80032455D01*
X123757544Y-80032452D01*
X123642335Y-79946206D01*
X123642328Y-79946202D01*
X123510401Y-79896997D01*
X123454467Y-79855126D01*
X123430050Y-79789662D01*
X123444902Y-79721389D01*
X123466053Y-79693133D01*
X123588108Y-79571078D01*
X123723600Y-79377578D01*
X123823429Y-79163492D01*
X123823432Y-79163486D01*
X123880636Y-78950000D01*
X122983686Y-78950000D01*
X123009493Y-78909844D01*
X123050000Y-78771889D01*
X123050000Y-78628111D01*
X123009493Y-78490156D01*
X122983686Y-78450000D01*
X123880636Y-78450000D01*
X123880635Y-78449999D01*
X123823432Y-78236513D01*
X123823429Y-78236507D01*
X123723600Y-78022422D01*
X123723599Y-78022420D01*
X123588113Y-77828926D01*
X123588108Y-77828920D01*
X123421078Y-77661890D01*
X123235405Y-77531879D01*
X123191780Y-77477302D01*
X123184588Y-77407804D01*
X123216110Y-77345449D01*
X123235406Y-77328730D01*
X123235842Y-77328425D01*
X123421401Y-77198495D01*
X123588495Y-77031401D01*
X123724035Y-76837830D01*
X123823903Y-76623663D01*
X123885063Y-76395408D01*
X123905659Y-76160000D01*
X123885063Y-75924592D01*
X123823903Y-75696337D01*
X123724035Y-75482171D01*
X123699021Y-75446446D01*
X123588494Y-75288597D01*
X123421402Y-75121506D01*
X123421396Y-75121501D01*
X123235842Y-74991575D01*
X123192217Y-74936998D01*
X123185023Y-74867500D01*
X123216546Y-74805145D01*
X123235842Y-74788425D01*
X123288356Y-74751654D01*
X123421401Y-74658495D01*
X123588495Y-74491401D01*
X123724035Y-74297830D01*
X123823903Y-74083663D01*
X123885063Y-73855408D01*
X123905659Y-73620000D01*
X123885063Y-73384592D01*
X123823903Y-73156337D01*
X123724035Y-72942171D01*
X123588495Y-72748599D01*
X123588494Y-72748597D01*
X123421402Y-72581506D01*
X123421396Y-72581501D01*
X123235842Y-72451575D01*
X123192217Y-72396998D01*
X123185023Y-72327500D01*
X123216546Y-72265145D01*
X123235842Y-72248425D01*
X123339271Y-72176003D01*
X123421401Y-72118495D01*
X123588495Y-71951401D01*
X123724035Y-71757830D01*
X123726707Y-71752097D01*
X123772878Y-71699658D01*
X123839091Y-71680500D01*
X130553513Y-71680500D01*
X130569697Y-71681560D01*
X130601000Y-71685682D01*
X130601001Y-71685682D01*
X130653254Y-71678802D01*
X130757762Y-71665044D01*
X130903836Y-71604538D01*
X130903837Y-71604538D01*
X130903837Y-71604537D01*
X130903841Y-71604536D01*
X130954943Y-71565324D01*
X131029282Y-71508282D01*
X131048509Y-71483223D01*
X131059190Y-71471043D01*
X137872535Y-64657698D01*
X137933856Y-64624215D01*
X137946311Y-64622163D01*
X138033255Y-64612368D01*
X138203522Y-64552789D01*
X138356262Y-64456816D01*
X138483816Y-64329262D01*
X138579789Y-64176522D01*
X138639368Y-64006255D01*
X138643319Y-63971189D01*
X138659565Y-63827003D01*
X138659565Y-63826996D01*
X138639369Y-63647750D01*
X138639368Y-63647745D01*
X138579788Y-63477476D01*
X138483815Y-63324737D01*
X138356262Y-63197184D01*
X138203523Y-63101211D01*
X138033254Y-63041631D01*
X138033249Y-63041630D01*
X137854004Y-63021435D01*
X137853996Y-63021435D01*
X137674750Y-63041630D01*
X137674745Y-63041631D01*
X137504476Y-63101211D01*
X137351737Y-63197184D01*
X137224184Y-63324737D01*
X137128210Y-63477478D01*
X137068630Y-63647750D01*
X137058837Y-63734668D01*
X137031770Y-63799082D01*
X137023298Y-63808465D01*
X130388584Y-70443181D01*
X130327261Y-70476666D01*
X130300903Y-70479500D01*
X123839091Y-70479500D01*
X123772052Y-70459815D01*
X123726711Y-70407909D01*
X123724037Y-70402175D01*
X123724034Y-70402170D01*
X123724033Y-70402169D01*
X123637288Y-70278283D01*
X123588494Y-70208597D01*
X123421402Y-70041506D01*
X123421396Y-70041501D01*
X123235842Y-69911575D01*
X123192217Y-69856998D01*
X123185023Y-69787500D01*
X123216546Y-69725145D01*
X123235842Y-69708425D01*
X123284860Y-69674102D01*
X123421401Y-69578495D01*
X123588495Y-69411401D01*
X123724035Y-69217830D01*
X123823903Y-69003663D01*
X123885063Y-68775408D01*
X123905659Y-68540000D01*
X123885063Y-68304592D01*
X123823903Y-68076337D01*
X123724035Y-67862171D01*
X123711105Y-67843704D01*
X123588494Y-67668597D01*
X123421402Y-67501506D01*
X123421396Y-67501501D01*
X123235842Y-67371575D01*
X123192217Y-67316998D01*
X123185023Y-67247500D01*
X123216546Y-67185145D01*
X123235842Y-67168425D01*
X123321916Y-67108155D01*
X123421401Y-67038495D01*
X123588495Y-66871401D01*
X123724035Y-66677830D01*
X123732568Y-66659529D01*
X123778738Y-66607089D01*
X123828766Y-66588992D01*
X123858762Y-66585044D01*
X124004841Y-66524536D01*
X124130282Y-66428282D01*
X124226536Y-66302841D01*
X124287044Y-66156762D01*
X124302500Y-66039361D01*
X124307682Y-66000000D01*
X124303561Y-65968697D01*
X124302500Y-65952512D01*
X124302500Y-65316799D01*
X124322185Y-65249760D01*
X124338817Y-65229120D01*
X124626753Y-64941189D01*
X124688075Y-64907706D01*
X124757767Y-64912691D01*
X124802113Y-64941191D01*
X124816738Y-64955816D01*
X124969478Y-65051789D01*
X125139745Y-65111368D01*
X125139750Y-65111369D01*
X125318996Y-65131565D01*
X125319000Y-65131565D01*
X125319004Y-65131565D01*
X125498249Y-65111369D01*
X125498252Y-65111368D01*
X125498255Y-65111368D01*
X125668522Y-65051789D01*
X125821262Y-64955816D01*
X125948816Y-64828262D01*
X126044789Y-64675522D01*
X126104368Y-64505255D01*
X126114161Y-64418329D01*
X126141226Y-64353918D01*
X126149690Y-64344543D01*
X140367416Y-50126819D01*
X140428739Y-50093334D01*
X140455097Y-50090500D01*
X144037440Y-50090500D01*
X144104479Y-50110185D01*
X144150234Y-50162989D01*
X144160178Y-50232147D01*
X144149823Y-50266900D01*
X144146312Y-50274432D01*
X144136096Y-50296340D01*
X144136094Y-50296344D01*
X144074938Y-50524586D01*
X144074936Y-50524596D01*
X144054341Y-50759999D01*
X144054341Y-50760000D01*
X144074936Y-50995403D01*
X144074938Y-50995413D01*
X144136094Y-51223655D01*
X144136096Y-51223659D01*
X144136097Y-51223663D01*
X144230245Y-51425563D01*
X144235965Y-51437830D01*
X144235967Y-51437834D01*
X144371501Y-51631395D01*
X144371506Y-51631402D01*
X144538597Y-51798493D01*
X144538603Y-51798498D01*
X144724158Y-51928425D01*
X144767783Y-51983002D01*
X144774977Y-52052500D01*
X144743454Y-52114855D01*
X144724158Y-52131575D01*
X144538597Y-52261505D01*
X144371505Y-52428597D01*
X144235965Y-52622169D01*
X144235964Y-52622171D01*
X144136098Y-52836335D01*
X144136094Y-52836344D01*
X144074938Y-53064586D01*
X144074936Y-53064596D01*
X144054341Y-53299999D01*
X144054341Y-53300000D01*
X144074936Y-53535403D01*
X144074938Y-53535413D01*
X144136094Y-53763655D01*
X144136096Y-53763659D01*
X144136097Y-53763663D01*
X144209263Y-53920567D01*
X144235965Y-53977830D01*
X144235967Y-53977834D01*
X144371501Y-54171395D01*
X144371506Y-54171402D01*
X144538597Y-54338493D01*
X144538603Y-54338498D01*
X144724158Y-54468425D01*
X144767783Y-54523002D01*
X144774977Y-54592500D01*
X144743454Y-54654855D01*
X144724158Y-54671575D01*
X144538597Y-54801505D01*
X144371505Y-54968597D01*
X144235965Y-55162169D01*
X144235964Y-55162171D01*
X144136098Y-55376335D01*
X144136094Y-55376344D01*
X144074938Y-55604586D01*
X144074936Y-55604596D01*
X144054341Y-55839999D01*
X144054341Y-55840000D01*
X144074936Y-56075403D01*
X144074938Y-56075413D01*
X144136094Y-56303655D01*
X144136096Y-56303659D01*
X144136097Y-56303663D01*
X144235965Y-56517830D01*
X144235967Y-56517834D01*
X144371501Y-56711395D01*
X144371506Y-56711402D01*
X144538597Y-56878493D01*
X144538603Y-56878498D01*
X144724158Y-57008425D01*
X144767783Y-57063002D01*
X144774977Y-57132500D01*
X144743454Y-57194855D01*
X144724158Y-57211575D01*
X144538597Y-57341505D01*
X144371505Y-57508597D01*
X144235965Y-57702169D01*
X144235964Y-57702171D01*
X144136098Y-57916335D01*
X144136094Y-57916344D01*
X144074938Y-58144586D01*
X144074936Y-58144596D01*
X144054341Y-58379999D01*
X144054341Y-58380000D01*
X144074936Y-58615403D01*
X144074938Y-58615413D01*
X144136094Y-58843655D01*
X144136096Y-58843659D01*
X144136097Y-58843663D01*
X144192506Y-58964632D01*
X144235965Y-59057830D01*
X144235967Y-59057834D01*
X144284427Y-59127041D01*
X144368939Y-59247737D01*
X144371501Y-59251395D01*
X144371506Y-59251402D01*
X144538597Y-59418493D01*
X144538603Y-59418498D01*
X144724158Y-59548425D01*
X144767783Y-59603002D01*
X144774977Y-59672500D01*
X144743454Y-59734855D01*
X144724158Y-59751575D01*
X144538597Y-59881505D01*
X144371506Y-60048596D01*
X144235965Y-60242170D01*
X144235962Y-60242175D01*
X144233289Y-60247909D01*
X144187115Y-60300346D01*
X144120909Y-60319500D01*
X141070097Y-60319500D01*
X141003058Y-60299815D01*
X140982416Y-60283181D01*
X140430700Y-59731465D01*
X140397215Y-59670142D01*
X140395163Y-59657686D01*
X140385368Y-59570745D01*
X140325789Y-59400478D01*
X140229816Y-59247738D01*
X140102262Y-59120184D01*
X140003033Y-59057834D01*
X139949523Y-59024211D01*
X139779254Y-58964631D01*
X139779249Y-58964630D01*
X139600004Y-58944435D01*
X139599996Y-58944435D01*
X139420750Y-58964630D01*
X139420745Y-58964631D01*
X139250476Y-59024211D01*
X139097737Y-59120184D01*
X138970184Y-59247737D01*
X138874211Y-59400476D01*
X138814631Y-59570745D01*
X138814630Y-59570750D01*
X138794435Y-59749996D01*
X138794435Y-59750003D01*
X138814630Y-59929249D01*
X138814631Y-59929254D01*
X138874211Y-60099523D01*
X138878712Y-60106686D01*
X138970184Y-60252262D01*
X139097738Y-60379816D01*
X139250478Y-60475789D01*
X139420745Y-60535368D01*
X139507669Y-60545161D01*
X139572080Y-60572226D01*
X139581465Y-60580700D01*
X140311799Y-61311034D01*
X140322493Y-61323228D01*
X140341718Y-61348282D01*
X140387826Y-61383661D01*
X140387827Y-61383663D01*
X140448700Y-61430371D01*
X140467159Y-61444536D01*
X140467161Y-61444536D01*
X140467163Y-61444538D01*
X140540198Y-61474790D01*
X140613238Y-61505044D01*
X140678372Y-61513619D01*
X140769999Y-61525682D01*
X140770000Y-61525682D01*
X140801302Y-61521560D01*
X140817487Y-61520500D01*
X144120909Y-61520500D01*
X144187948Y-61540185D01*
X144233292Y-61592097D01*
X144235965Y-61597830D01*
X144371501Y-61791395D01*
X144371506Y-61791402D01*
X144538597Y-61958493D01*
X144538603Y-61958498D01*
X144724158Y-62088425D01*
X144767783Y-62143002D01*
X144774977Y-62212500D01*
X144743454Y-62274855D01*
X144724158Y-62291575D01*
X144538597Y-62421505D01*
X144371505Y-62588597D01*
X144235965Y-62782169D01*
X144235964Y-62782171D01*
X144136098Y-62996335D01*
X144136094Y-62996344D01*
X144074938Y-63224586D01*
X144074936Y-63224596D01*
X144054341Y-63459999D01*
X144054341Y-63460000D01*
X144074936Y-63695403D01*
X144074938Y-63695413D01*
X144136094Y-63923655D01*
X144136096Y-63923659D01*
X144136097Y-63923663D01*
X144204620Y-64070610D01*
X144235965Y-64137830D01*
X144235967Y-64137834D01*
X144371501Y-64331395D01*
X144371506Y-64331402D01*
X144538597Y-64498493D01*
X144538603Y-64498498D01*
X144724158Y-64628425D01*
X144767783Y-64683002D01*
X144774977Y-64752500D01*
X144743454Y-64814855D01*
X144724158Y-64831575D01*
X144538597Y-64961505D01*
X144371505Y-65128597D01*
X144235965Y-65322169D01*
X144235964Y-65322171D01*
X144136098Y-65536335D01*
X144136094Y-65536344D01*
X144074938Y-65764586D01*
X144074936Y-65764596D01*
X144054341Y-65999999D01*
X144054341Y-66000000D01*
X144074936Y-66235403D01*
X144074938Y-66235413D01*
X144136094Y-66463655D01*
X144136096Y-66463659D01*
X144136097Y-66463663D01*
X144164483Y-66524536D01*
X144235965Y-66677830D01*
X144235967Y-66677834D01*
X144308880Y-66781964D01*
X144371501Y-66871396D01*
X144371506Y-66871402D01*
X144538597Y-67038493D01*
X144538603Y-67038498D01*
X144724158Y-67168425D01*
X144767783Y-67223002D01*
X144774977Y-67292500D01*
X144743454Y-67354855D01*
X144724158Y-67371575D01*
X144538597Y-67501505D01*
X144371505Y-67668597D01*
X144235965Y-67862169D01*
X144235964Y-67862171D01*
X144136098Y-68076335D01*
X144136094Y-68076344D01*
X144074938Y-68304586D01*
X144074936Y-68304596D01*
X144054341Y-68539999D01*
X144054341Y-68540000D01*
X144074936Y-68775403D01*
X144074938Y-68775413D01*
X144136094Y-69003655D01*
X144136096Y-69003659D01*
X144136097Y-69003663D01*
X144233795Y-69213177D01*
X144235965Y-69217830D01*
X144235967Y-69217834D01*
X144371501Y-69411395D01*
X144371506Y-69411402D01*
X144538597Y-69578493D01*
X144538603Y-69578498D01*
X144724158Y-69708425D01*
X144767783Y-69763002D01*
X144774977Y-69832500D01*
X144743454Y-69894855D01*
X144724158Y-69911575D01*
X144538597Y-70041505D01*
X144371505Y-70208597D01*
X144235965Y-70402169D01*
X144235964Y-70402171D01*
X144136098Y-70616335D01*
X144136094Y-70616344D01*
X144074938Y-70844586D01*
X144074936Y-70844596D01*
X144054341Y-71079999D01*
X144054341Y-71080000D01*
X144074936Y-71315403D01*
X144074938Y-71315413D01*
X144136094Y-71543655D01*
X144136096Y-71543659D01*
X144136097Y-71543663D01*
X144200400Y-71681561D01*
X144235965Y-71757830D01*
X144235967Y-71757834D01*
X144371501Y-71951395D01*
X144371506Y-71951402D01*
X144538597Y-72118493D01*
X144538603Y-72118498D01*
X144724158Y-72248425D01*
X144767783Y-72303002D01*
X144774977Y-72372500D01*
X144743454Y-72434855D01*
X144724158Y-72451575D01*
X144538597Y-72581505D01*
X144371505Y-72748597D01*
X144235965Y-72942169D01*
X144235964Y-72942171D01*
X144136098Y-73156335D01*
X144136094Y-73156344D01*
X144074938Y-73384586D01*
X144074936Y-73384596D01*
X144054341Y-73619999D01*
X144054341Y-73620000D01*
X144074936Y-73855403D01*
X144074938Y-73855413D01*
X144136094Y-74083655D01*
X144136096Y-74083659D01*
X144136097Y-74083663D01*
X144227874Y-74280479D01*
X144235965Y-74297830D01*
X144235967Y-74297834D01*
X144371501Y-74491395D01*
X144371506Y-74491402D01*
X144538597Y-74658493D01*
X144538603Y-74658498D01*
X144724158Y-74788425D01*
X144767783Y-74843002D01*
X144774977Y-74912500D01*
X144743454Y-74974855D01*
X144724158Y-74991575D01*
X144538597Y-75121505D01*
X144371505Y-75288597D01*
X144235965Y-75482169D01*
X144235964Y-75482171D01*
X144136098Y-75696335D01*
X144136094Y-75696344D01*
X144074938Y-75924586D01*
X144074936Y-75924596D01*
X144054341Y-76159999D01*
X144054341Y-76160000D01*
X144074936Y-76395403D01*
X144074938Y-76395413D01*
X144136094Y-76623655D01*
X144136096Y-76623659D01*
X144136097Y-76623663D01*
X144212916Y-76788402D01*
X144235965Y-76837830D01*
X144235967Y-76837834D01*
X144371501Y-77031395D01*
X144371506Y-77031402D01*
X144538597Y-77198493D01*
X144538603Y-77198498D01*
X144724158Y-77328425D01*
X144767783Y-77383002D01*
X144774977Y-77452500D01*
X144743454Y-77514855D01*
X144724158Y-77531575D01*
X144538597Y-77661505D01*
X144371505Y-77828597D01*
X144235965Y-78022169D01*
X144235964Y-78022171D01*
X144136098Y-78236335D01*
X144136094Y-78236344D01*
X144074938Y-78464586D01*
X144074936Y-78464596D01*
X144054341Y-78699999D01*
X144054341Y-78700000D01*
X144074936Y-78935403D01*
X144074938Y-78935413D01*
X144136094Y-79163655D01*
X144136096Y-79163659D01*
X144136097Y-79163663D01*
X144203811Y-79308876D01*
X144235965Y-79377830D01*
X144235967Y-79377834D01*
X144317626Y-79494454D01*
X144371501Y-79571396D01*
X144371506Y-79571402D01*
X144493430Y-79693326D01*
X144526915Y-79754649D01*
X144521931Y-79824341D01*
X144480059Y-79880274D01*
X144449083Y-79897189D01*
X144317669Y-79946203D01*
X144317664Y-79946206D01*
X144202455Y-80032452D01*
X144202452Y-80032455D01*
X144116206Y-80147664D01*
X144116202Y-80147671D01*
X144065908Y-80282517D01*
X144061199Y-80326322D01*
X144059501Y-80342123D01*
X144059500Y-80342135D01*
X144059500Y-82137870D01*
X144059501Y-82137876D01*
X144065908Y-82197483D01*
X144116202Y-82332328D01*
X144116206Y-82332335D01*
X144202452Y-82447544D01*
X144202455Y-82447547D01*
X144317664Y-82533793D01*
X144317671Y-82533797D01*
X144452517Y-82584091D01*
X144452516Y-82584091D01*
X144459444Y-82584835D01*
X144512127Y-82590500D01*
X146307872Y-82590499D01*
X146367483Y-82584091D01*
X146502331Y-82533796D01*
X146617546Y-82447546D01*
X146703796Y-82332331D01*
X146754091Y-82197483D01*
X146760500Y-82137873D01*
X146760499Y-80342128D01*
X146754091Y-80282517D01*
X146706923Y-80156054D01*
X146703797Y-80147671D01*
X146703793Y-80147664D01*
X146617547Y-80032455D01*
X146617544Y-80032452D01*
X146502335Y-79946206D01*
X146502328Y-79946202D01*
X146370917Y-79897189D01*
X146314983Y-79855318D01*
X146290566Y-79789853D01*
X146305418Y-79721580D01*
X146326563Y-79693332D01*
X146448495Y-79571401D01*
X146584035Y-79377830D01*
X146683903Y-79163663D01*
X146745063Y-78935408D01*
X146765659Y-78700000D01*
X146745063Y-78464592D01*
X146683903Y-78236337D01*
X146584035Y-78022171D01*
X146523326Y-77935468D01*
X146448494Y-77828597D01*
X146281402Y-77661506D01*
X146281396Y-77661501D01*
X146095842Y-77531575D01*
X146052217Y-77476998D01*
X146045023Y-77407500D01*
X146076546Y-77345145D01*
X146095842Y-77328425D01*
X146161098Y-77282732D01*
X146281401Y-77198495D01*
X146448495Y-77031401D01*
X146584035Y-76837830D01*
X146683903Y-76623663D01*
X146745063Y-76395408D01*
X146765659Y-76160000D01*
X146745063Y-75924592D01*
X146683903Y-75696337D01*
X146584035Y-75482171D01*
X146559021Y-75446446D01*
X146448494Y-75288597D01*
X146281402Y-75121506D01*
X146281396Y-75121501D01*
X146095842Y-74991575D01*
X146052217Y-74936998D01*
X146045023Y-74867500D01*
X146076546Y-74805145D01*
X146095842Y-74788425D01*
X146148356Y-74751654D01*
X146281401Y-74658495D01*
X146448495Y-74491401D01*
X146584035Y-74297830D01*
X146683903Y-74083663D01*
X146745063Y-73855408D01*
X146765659Y-73620000D01*
X146745063Y-73384592D01*
X146683903Y-73156337D01*
X146584035Y-72942171D01*
X146448495Y-72748599D01*
X146448494Y-72748597D01*
X146281402Y-72581506D01*
X146281396Y-72581501D01*
X146095842Y-72451575D01*
X146052217Y-72396998D01*
X146045023Y-72327500D01*
X146076546Y-72265145D01*
X146095842Y-72248425D01*
X146199271Y-72176003D01*
X146281401Y-72118495D01*
X146448495Y-71951401D01*
X146584035Y-71757830D01*
X146683903Y-71543663D01*
X146745063Y-71315408D01*
X146765659Y-71080000D01*
X146763936Y-71060312D01*
X146745063Y-70844596D01*
X146745063Y-70844592D01*
X146683903Y-70616337D01*
X146584035Y-70402171D01*
X146584034Y-70402169D01*
X146448494Y-70208597D01*
X146281402Y-70041506D01*
X146281396Y-70041501D01*
X146095842Y-69911575D01*
X146052217Y-69856998D01*
X146045023Y-69787500D01*
X146076546Y-69725145D01*
X146095842Y-69708425D01*
X146144860Y-69674102D01*
X146281401Y-69578495D01*
X146448495Y-69411401D01*
X146584035Y-69217830D01*
X146683903Y-69003663D01*
X146745063Y-68775408D01*
X146765659Y-68540000D01*
X146745063Y-68304592D01*
X146683903Y-68076337D01*
X146584035Y-67862171D01*
X146571105Y-67843704D01*
X146448494Y-67668597D01*
X146281402Y-67501506D01*
X146281396Y-67501501D01*
X146095842Y-67371575D01*
X146052217Y-67316998D01*
X146045023Y-67247500D01*
X146076546Y-67185145D01*
X146095842Y-67168425D01*
X146181916Y-67108155D01*
X146281401Y-67038495D01*
X146448495Y-66871401D01*
X146584035Y-66677830D01*
X146683903Y-66463663D01*
X146745063Y-66235408D01*
X146765659Y-66000000D01*
X146745063Y-65764592D01*
X146683903Y-65536337D01*
X146584035Y-65322171D01*
X146572254Y-65305345D01*
X146448494Y-65128597D01*
X146281402Y-64961506D01*
X146281396Y-64961501D01*
X146095842Y-64831575D01*
X146052217Y-64776998D01*
X146045023Y-64707500D01*
X146076546Y-64645145D01*
X146095842Y-64628425D01*
X146203861Y-64552789D01*
X146281401Y-64498495D01*
X146448495Y-64331401D01*
X146584035Y-64137830D01*
X146683903Y-63923663D01*
X146745063Y-63695408D01*
X146765659Y-63460000D01*
X146745063Y-63224592D01*
X146683903Y-62996337D01*
X146584035Y-62782171D01*
X146571753Y-62764630D01*
X146548360Y-62731221D01*
X146526033Y-62665015D01*
X146543043Y-62597248D01*
X146562251Y-62572419D01*
X146848688Y-62285965D01*
X156751046Y-52382989D01*
X156763240Y-52372295D01*
X156788282Y-52353082D01*
X156808731Y-52326430D01*
X156808754Y-52326404D01*
X156812461Y-52321572D01*
X156812463Y-52321571D01*
X156858551Y-52261505D01*
X156881856Y-52231133D01*
X156884699Y-52227692D01*
X156885743Y-52225413D01*
X156887242Y-52221115D01*
X156919553Y-52143101D01*
X156919555Y-52143098D01*
X156944475Y-52082935D01*
X156945053Y-52081586D01*
X156945177Y-52080571D01*
X156955773Y-52000062D01*
X156955773Y-52000060D01*
X156955774Y-52000060D01*
X156955774Y-52000051D01*
X156961024Y-51960179D01*
X156961030Y-51960124D01*
X156962249Y-51950861D01*
X156965682Y-51924781D01*
X156961561Y-51893486D01*
X156960500Y-51877297D01*
X156960500Y-51789978D01*
X156980185Y-51722939D01*
X156996810Y-51702304D01*
X161528049Y-47170687D01*
X161540241Y-47159995D01*
X161565282Y-47140782D01*
X161585876Y-47113941D01*
X161585904Y-47113909D01*
X161589464Y-47109267D01*
X161589467Y-47109266D01*
X161613891Y-47077432D01*
X161660463Y-47016738D01*
X161661625Y-47015273D01*
X161661633Y-47015257D01*
X161662546Y-47012911D01*
X161691589Y-46942786D01*
X161691591Y-46942781D01*
X161720391Y-46873252D01*
X161722133Y-46869433D01*
X161722140Y-46869409D01*
X161722518Y-46865676D01*
X161732487Y-46789936D01*
X161737500Y-46751861D01*
X161737500Y-46751855D01*
X161738025Y-46747869D01*
X161738027Y-46747839D01*
X161742682Y-46712475D01*
X161738561Y-46681181D01*
X161737500Y-46664992D01*
X161737500Y-43028641D01*
X161757185Y-42961602D01*
X161809989Y-42915847D01*
X161879147Y-42905903D01*
X161913905Y-42916259D01*
X162036507Y-42973430D01*
X162036516Y-42973433D01*
X162250000Y-43030634D01*
X162250000Y-42135501D01*
X162357685Y-42184680D01*
X162464237Y-42200000D01*
X162535763Y-42200000D01*
X162642315Y-42184680D01*
X162750000Y-42135501D01*
X162750000Y-43030633D01*
X162963483Y-42973433D01*
X162963492Y-42973429D01*
X163177578Y-42873600D01*
X163371082Y-42738105D01*
X163538105Y-42571082D01*
X163673600Y-42377578D01*
X163773429Y-42163492D01*
X163773432Y-42163486D01*
X163830636Y-41950000D01*
X162933686Y-41950000D01*
X162959493Y-41909844D01*
X163000000Y-41771889D01*
X163000000Y-41628111D01*
X162959493Y-41490156D01*
X162933686Y-41450000D01*
X163830636Y-41450000D01*
X163830635Y-41449999D01*
X163773432Y-41236513D01*
X163773429Y-41236507D01*
X163673600Y-41022422D01*
X163673599Y-41022420D01*
X163538113Y-40828926D01*
X163538108Y-40828920D01*
X163371082Y-40661894D01*
X163184968Y-40531575D01*
X163141344Y-40476998D01*
X163134151Y-40407499D01*
X163165673Y-40345145D01*
X163184968Y-40328425D01*
X163371082Y-40198105D01*
X163538105Y-40031082D01*
X163673600Y-39837578D01*
X163773429Y-39623492D01*
X163773432Y-39623486D01*
X163830636Y-39410000D01*
X162933686Y-39410000D01*
X162959493Y-39369844D01*
X163000000Y-39231889D01*
X163000000Y-39088111D01*
X162959493Y-38950156D01*
X162933686Y-38910000D01*
X163830636Y-38910000D01*
X163830635Y-38909999D01*
X163773432Y-38696513D01*
X163773429Y-38696507D01*
X163673600Y-38482422D01*
X163673599Y-38482420D01*
X163538113Y-38288926D01*
X163538108Y-38288920D01*
X163371082Y-38121894D01*
X163177578Y-37986399D01*
X162963492Y-37886570D01*
X162963486Y-37886567D01*
X162750000Y-37829364D01*
X162750000Y-38724498D01*
X162642315Y-38675320D01*
X162535763Y-38660000D01*
X162464237Y-38660000D01*
X162357685Y-38675320D01*
X162250000Y-38724498D01*
X162250000Y-37829364D01*
X162249999Y-37829364D01*
X162036513Y-37886567D01*
X162036507Y-37886570D01*
X161822422Y-37986399D01*
X161822420Y-37986400D01*
X161628921Y-38121889D01*
X161625486Y-38124772D01*
X161561474Y-38152777D01*
X161492483Y-38141730D01*
X161458102Y-38117446D01*
X157266215Y-33924786D01*
X157255530Y-33912601D01*
X157236282Y-33887517D01*
X157171804Y-33838042D01*
X157171794Y-33838034D01*
X157110881Y-33791284D01*
X157110859Y-33791271D01*
X157075404Y-33776585D01*
X157036230Y-33760358D01*
X157036226Y-33760355D01*
X157036226Y-33760356D01*
X157036225Y-33760356D01*
X156964816Y-33730771D01*
X156964815Y-33730770D01*
X156964784Y-33730758D01*
X156884159Y-33720144D01*
X156884155Y-33720142D01*
X156884150Y-33720143D01*
X156808056Y-33710118D01*
X156808054Y-33710118D01*
X156808053Y-33710118D01*
X156776717Y-33714241D01*
X156760543Y-33715300D01*
X146751325Y-33715300D01*
X146684286Y-33695615D01*
X146638531Y-33642811D01*
X146628587Y-33573653D01*
X146638943Y-33538895D01*
X146683429Y-33443492D01*
X146683432Y-33443486D01*
X146740636Y-33230000D01*
X145843686Y-33230000D01*
X145869493Y-33189844D01*
X145910000Y-33051889D01*
X145910000Y-32908111D01*
X145869493Y-32770156D01*
X145843686Y-32730000D01*
X146740636Y-32730000D01*
X146740635Y-32729999D01*
X146683432Y-32516513D01*
X146683429Y-32516507D01*
X146583600Y-32302422D01*
X146583599Y-32302420D01*
X146448113Y-32108926D01*
X146448108Y-32108920D01*
X146281082Y-31941894D01*
X146087578Y-31806399D01*
X145873492Y-31706570D01*
X145873486Y-31706567D01*
X145660000Y-31649364D01*
X145660000Y-32544498D01*
X145552315Y-32495320D01*
X145445763Y-32480000D01*
X145374237Y-32480000D01*
X145267685Y-32495320D01*
X145160000Y-32544498D01*
X145160000Y-31649364D01*
X145159999Y-31649364D01*
X144946513Y-31706567D01*
X144946507Y-31706570D01*
X144732422Y-31806399D01*
X144732420Y-31806400D01*
X144538926Y-31941886D01*
X144538920Y-31941891D01*
X144371891Y-32108920D01*
X144371886Y-32108926D01*
X144236400Y-32302420D01*
X144236399Y-32302422D01*
X144136570Y-32516507D01*
X144136567Y-32516513D01*
X144079364Y-32729999D01*
X144079364Y-32730000D01*
X144976314Y-32730000D01*
X144950507Y-32770156D01*
X144910000Y-32908111D01*
X144910000Y-33051889D01*
X144950507Y-33189844D01*
X144976314Y-33230000D01*
X144079364Y-33230000D01*
X144136567Y-33443486D01*
X144136570Y-33443492D01*
X144181057Y-33538895D01*
X144191549Y-33607973D01*
X144163029Y-33671757D01*
X144104553Y-33709996D01*
X144068675Y-33715300D01*
X123891877Y-33715300D01*
X123824838Y-33695615D01*
X123779083Y-33642811D01*
X123769139Y-33573653D01*
X123779495Y-33538895D01*
X123823903Y-33443663D01*
X123885063Y-33215408D01*
X123905659Y-32980000D01*
X123885063Y-32744592D01*
X123823903Y-32516337D01*
X123724035Y-32302171D01*
X123715110Y-32289424D01*
X123588494Y-32108597D01*
X123421402Y-31941506D01*
X123421395Y-31941501D01*
X123227834Y-31805967D01*
X123227830Y-31805965D01*
X123227828Y-31805964D01*
X123013663Y-31706097D01*
X123013659Y-31706096D01*
X123013655Y-31706094D01*
X122785413Y-31644938D01*
X122785403Y-31644936D01*
X122550001Y-31624341D01*
X122549999Y-31624341D01*
X122314596Y-31644936D01*
X122314586Y-31644938D01*
X122086344Y-31706094D01*
X122086335Y-31706098D01*
X121872171Y-31805964D01*
X121872169Y-31805965D01*
X121678597Y-31941505D01*
X121511505Y-32108597D01*
X121375965Y-32302169D01*
X121375964Y-32302171D01*
X121276098Y-32516335D01*
X121276094Y-32516344D01*
X121214938Y-32744586D01*
X121214936Y-32744596D01*
X121194341Y-32979999D01*
X121194341Y-32980000D01*
X121214936Y-33215403D01*
X121214938Y-33215413D01*
X121276094Y-33443655D01*
X121276097Y-33443664D01*
X121320505Y-33538895D01*
X121330997Y-33607972D01*
X121302477Y-33671756D01*
X121244001Y-33709996D01*
X121208123Y-33715300D01*
X106811484Y-33715300D01*
X106795299Y-33714239D01*
X106763996Y-33710118D01*
X106763994Y-33710118D01*
X106657241Y-33724171D01*
X106657241Y-33724172D01*
X106635110Y-33727085D01*
X106615295Y-33729695D01*
X106612741Y-33729862D01*
X106607239Y-33730755D01*
X106607225Y-33730759D01*
X106496598Y-33776584D01*
X106496596Y-33776585D01*
X106466818Y-33788919D01*
X106462196Y-33790571D01*
X106461161Y-33791261D01*
X106461121Y-33791292D01*
X106390989Y-33845106D01*
X106359714Y-33869103D01*
X106335717Y-33887518D01*
X106316492Y-33912571D01*
X106305802Y-33924761D01*
X104435702Y-35794891D01*
X104374379Y-35828376D01*
X104304687Y-35823392D01*
X104248753Y-35781521D01*
X104224336Y-35716057D01*
X104230089Y-35668892D01*
X104326244Y-35372958D01*
X104385191Y-35063949D01*
X104385192Y-35063942D01*
X104404943Y-34750005D01*
X104404943Y-34749994D01*
X104385192Y-34436057D01*
X104385191Y-34436050D01*
X104326244Y-34127041D01*
X104229036Y-33827867D01*
X104229034Y-33827862D01*
X104095099Y-33543238D01*
X104095096Y-33543232D01*
X103926542Y-33277632D01*
X103926539Y-33277628D01*
X103835712Y-33167838D01*
X103197732Y-33805818D01*
X103034870Y-33615130D01*
X102844180Y-33452266D01*
X103485027Y-32811419D01*
X103485026Y-32811417D01*
X103242227Y-32635014D01*
X103242209Y-32635003D01*
X102966552Y-32483459D01*
X102966544Y-32483455D01*
X102674073Y-32367659D01*
X102369379Y-32289426D01*
X102369370Y-32289424D01*
X102057298Y-32250000D01*
X101742701Y-32250000D01*
X101430629Y-32289424D01*
X101430620Y-32289426D01*
X101125926Y-32367659D01*
X100833455Y-32483455D01*
X100833447Y-32483459D01*
X100557787Y-32635004D01*
X100557782Y-32635007D01*
X100314972Y-32811418D01*
X100314971Y-32811419D01*
X100955819Y-33452266D01*
X100765130Y-33615130D01*
X100602266Y-33805818D01*
X99964286Y-33167838D01*
X99964285Y-33167838D01*
X99873459Y-33277629D01*
X99873457Y-33277632D01*
X99704903Y-33543232D01*
X99704900Y-33543238D01*
X99570965Y-33827862D01*
X99570963Y-33827867D01*
X99473755Y-34127041D01*
X99414808Y-34436050D01*
X99414807Y-34436057D01*
X99395057Y-34749994D01*
X99395057Y-34750005D01*
X99414807Y-35063942D01*
X99414808Y-35063949D01*
X99473755Y-35372958D01*
X99570963Y-35672132D01*
X99570965Y-35672137D01*
X99704900Y-35956761D01*
X99704903Y-35956767D01*
X99873457Y-36222367D01*
X99873460Y-36222371D01*
X99964286Y-36332160D01*
X100602266Y-35694180D01*
X100765130Y-35884870D01*
X100955818Y-36047732D01*
X100314971Y-36688579D01*
X100314972Y-36688581D01*
X100557772Y-36864985D01*
X100557790Y-36864996D01*
X100833447Y-37016540D01*
X100833455Y-37016544D01*
X101125926Y-37132340D01*
X101430620Y-37210573D01*
X101430629Y-37210575D01*
X101742701Y-37249999D01*
X101742715Y-37250000D01*
X102057285Y-37250000D01*
X102057298Y-37249999D01*
X102369370Y-37210575D01*
X102369379Y-37210573D01*
X102674071Y-37132341D01*
X102819586Y-37074728D01*
X102889164Y-37068351D01*
X102951145Y-37100603D01*
X102985849Y-37161245D01*
X102982259Y-37231022D01*
X102952916Y-37277701D01*
X100088957Y-40141706D01*
X100076764Y-40152399D01*
X100051719Y-40171616D01*
X99955459Y-40297065D01*
X99954770Y-40298098D01*
X99953124Y-40302705D01*
X99949286Y-40311975D01*
X99949278Y-40311994D01*
X99894958Y-40443130D01*
X99894954Y-40443144D01*
X99894061Y-40448646D01*
X99893894Y-40451200D01*
X99891598Y-40468642D01*
X99891598Y-40468643D01*
X99883314Y-40531575D01*
X99880565Y-40552454D01*
X99874318Y-40599905D01*
X99874330Y-40599999D01*
X99878439Y-40631204D01*
X99879500Y-40647391D01*
X99879500Y-41863306D01*
X99859815Y-41930345D01*
X99826623Y-41964881D01*
X99640859Y-42094953D01*
X99479954Y-42255858D01*
X99349432Y-42442265D01*
X99349431Y-42442267D01*
X99253261Y-42648502D01*
X99253258Y-42648511D01*
X99194366Y-42868302D01*
X99194364Y-42868313D01*
X99174532Y-43094998D01*
X99174532Y-43095001D01*
X99194364Y-43321686D01*
X99194366Y-43321697D01*
X99253258Y-43541488D01*
X99253261Y-43541497D01*
X99349431Y-43747732D01*
X99349432Y-43747734D01*
X99479954Y-43934141D01*
X99640858Y-44095045D01*
X99640861Y-44095047D01*
X99827266Y-44225568D01*
X100033504Y-44321739D01*
X100033509Y-44321740D01*
X100033511Y-44321741D01*
X100177136Y-44360225D01*
X100236797Y-44396590D01*
X100267326Y-44459437D01*
X100259031Y-44528812D01*
X100214546Y-44582690D01*
X100177136Y-44599775D01*
X100033511Y-44638258D01*
X100033502Y-44638261D01*
X99827267Y-44734431D01*
X99827265Y-44734432D01*
X99640858Y-44864954D01*
X99479954Y-45025858D01*
X99349432Y-45212265D01*
X99349431Y-45212267D01*
X99253261Y-45418502D01*
X99253258Y-45418511D01*
X99194366Y-45638302D01*
X99194364Y-45638313D01*
X99174532Y-45864998D01*
X99174532Y-45865001D01*
X99194364Y-46091686D01*
X99194366Y-46091697D01*
X99253258Y-46311488D01*
X99253261Y-46311496D01*
X99349431Y-46517732D01*
X99349432Y-46517734D01*
X99479954Y-46704141D01*
X99640858Y-46865045D01*
X99640861Y-46865047D01*
X99827266Y-46995568D01*
X100033504Y-47091739D01*
X100178102Y-47130483D01*
X100237761Y-47166848D01*
X100268291Y-47229694D01*
X100259997Y-47299070D01*
X100215512Y-47352948D01*
X100178102Y-47370033D01*
X100033680Y-47408731D01*
X100033673Y-47408734D01*
X99827516Y-47504866D01*
X99827512Y-47504868D01*
X99754526Y-47555973D01*
X99754526Y-47555974D01*
X100347466Y-48148913D01*
X100337685Y-48150320D01*
X100206900Y-48210048D01*
X100098239Y-48304202D01*
X100020507Y-48425156D01*
X99996923Y-48505475D01*
X99400974Y-47909526D01*
X99400973Y-47909526D01*
X99349868Y-47982512D01*
X99349866Y-47982516D01*
X99253734Y-48188673D01*
X99253730Y-48188682D01*
X99194860Y-48408389D01*
X99194858Y-48408400D01*
X99175034Y-48634997D01*
X99175034Y-48635002D01*
X99194858Y-48861599D01*
X99194860Y-48861610D01*
X99253730Y-49081317D01*
X99253735Y-49081331D01*
X99349863Y-49287478D01*
X99400974Y-49360472D01*
X99996923Y-48764523D01*
X100020507Y-48844844D01*
X100098239Y-48965798D01*
X100206900Y-49059952D01*
X100337685Y-49119680D01*
X100347466Y-49121086D01*
X99754526Y-49714025D01*
X99827513Y-49765132D01*
X99827521Y-49765136D01*
X100033668Y-49861264D01*
X100033682Y-49861269D01*
X100178101Y-49899966D01*
X100237762Y-49936331D01*
X100268291Y-49999178D01*
X100259996Y-50068553D01*
X100215511Y-50122431D01*
X100178102Y-50139516D01*
X100033508Y-50178259D01*
X100033502Y-50178261D01*
X99827267Y-50274431D01*
X99827265Y-50274432D01*
X99640858Y-50404954D01*
X99479954Y-50565858D01*
X99349432Y-50752265D01*
X99349431Y-50752267D01*
X99253261Y-50958502D01*
X99253258Y-50958511D01*
X99194366Y-51178302D01*
X99194364Y-51178313D01*
X99174532Y-51404998D01*
X99174532Y-51405001D01*
X91940500Y-51405001D01*
X91940500Y-31104500D01*
X91960185Y-31037461D01*
X92012989Y-30991706D01*
X92064500Y-30980500D01*
X164475500Y-30980500D01*
X164542539Y-31000185D01*
G37*
%TD.AperFunction*%
%TD*%
M02*
