M48
; DRILL file {KiCad 8.0.3+1} date 2024-06-15T10:48:49+0100
; FORMAT={-:-/ absolute / inch / decimal}
; #@! TF.CreationDate,2024-06-15T10:48:49+01:00
; #@! TF.GenerationSoftware,Kicad,Pcbnew,8.0.3+1
; #@! TF.FileFunction,Plated,1,2,PTH
FMAT,2
INCH
; #@! TA.AperFunction,Plated,PTH,ViaDrill
T1C0.0118
; #@! TA.AperFunction,Plated,PTH,ComponentDrill
T2C0.0315
; #@! TA.AperFunction,Plated,PTH,ComponentDrill
T3C0.0394
; #@! TA.AperFunction,Plated,PTH,ComponentDrill
T4C0.0550
; #@! TA.AperFunction,Plated,PTH,ComponentDrill
T5C0.1260
%
G90
G05
T1
X4.2754Y-1.7997
X4.4937Y-2.3028
X4.7363Y-3.1487
X5.0385Y-2.2847
T2
X4.4646Y-3.2657
X4.5551Y-1.9575
X4.5551Y-2.3575
X4.6201Y-2.6169
X4.6201Y-3.0169
X4.6614Y-3.2657
T3
X3.9559Y-1.6967
X3.9559Y-1.8057
X3.9559Y-1.9148
X3.9559Y-2.0238
X4.0677Y-1.6421
X4.0677Y-1.7512
X4.0677Y-1.8602
X4.0677Y-1.9693
X4.0677Y-2.0783
X4.8248Y-1.2984
X4.8248Y-1.3984
X4.8248Y-1.4984
X4.8248Y-1.5984
X4.8248Y-1.6984
X4.8248Y-1.7984
X4.8248Y-1.8984
X4.8248Y-1.9984
X4.8248Y-2.0984
X4.8248Y-2.1984
X4.8248Y-2.2984
X4.8248Y-2.3984
X4.8248Y-2.4984
X4.8248Y-2.5984
X4.8248Y-2.6984
X4.8248Y-2.7984
X4.8248Y-2.8984
X4.8248Y-2.9984
X4.8248Y-3.0984
X4.8248Y-3.1984
X5.624Y-1.2969
X5.624Y-1.3969
X5.624Y-1.4969
X5.624Y-1.5969
X5.624Y-1.6969
X5.624Y-1.7969
X5.624Y-1.8969
X5.624Y-1.9969
X5.624Y-2.0969
X5.624Y-2.1969
X5.624Y-2.2969
X5.624Y-2.3969
X5.624Y-2.4969
X5.624Y-2.5969
X5.624Y-2.6969
X5.624Y-2.7969
X5.624Y-2.8969
X5.624Y-2.9969
X5.624Y-3.0969
X5.624Y-3.1969
X5.889Y-1.463
X5.889Y-1.563
X5.989Y-1.463
X5.989Y-1.563
X6.089Y-1.463
X6.089Y-1.563
X6.189Y-1.463
X6.189Y-1.563
X6.289Y-1.463
X6.289Y-1.563
X6.389Y-1.463
X6.389Y-1.563
T4
X4.0648Y-2.6359
X4.0648Y-3.2263
X4.0649Y-2.9311
X4.1633Y-2.7344
X4.1633Y-3.1278
T5
X4.0118Y-1.3681
X4.0118Y-2.3524
M30
