%TF.GenerationSoftware,KiCad,Pcbnew,7.0.11+1*%
%TF.CreationDate,2024-06-05T10:26:46+01:00*%
%TF.ProjectId,nanoshield,6e616e6f-7368-4696-956c-642e6b696361,rev?*%
%TF.SameCoordinates,Original*%
%TF.FileFunction,Copper,L1,Top*%
%TF.FilePolarity,Positive*%
%FSLAX46Y46*%
G04 Gerber Fmt 4.6, Leading zero omitted, Abs format (unit mm)*
G04 Created by KiCad (PCBNEW 7.0.11+1) date 2024-06-05 10:26:46*
%MOMM*%
%LPD*%
G01*
G04 APERTURE LIST*
%TA.AperFunction,ComponentPad*%
%ADD10R,1.700000X1.700000*%
%TD*%
%TA.AperFunction,ComponentPad*%
%ADD11O,1.700000X1.700000*%
%TD*%
%TA.AperFunction,ComponentPad*%
%ADD12C,4.000000*%
%TD*%
%TA.AperFunction,ComponentPad*%
%ADD13R,1.600000X1.600000*%
%TD*%
%TA.AperFunction,ComponentPad*%
%ADD14C,1.600000*%
%TD*%
%TA.AperFunction,ComponentPad*%
%ADD15O,1.600000X1.600000*%
%TD*%
%TA.AperFunction,WasherPad*%
%ADD16C,2.499360*%
%TD*%
%TA.AperFunction,ComponentPad*%
%ADD17C,2.499360*%
%TD*%
%TA.AperFunction,ViaPad*%
%ADD18C,0.600000*%
%TD*%
%TA.AperFunction,Conductor*%
%ADD19C,0.200000*%
%TD*%
G04 APERTURE END LIST*
D10*
%TO.P,J3,1,Pin_1*%
%TO.N,+5V*%
X122550000Y-81240000D03*
D11*
%TO.P,J3,2,Pin_2*%
%TO.N,GND*%
X122550000Y-78700000D03*
%TO.P,J3,3,Pin_3*%
%TO.N,unconnected-(J3-Pin_3-Pad3)*%
X122550000Y-76160000D03*
%TO.P,J3,4,Pin_4*%
%TO.N,unconnected-(J3-Pin_4-Pad4)*%
X122550000Y-73620000D03*
%TO.P,J3,5,Pin_5*%
%TO.N,miso*%
X122550000Y-71080000D03*
%TO.P,J3,6,Pin_6*%
%TO.N,mosi*%
X122550000Y-68540000D03*
%TO.P,J3,7,Pin_7*%
%TO.N,csn*%
X122550000Y-66000000D03*
%TO.P,J3,8,Pin_8*%
%TO.N,sck*%
X122550000Y-63460000D03*
%TO.P,J3,9,Pin_9*%
%TO.N,irq*%
X122550000Y-60920000D03*
%TO.P,J3,10,Pin_10*%
%TO.N,unconnected-(J3-Pin_10-Pad10)*%
X122550000Y-58380000D03*
%TO.P,J3,11,Pin_11*%
%TO.N,unconnected-(J3-Pin_11-Pad11)*%
X122550000Y-55840000D03*
%TO.P,J3,12,Pin_12*%
%TO.N,unconnected-(J3-Pin_12-Pad12)*%
X122550000Y-53300000D03*
%TO.P,J3,13,Pin_13*%
%TO.N,unconnected-(J3-Pin_13-Pad13)*%
X122550000Y-50760000D03*
%TO.P,J3,14,Pin_14*%
%TO.N,unconnected-(J3-Pin_14-Pad14)*%
X122550000Y-48220000D03*
%TO.P,J3,15,Pin_15*%
%TO.N,unconnected-(J3-Pin_15-Pad15)*%
X122550000Y-45680000D03*
%TO.P,J3,16,Pin_16*%
%TO.N,unconnected-(J3-Pin_16-Pad16)*%
X122550000Y-43140000D03*
%TO.P,J3,17,Pin_17*%
%TO.N,unconnected-(J3-Pin_17-Pad17)*%
X122550000Y-40600000D03*
%TO.P,J3,18,Pin_18*%
%TO.N,midi-out*%
X122550000Y-38060000D03*
%TO.P,J3,19,Pin_19*%
%TO.N,unconnected-(J3-Pin_19-Pad19)*%
X122550000Y-35520000D03*
%TO.P,J3,20,Pin_20*%
%TO.N,unconnected-(J3-Pin_20-Pad20)*%
X122550000Y-32980000D03*
%TD*%
D10*
%TO.P,J1,1,Pin_1*%
%TO.N,unconnected-(J1-Pin_1-Pad1)*%
X145410000Y-81240000D03*
D11*
%TO.P,J1,2,Pin_2*%
%TO.N,unconnected-(J1-Pin_2-Pad2)*%
X145410000Y-78700000D03*
%TO.P,J1,3,Pin_3*%
%TO.N,unconnected-(J1-Pin_3-Pad3)*%
X145410000Y-76160000D03*
%TO.P,J1,4,Pin_4*%
%TO.N,unconnected-(J1-Pin_4-Pad4)*%
X145410000Y-73620000D03*
%TO.P,J1,5,Pin_5*%
%TO.N,unconnected-(J1-Pin_5-Pad5)*%
X145410000Y-71080000D03*
%TO.P,J1,6,Pin_6*%
%TO.N,unconnected-(J1-Pin_6-Pad6)*%
X145410000Y-68540000D03*
%TO.P,J1,7,Pin_7*%
%TO.N,unconnected-(J1-Pin_7-Pad7)*%
X145410000Y-66000000D03*
%TO.P,J1,8,Pin_8*%
%TO.N,btn0*%
X145410000Y-63460000D03*
%TO.P,J1,9,Pin_9*%
%TO.N,down*%
X145410000Y-60920000D03*
%TO.P,J1,10,Pin_10*%
%TO.N,up*%
X145410000Y-58380000D03*
%TO.P,J1,11,Pin_11*%
%TO.N,right*%
X145410000Y-55840000D03*
%TO.P,J1,12,Pin_12*%
%TO.N,left*%
X145410000Y-53300000D03*
%TO.P,J1,13,Pin_13*%
%TO.N,btn1*%
X145410000Y-50760000D03*
%TO.P,J1,14,Pin_14*%
%TO.N,unconnected-(J1-Pin_14-Pad14)*%
X145410000Y-48220000D03*
%TO.P,J1,15,Pin_15*%
%TO.N,unconnected-(J1-Pin_15-Pad15)*%
X145410000Y-45680000D03*
%TO.P,J1,16,Pin_16*%
%TO.N,unconnected-(J1-Pin_16-Pad16)*%
X145410000Y-43140000D03*
%TO.P,J1,17,Pin_17*%
%TO.N,unconnected-(J1-Pin_17-Pad17)*%
X145410000Y-40600000D03*
%TO.P,J1,18,Pin_18*%
%TO.N,unconnected-(J1-Pin_18-Pad18)*%
X145410000Y-38060000D03*
%TO.P,J1,19,Pin_19*%
%TO.N,+3V3*%
X145410000Y-35520000D03*
%TO.P,J1,20,Pin_20*%
%TO.N,GND*%
X145410000Y-32980000D03*
%TD*%
D12*
%TO.P,J2,0,PAD*%
%TO.N,GND*%
X101900000Y-34750000D03*
X101900000Y-59750000D03*
D13*
%TO.P,J2,1,1*%
%TO.N,up*%
X103320000Y-41710000D03*
D14*
%TO.P,J2,2,2*%
%TO.N,down*%
X103320000Y-44480000D03*
%TO.P,J2,3,3*%
%TO.N,left*%
X103320000Y-47250000D03*
%TO.P,J2,4,4*%
%TO.N,right*%
X103320000Y-50020000D03*
%TO.P,J2,5,5*%
%TO.N,unconnected-(J2-Pad5)*%
X103320000Y-52790000D03*
%TO.P,J2,6,6*%
%TO.N,btn0*%
X100480000Y-43095000D03*
%TO.P,J2,7,7*%
%TO.N,+5V*%
X100480000Y-45865000D03*
%TO.P,J2,8,8*%
%TO.N,GND*%
X100480000Y-48635000D03*
%TO.P,J2,9,9*%
%TO.N,btn1*%
X100480000Y-51405000D03*
%TD*%
%TO.P,C1,1*%
%TO.N,+5V*%
X118400000Y-82950000D03*
%TO.P,C1,2*%
%TO.N,GND*%
X113400000Y-82950000D03*
%TD*%
%TO.P,R1,1*%
%TO.N,+3V3*%
X117350000Y-66470000D03*
D15*
%TO.P,R1,2*%
%TO.N,Net-(J5-Pad4)*%
X117350000Y-76630000D03*
%TD*%
D16*
%TO.P,J5,*%
%TO.N,*%
X93202600Y-70798740D03*
X93202600Y-80801260D03*
D17*
%TO.P,J5,1*%
%TO.N,unconnected-(J5-Pad1)*%
X103197500Y-83298080D03*
%TO.P,J5,2*%
%TO.N,GND*%
X103200040Y-75800000D03*
%TO.P,J5,3*%
%TO.N,unconnected-(J5-Pad3)*%
X103197500Y-68301920D03*
%TO.P,J5,4*%
%TO.N,Net-(J5-Pad4)*%
X105699400Y-80796180D03*
%TO.P,J5,5*%
%TO.N,Net-(J5-Pad5)*%
X105699400Y-70803820D03*
%TD*%
D14*
%TO.P,R2,1*%
%TO.N,Net-(J5-Pad5)*%
X115700000Y-59880000D03*
D15*
%TO.P,R2,2*%
%TO.N,midi-out*%
X115700000Y-49720000D03*
%TD*%
D10*
%TO.P,J4,1,Pin_1*%
%TO.N,unconnected-(J4-Pin_1-Pad1)*%
X149800000Y-39160000D03*
D11*
%TO.P,J4,2,Pin_2*%
%TO.N,unconnected-(J4-Pin_2-Pad2)*%
X149800000Y-41700000D03*
%TO.P,J4,3,Pin_3*%
%TO.N,irq*%
X152340000Y-39160000D03*
%TO.P,J4,4,Pin_4*%
%TO.N,unconnected-(J4-Pin_4-Pad4)*%
X152340000Y-41700000D03*
%TO.P,J4,5,Pin_5*%
%TO.N,csn*%
X154880000Y-39160000D03*
%TO.P,J4,6,Pin_6*%
%TO.N,sck*%
X154880000Y-41700000D03*
%TO.P,J4,7,Pin_7*%
%TO.N,miso*%
X157420000Y-39160000D03*
%TO.P,J4,8,Pin_8*%
%TO.N,mosi*%
X157420000Y-41700000D03*
%TO.P,J4,9,Pin_9*%
%TO.N,+5V*%
X159960000Y-39160000D03*
%TO.P,J4,10,Pin_10*%
%TO.N,unconnected-(J4-Pin_10-Pad10)*%
X159960000Y-41700000D03*
%TO.P,J4,11,Pin_11*%
%TO.N,GND*%
X162500000Y-39160000D03*
%TO.P,J4,12,Pin_12*%
X162500000Y-41700000D03*
%TD*%
D18*
%TO.N,down*%
X104186000Y-45535700D03*
X139600000Y-59750000D03*
%TO.N,right*%
X108595000Y-45713300D03*
%TO.N,left*%
X106808000Y-44122300D03*
%TO.N,miso*%
X137854000Y-63827000D03*
%TO.N,mosi*%
X125319000Y-64326000D03*
%TO.N,sck*%
X137946000Y-48271500D03*
%TO.N,+5V*%
X148400000Y-35900000D03*
X120302000Y-79976800D03*
X115100000Y-42050000D03*
%TO.N,Net-(J5-Pad5)*%
X114141000Y-58492100D03*
%TD*%
D19*
%TO.N,Net-(J5-Pad4)*%
X105699400Y-80796200D02*
X112248000Y-80796200D01*
X116414000Y-76630000D02*
X117350000Y-76630000D01*
X112248000Y-80796200D02*
X116414000Y-76630000D01*
%TO.N,down*%
X131850000Y-59750000D02*
X139600000Y-59750000D01*
X104186000Y-45535700D02*
X113100000Y-54450000D01*
X126150000Y-54050000D02*
X131850000Y-59750000D01*
X125750000Y-54450000D02*
X126150000Y-54050000D01*
X113100000Y-54450000D02*
X125750000Y-54450000D01*
%TO.N,up*%
X118428000Y-50010200D02*
X120448000Y-52030000D01*
X103822000Y-41710000D02*
X104022000Y-41910000D01*
X142723000Y-58420000D02*
X145370000Y-58420000D01*
X123700000Y-52030000D02*
X123831000Y-52160300D01*
X137556000Y-56990400D02*
X141293000Y-56990400D01*
X123831000Y-52160300D02*
X130664000Y-52160300D01*
X110461000Y-48637500D02*
X110461000Y-48637400D01*
X104022000Y-41910000D02*
X104022000Y-42198000D01*
X104022000Y-42198000D02*
X110461000Y-48637500D01*
X116156000Y-48618100D02*
X117549000Y-50010200D01*
X136806000Y-56240400D02*
X137556000Y-56990400D01*
X114243000Y-48618100D02*
X116156000Y-48618100D01*
X110461000Y-48637400D02*
X110479000Y-48619600D01*
X117549000Y-50010200D02*
X118428000Y-50010200D01*
X120448000Y-52030000D02*
X123700000Y-52030000D01*
X110479000Y-48619600D02*
X114241000Y-48619600D01*
X141293000Y-56990400D02*
X142723000Y-58420000D01*
X134744000Y-56240400D02*
X136806000Y-56240400D01*
X114241000Y-48619600D02*
X114243000Y-48618100D01*
X130664000Y-52160300D02*
X134744000Y-56240400D01*
%TO.N,right*%
X118314000Y-49406900D02*
X136456000Y-49406900D01*
X114621000Y-45713300D02*
X118314000Y-49406900D01*
X142890000Y-55840000D02*
X145410000Y-55840000D01*
X108595000Y-45713300D02*
X114621000Y-45713300D01*
X136456000Y-49406900D02*
X142890000Y-55840000D01*
%TO.N,left*%
X134635000Y-46950000D02*
X120592000Y-46950000D01*
X141441000Y-53756000D02*
X134635000Y-46950000D01*
X107636000Y-44949900D02*
X106808000Y-44122300D01*
X120592000Y-46950000D02*
X118592000Y-44949900D01*
X118592000Y-44949900D02*
X107636000Y-44949900D01*
X144954000Y-53756000D02*
X141441000Y-53756000D01*
%TO.N,btn1*%
X139586000Y-50760000D02*
X133296000Y-44469900D01*
X133296000Y-44469900D02*
X115827000Y-44469900D01*
X97335700Y-39244600D02*
X97335700Y-48260700D01*
X98810600Y-37769700D02*
X97335700Y-39244600D01*
X97335700Y-48260700D02*
X100480000Y-51405000D01*
X115827000Y-44469900D02*
X109127000Y-37769700D01*
X109127000Y-37769700D02*
X98810600Y-37769700D01*
X145410000Y-50760000D02*
X139586000Y-50760000D01*
%TO.N,miso*%
X142031000Y-59650000D02*
X147236000Y-59650000D01*
X158611000Y-48275300D02*
X158611000Y-41234000D01*
X147236000Y-59650000D02*
X158611000Y-48275300D01*
X158611000Y-41234000D02*
X157688000Y-40311900D01*
X157688000Y-40311900D02*
X157420000Y-40311900D01*
X157420000Y-40311900D02*
X157420000Y-39160000D01*
X137854000Y-63827000D02*
X142031000Y-59650000D01*
%TO.N,mosi*%
X125319000Y-64907500D02*
X125319000Y-64326000D01*
X122838000Y-67388100D02*
X125319000Y-64907500D01*
X122550000Y-68540000D02*
X122550000Y-67388100D01*
X122550000Y-67388100D02*
X122838000Y-67388100D01*
%TO.N,sck*%
X150968000Y-41377200D02*
X150968000Y-42205900D01*
X152817000Y-40500600D02*
X151844000Y-40500600D01*
X154880000Y-41700000D02*
X153728000Y-41700000D01*
X150968000Y-42205900D02*
X146168000Y-47005300D01*
X151844000Y-40500600D02*
X150968000Y-41377200D01*
X146168000Y-47005300D02*
X139212000Y-47005300D01*
X153728000Y-41700000D02*
X153728000Y-41412000D01*
X139212000Y-47005300D02*
X137946000Y-48271500D01*
X153728000Y-41412000D02*
X152817000Y-40500600D01*
%TO.N,+5V*%
X121398000Y-81072500D02*
X120850000Y-80524600D01*
X115100000Y-38900000D02*
X115100000Y-42050000D01*
X122550000Y-81240000D02*
X121398000Y-81240000D01*
X120850000Y-80524600D02*
X120302000Y-79976800D01*
X120825000Y-80524600D02*
X118400000Y-82950000D01*
X120850000Y-80524600D02*
X120825000Y-80524600D01*
X121398000Y-81240000D02*
X121398000Y-81072500D01*
X148400000Y-35900000D02*
X147630000Y-36670000D01*
X117330000Y-36670000D02*
X115100000Y-38900000D01*
X147630000Y-36670000D02*
X117330000Y-36670000D01*
%TO.N,Net-(J5-Pad5)*%
X105699000Y-66933700D02*
X105699000Y-68869800D01*
X105699400Y-68870200D02*
X105699400Y-70803800D01*
X105699000Y-68869800D02*
X105699000Y-70030200D01*
X114141000Y-58492100D02*
X105699000Y-66933700D01*
X105699000Y-68869800D02*
X105699400Y-68870200D01*
%TD*%
M02*
